<?xml version="1.0" encoding="utf-8"?>
<!-- Generator: Adobe Illustrator 15.1.0, SVG Export Plug-In . SVG Version: 6.00 Build 0)  -->
<!DOCTYPE svg PUBLIC "-//W3C//DTD SVG 1.1//EN" "http://www.w3.org/Graphics/SVG/1.1/DTD/svg11.dtd">
<svg version="1.1" id="Calque_1" xmlns="http://www.w3.org/2000/svg" xmlns:xlink="http://www.w3.org/1999/xlink" x="0px" y="0px"
	 width="32px" height="32px" viewBox="0 0 32 32" enable-background="new 0 0 32 32" xml:space="preserve">
<circle fill="#D9D9D9" cx="16.434" cy="8.458" r="0.912"/>
<circle fill="#D9D9D9" cx="24.019" cy="16.158" r="0.913"/>
<path fill="none" stroke="#010202" stroke-width="0.0393" stroke-miterlimit="10" d="M17.192,19.887"/>
<circle fill="#D9D9D9" cx="8.525" cy="15.715" r="0.912"/>
<path fill="#FFFFFF" d="M31.912,17.086c0,6.652-5.249,7.539-5.249,7.539h-7.807v2.176c0.862,0.323,1.478,1.153,1.478,2.128
	c0,1.256-1.018,2.273-2.273,2.273c-1.257,0-2.274-1.018-2.274-2.273c0-0.948,0.582-1.76,1.406-2.102v-6.056l5.147-2.946
	c0.433,0.436,1.03,0.708,1.691,0.708c1.311,0,2.375-1.063,2.375-2.375s-1.064-2.375-2.375-2.375c-1.312,0-2.375,1.063-2.375,2.375
	c0,0.052,0.005,0.104,0.008,0.157l-4.478,2.537v-8.157h-0.03c0.922-0.327,1.581-1.203,1.581-2.236c0-1.312-1.063-2.375-2.374-2.375
	c-1.312,0-2.374,1.063-2.374,2.375c0,1.033,0.66,1.909,1.581,2.236H15.54v8.159l-4.667-2.609c0.041-0.175,0.064-0.356,0.064-0.544
	c0-1.312-1.063-2.375-2.374-2.375c-1.311,0-2.375,1.063-2.375,2.375c0,1.311,1.063,2.375,2.375,2.375
	c0.568,0,1.089-0.201,1.498-0.532l5.479,3.197v3.863H6.563c0,0-6.453-1.166-6.453-7.517c0-6.352,7.954-9.11,7.954-9.11
	s1.375-6.9,8.397-6.9c7.022,0,7.802,6.9,7.802,6.9S31.912,10.433,31.912,17.086z M18.028,28.076c-0.505,0-0.912,0.408-0.912,0.911
	c0,0.506,0.407,0.913,0.912,0.913c0.504,0,0.912-0.407,0.912-0.913C18.94,28.484,18.532,28.076,18.028,28.076z"/>
</svg>
