<svg id="Calque_1" data-name="Calque 1" xmlns="http://www.w3.org/2000/svg" xmlns:xlink="http://www.w3.org/1999/xlink" viewBox="0 0 703.6 435.57"><defs><style>.cls-1{fill:#263238;}.cls-2{fill:#3b6f1c;}.cls-3{fill:#51c60c;}.cls-4{fill:#2c892c;}.cls-5{fill:#455a64;}.cls-6,.cls-8{fill:#fff;}.cls-6{opacity:0.9;}.cls-37,.cls-6{isolation:isolate;}.cls-7{fill:#42b395;}.cls-9{fill:#b3dfe0;}.cls-10{fill:#66676b;}.cls-11{fill:#0b8ba3;}.cls-12{fill:#00b1d2;}.cls-13{fill:#49616e;}.cls-14{fill:url(#Dégradé_sans_nom_5);}.cls-15{fill:url(#Dégradé_sans_nom_4);}.cls-16{fill:#738091;}.cls-17{fill:#4e626d;}.cls-18{fill:#96d5cd;}.cls-19{fill:none;stroke:#fff;stroke-miterlimit:10;stroke-width:2px;}.cls-20{fill:#2a4f98;}.cls-21{fill:#5684c2;}.cls-22{fill:#353c73;}.cls-23{fill:#c4d6eb;}.cls-24{fill:#ee897b;}.cls-25{fill:#e55740;}.cls-26{fill:#fcd274;}.cls-27{fill:#00d6a0;}.cls-28{fill:#9404b2;}.cls-29{opacity:0.6;}.cls-30{fill:#ffbe9d;}.cls-31{fill:#f9cebb;}.cls-32{fill:#fafafa;}.cls-33{opacity:0.3;}.cls-34{fill:#59747f;}.cls-35{fill:#56473f;}.cls-36{fill:#39e1f7;}</style><linearGradient id="Dégradé_sans_nom_5" x1="493.29" y1="206.94" x2="467.12" y2="166.99" gradientTransform="matrix(1, 0, 0, -1, -2.7, 594.67)" gradientUnits="userSpaceOnUse"><stop offset="0" stop-color="#f5ebcb"/><stop offset="0.14" stop-color="#efe7c8"/><stop offset="0.34" stop-color="#dddbc1"/><stop offset="0.57" stop-color="#bfc7b5"/><stop offset="0.82" stop-color="#96aca4"/><stop offset="1" stop-color="#759696"/></linearGradient><linearGradient id="Dégradé_sans_nom_4" x1="482.64" y1="219.85" x2="470" y2="158.44" gradientTransform="matrix(1, 0, 0, -1, -2.7, 594.67)" gradientUnits="userSpaceOnUse"><stop offset="0" stop-color="#8a8677"/><stop offset="0.17" stop-color="#706d61"/><stop offset="0.74" stop-color="#201f1b"/><stop offset="1"/></linearGradient></defs><g id="Plant"><rect class="cls-1" x="611.8" y="381.57" width="64.2" height="8.8"/><path class="cls-1" d="M678.8,399.8H614.4v-9h64.4Zm-64.2-.2h64V391h-64Z" transform="translate(-2.7 -9.33)"/><polygon class="cls-1" points="617.7 387.47 627 433.07 661.2 433.07 670.1 390.37 617.7 387.47"/><polygon class="cls-1" points="617.7 428.77 622.7 435.57 664.2 435.57 670.1 428.77 617.7 428.77"/><path class="cls-1" d="M644.2,398.1c-.1,0-.3-21.1-.4-47.2s0-47.2.1-47.2.3,21.1.4,47.2S644.3,398.1,644.2,398.1Z" transform="translate(-2.7 -9.33)"/><path class="cls-1" d="M658.5,345.3a1,1,0,0,1-.2.5c-.2.4-.3.8-.6,1.4a10.37,10.37,0,0,0-.4,1c-.1.4-.3.8-.4,1.2s-.3.9-.5,1.4-.3,1-.5,1.6a58.51,58.51,0,0,0-1.8,7.9,92.58,92.58,0,0,0-1,9.8,139.79,139.79,0,0,0,.5,18q.3,3.45.6,5.4c.1.6.1,1.1.2,1.5v.5a1.21,1.21,0,0,1-.1-.5c-.1-.4-.1-.9-.2-1.5-.2-1.3-.5-3.1-.7-5.4a109.5,109.5,0,0,1-.6-18,94.59,94.59,0,0,1,1-9.9,77.09,77.09,0,0,1,1.9-7.9c.2-.5.3-1.1.5-1.6a7.84,7.84,0,0,0,.5-1.4c.2-.4.3-.8.5-1.2a9.29,9.29,0,0,1,.5-1c.3-.5.5-1,.7-1.3C658.4,345.4,658.5,345.2,658.5,345.3Z" transform="translate(-2.7 -9.33)"/><path class="cls-1" d="M656.8,328.2a3.13,3.13,0,0,0-.2.7c-.2.5-.4,1.1-.7,2a12.13,12.13,0,0,1-.5,1.4c-.2.5-.3,1.1-.5,1.7q-.6,1.8-1.2,4.2l-.6,2.4c-.2.9-.4,1.7-.6,2.7-.4,1.8-.8,3.8-1.2,5.9-.7,4.2-1.3,8.8-1.8,13.7s-.6,9.6-.6,13.8,0,8.1.2,11.3c.1,1.6.2,3.1.2,4.3s.2,2.4.2,3.3.1,1.6.2,2.1v.7a1.73,1.73,0,0,1-.1-.7c-.1-.5-.1-1.2-.2-2.1s-.2-2-.3-3.3-.2-2.7-.3-4.3c-.2-3.2-.3-7.1-.3-11.3s.2-9,.6-13.9,1.1-9.6,1.8-13.8c.4-2.1.8-4.1,1.2-5.9l.6-2.7c.2-.8.5-1.7.7-2.4.4-1.6.9-2.9,1.3-4.2.2-.6.4-1.2.6-1.7a12.13,12.13,0,0,0,.5-1.4c.3-.8.6-1.5.8-1.9A3.22,3.22,0,0,1,656.8,328.2Z" transform="translate(-2.7 -9.33)"/><path class="cls-1" d="M640.1,401.9v-.2a2,2,0,0,0-.1-.7c0-.7-.1-1.6-.2-2.8-.2-2.5-.4-6-.6-10.3-.6-8.7-1.4-20.7-2.8-33.9-.7-6.6-1.6-12.9-2.5-18.6-.5-2.8-.9-5.5-1.4-8s-.9-4.9-1.4-7-.9-4-1.3-5.7-.7-3.1-1-4.3-.5-2.1-.7-2.7a6.37,6.37,0,0,0-.2-.7v-.2a.31.31,0,0,0,.1.2,6.37,6.37,0,0,1,.2.7c.2.7.4,1.6.8,2.7s.7,2.6,1.1,4.3.9,3.6,1.3,5.7,1,4.5,1.4,7,1,5.2,1.4,8c.9,5.7,1.8,12,2.6,18.6,1.5,13.2,2.2,25.2,2.7,33.9.2,4.3.4,7.9.5,10.3,0,1.2.1,2.1.1,2.8v.9Z" transform="translate(-2.7 -9.33)"/><path class="cls-2" d="M643.6,313.9c-.3-3-3.3-5.3-6.3-5.3a9.88,9.88,0,0,0-7.6,4.2A24.36,24.36,0,0,0,626,321c-2,7.1-3.1,14.5-2.3,21.7s3.8,14.5,9,19.6c.8.8,2,1.7,3.1,1.4a3.36,3.36,0,0,0,1.6-1,48.66,48.66,0,0,0,15.8-37c-.1-2.8-.4-5.7-2-8-1.4-2.3-4.9-4.7-7.6-3.8" transform="translate(-2.7 -9.33)"/><path class="cls-2" d="M621.2,289.9c-1.4,2.6-2.8,5.1-4.2,7.7-.1.2-.2.4-.4.4a.66.66,0,0,1-.5-.4c-3.7-5.7-7.5-11.5-11.2-17.2l2.6-1.5Z" transform="translate(-2.7 -9.33)"/><path class="cls-3" d="M643.9,303.7c-12.7-7.5-25.5-15-38.2-22.5a1.59,1.59,0,0,1-.9-.9c-.2-.6.3-1.1.7-1.5a26.25,26.25,0,0,1,20.4-8,23,23,0,0,1,18.4,11.5c3.7,6.5,3.8,15.2-.4,21.4" transform="translate(-2.7 -9.33)"/><path class="cls-1" d="M611.2,274a1.75,1.75,0,0,0,.5-.1c.3,0,.8-.1,1.4-.1a40.05,40.05,0,0,1,5.3.4,33.14,33.14,0,0,1,7.5,2.3,32.16,32.16,0,0,1,8.1,5.3,31.38,31.38,0,0,1,6,7.5,30.51,30.51,0,0,1,3,7.3,21.62,21.62,0,0,1,.9,5.2,8.17,8.17,0,0,1,.1,1.4v.5s-.1-.7-.2-1.9a32.64,32.64,0,0,0-1.1-5.2,31.59,31.59,0,0,0-9.1-14.6,32,32,0,0,0-15.4-7.6,48.76,48.76,0,0,0-5.2-.6C611.9,274,611.2,274.1,611.2,274Z" transform="translate(-2.7 -9.33)"/><path class="cls-1" d="M638.7,288.2a7.78,7.78,0,0,1-1.9.9c-1.2.5-2.9,1.1-4.8,1.7s-3.6,1.1-4.9,1.4a7.93,7.93,0,0,1-2.1.4,10.73,10.73,0,0,1,2-.7c1.4-.4,3-1,4.9-1.5s3.4-1.1,4.8-1.6A8.54,8.54,0,0,1,638.7,288.2Z" transform="translate(-2.7 -9.33)"/><path class="cls-1" d="M632.7,272a18.76,18.76,0,0,1,.5,4.3,16.49,16.49,0,0,1-.2,4.3,24.2,24.2,0,0,1-.2-4.3A35.36,35.36,0,0,1,632.7,272Z" transform="translate(-2.7 -9.33)"/><path class="cls-1" d="M605.4,280.8a17.1,17.1,0,0,1,2.8-1c1.7-.5,4.2-1.2,6.8-1.9s5.2-1.1,6.9-1.5a14.84,14.84,0,0,1,2.9-.4,18,18,0,0,1-2.9.7c-1.8.4-4.2.9-6.9,1.6s-5.1,1.3-6.9,1.7A9.67,9.67,0,0,1,605.4,280.8Z" transform="translate(-2.7 -9.33)"/><path class="cls-4" d="M626.3,306.8c-3.3-2.5-6.8-3-10.9-2.8a33.29,33.29,0,0,0-11.9,3.1c-6.4,2.8-12.5,7-16.3,12.9s-5.2,13.7-2.3,20.1a3.44,3.44,0,0,0,1.3,1.6,2.83,2.83,0,0,0,2.2-.2c7.3-2.4,14.7-4.8,21.4-8.5s12.9-8.9,16.5-15.7a12.28,12.28,0,0,0,1.7-5.2,7,7,0,0,0-1.7-5.3" transform="translate(-2.7 -9.33)"/><path class="cls-1" d="M626.4,306a4.2,4.2,0,0,1-.5.2c-.4.1-.9.3-1.5.5a7.6,7.6,0,0,0-1.1.4,11.22,11.22,0,0,0-1.3.5c-.9.4-2,.7-3.1,1.3-.6.3-1.2.5-1.8.8s-1.2.6-1.9,1c-1.3.7-2.7,1.5-4.1,2.3a77.06,77.06,0,0,0-8.7,6.4,60.47,60.47,0,0,0-7.5,7.8,46.14,46.14,0,0,0-2.8,3.8l-1.2,1.8a15.05,15.05,0,0,0-1,1.7c-.7,1.1-1.2,2.1-1.7,2.9-.2.4-.5.8-.7,1.2a5.36,5.36,0,0,0-.5,1.1c-.3.6-.5,1.1-.7,1.5a5.2,5.2,0,0,0-.3.5,4.2,4.2,0,0,0,.2-.5,11.64,11.64,0,0,0,.6-1.5,9.74,9.74,0,0,1,.5-1.1l.6-1.2c.5-.9,1-1.9,1.6-3,.3-.5.7-1.1,1-1.7l1.2-1.8a46.14,46.14,0,0,1,2.8-3.8,68.18,68.18,0,0,1,7.5-7.9,61.06,61.06,0,0,1,8.8-6.4c1.4-.8,2.8-1.7,4.1-2.3.7-.3,1.3-.7,1.9-1s1.2-.5,1.8-.8a25.58,25.58,0,0,1,3.2-1.2c.5-.2.9-.3,1.3-.5s.8-.2,1.1-.3c.6-.2,1.2-.3,1.6-.4Z" transform="translate(-2.7 -9.33)"/><path class="cls-1" d="M600.7,319.9a78.3,78.3,0,0,1-8,2.6c-4.4,1.3-8.1,2.3-8.1,2.1a78.3,78.3,0,0,1,8-2.6C597,320.8,600.7,319.8,600.7,319.9Z" transform="translate(-2.7 -9.33)"/><path class="cls-1" d="M600.4,337.6a14.06,14.06,0,0,1-.2-2.5v-6c.1-2.3.2-4.5.3-6a21.31,21.31,0,0,1,.3-2.5,8.36,8.36,0,0,1,0,2.5c-.1,1.7-.1,3.7-.2,6s-.1,4.3-.2,6A16.64,16.64,0,0,1,600.4,337.6Z" transform="translate(-2.7 -9.33)"/><path class="cls-1" d="M615.5,329.9c-.1,0-.5-4.3-.9-9.7s-.6-9.7-.4-9.7.5,4.3.9,9.7S615.6,329.9,615.5,329.9Z" transform="translate(-2.7 -9.33)"/><path class="cls-1" d="M596.7,310.1a11.07,11.07,0,0,1,2.6-.1c1.6,0,3.8.1,6.2.1s4.6.2,6.2.3,2.6.2,2.5.2a11.07,11.07,0,0,1-2.6.1c-1.6,0-3.8-.1-6.2-.1s-4.6-.2-6.2-.3A7.21,7.21,0,0,1,596.7,310.1Z" transform="translate(-2.7 -9.33)"/><path class="cls-1" d="M634.4,364.4a1.75,1.75,0,0,0-.1-.5,8.64,8.64,0,0,0-.1-1.5,49.52,49.52,0,0,1,0-5.5c0-2.3.2-5.1.5-8.2s.7-6.4,1.3-9.9,1.4-6.8,2.2-9.8,1.6-5.6,2.4-7.8,1.4-4,1.9-5.2a9.75,9.75,0,0,1,.6-1.4,4.2,4.2,0,0,1,.2-.5,1.75,1.75,0,0,1-.1.5c-.1.4-.3.8-.5,1.4-.5,1.2-1.1,3-1.8,5.2s-1.5,4.9-2.3,7.8-1.5,6.3-2.1,9.8-1.1,6.8-1.4,9.9-.5,5.8-.6,8.2-.1,4.2-.1,5.5v1.5A.69.69,0,0,1,634.4,364.4Z" transform="translate(-2.7 -9.33)"/><path class="cls-1" d="M636.4,338.3a15.21,15.21,0,0,1-1.5,1.7c-1,1-2.4,2.3-4,3.7s-3.1,2.6-4.2,3.5a8.1,8.1,0,0,1-1.9,1.3,10.74,10.74,0,0,1,1.7-1.5c1.2-1,2.6-2.2,4.1-3.6s2.9-2.6,4.1-3.6A15.21,15.21,0,0,1,636.4,338.3Z" transform="translate(-2.7 -9.33)"/><path class="cls-1" d="M648.5,348a11.3,11.3,0,0,1-1.6-2.2c-1-1.5-2.3-3.4-3.8-5.5s-2.8-3.9-3.9-5.5a12.33,12.33,0,0,1-1.5-2.3s.7.8,1.8,2.1,2.5,3.2,4,5.4,2.8,4.1,3.7,5.6A11.45,11.45,0,0,1,648.5,348Z" transform="translate(-2.7 -9.33)"/><path class="cls-1" d="M642.2,317.4a105.45,105.45,0,0,1-9,6c-5,3.2-9.1,5.8-9.2,5.7a105.45,105.45,0,0,1,9-6A104.73,104.73,0,0,1,642.2,317.4Z" transform="translate(-2.7 -9.33)"/><path class="cls-1" d="M653.5,329.6a70.92,70.92,0,0,1-6.1-5.6c-3.3-3.2-5.8-5.8-5.8-5.9a70.92,70.92,0,0,1,6.1,5.6A75.08,75.08,0,0,1,653.5,329.6Z" transform="translate(-2.7 -9.33)"/><path class="cls-3" d="M656.4,329.4l3.4-.3a17.72,17.72,0,0,0,7-2.1,23.88,23.88,0,0,1,3.2-1.6c4.3-1.7,9-1.4,13.6-1.6a57.44,57.44,0,0,0,21.6-5.5,2,2,0,0,0,.9-.9c.7-1.3-.6-2.4-1.7-3.1-5.8-3.6-11.7-7.2-18.3-9s-14.1-1.5-19.7,2.4c-6.5,4.4-8.9,13.8-10,21.7" transform="translate(-2.7 -9.33)"/><path class="cls-1" d="M706.3,316.9l-.6-.3a14.56,14.56,0,0,1-1.6-.9c-1.4-.7-3.5-1.8-6-3.1a60.4,60.4,0,0,0-9.3-3.6,31.9,31.9,0,0,0-12.1-1,20.82,20.82,0,0,0-11,4.7,24.1,24.1,0,0,0-5.7,8.1,61.32,61.32,0,0,0-2.5,6.3,12,12,0,0,0-.6,1.7,3.22,3.22,0,0,1-.2.6,1.55,1.55,0,0,1,.2-.6c.1-.4.3-1,.5-1.8a65.07,65.07,0,0,1,2.4-6.4,24.66,24.66,0,0,1,5.8-8.3,20.89,20.89,0,0,1,11.3-4.9,31,31,0,0,1,12.3,1,57.58,57.58,0,0,1,9.4,3.7c2.6,1.3,4.6,2.4,6,3.2.7.4,1.2.7,1.6.9C706.1,316.8,706.3,316.9,706.3,316.9Z" transform="translate(-2.7 -9.33)"/><path class="cls-1" d="M698,321.3c-.1.1-4.6-2.8-10.1-6.5s-9.9-6.8-9.8-6.9,4.6,2.8,10.1,6.5S698.1,321.2,698,321.3Z" transform="translate(-2.7 -9.33)"/><path class="cls-1" d="M693.7,307.5a12,12,0,0,1-3.5.7c-2,.2-3.6.1-3.6-.1a29.76,29.76,0,0,1,3.5-.4C692.1,307.6,693.6,307.4,693.7,307.5Z" transform="translate(-2.7 -9.33)"/><path class="cls-1" d="M673.5,303.9a14.15,14.15,0,0,1-1.5,3,9.32,9.32,0,0,1-1.9,2.7,14.15,14.15,0,0,1,1.5-3C672.5,305,673.3,303.8,673.5,303.9Z" transform="translate(-2.7 -9.33)"/><path class="cls-1" d="M677.5,324a9.77,9.77,0,0,1-2.2-1.2,52.83,52.83,0,0,1-4.9-3.3c-1.9-1.4-3.5-2.7-4.7-3.6a19.38,19.38,0,0,1-1.9-1.6,19.36,19.36,0,0,1,2.1,1.3c1.4,1,3,2.2,4.8,3.5s3.6,2.6,4.8,3.4A11.83,11.83,0,0,1,677.5,324Z" transform="translate(-2.7 -9.33)"/><path class="cls-4" d="M661.4,344c-3.3-.9-7.2,2.3-7.9,5.7s.6,6.7,2,9.8a49.54,49.54,0,0,0,13.6,17.8,34,34,0,0,0,20.8,7.7c-1.4-6.5.4-13.2-.4-19.8a25.65,25.65,0,0,0-22.7-22.5c-2.1-.3-4.5-.6-5.4,1.3" transform="translate(-2.7 -9.33)"/><path class="cls-1" d="M690,384.9a4.2,4.2,0,0,0-.5-.2,12.25,12.25,0,0,1-1.2-.8,13.26,13.26,0,0,1-3.2-4.3c-.5-1-1.1-2.1-1.7-3.3s-1.1-2.5-1.8-3.9a28.23,28.23,0,0,0-2.2-4.2c-.9-1.4-1.9-2.7-3-4.1-2.3-2.6-4.7-4.9-6.8-7.1a51.78,51.78,0,0,1-5.2-6.2,20.23,20.23,0,0,1-2.5-4.8,6.25,6.25,0,0,1-.4-1.4,1.75,1.75,0,0,1-.1-.5,14.44,14.44,0,0,0,.7,1.8,26.18,26.18,0,0,0,2.6,4.7,51.53,51.53,0,0,0,5.2,6.1c2.1,2.2,4.5,4.4,6.8,7.1a28.62,28.62,0,0,1,3,4.1,34.16,34.16,0,0,1,2.2,4.2c.6,1.4,1.2,2.7,1.7,3.9s1.1,2.3,1.6,3.4a13.85,13.85,0,0,0,3.1,4.4A8.31,8.31,0,0,0,690,384.9Z" transform="translate(-2.7 -9.33)"/><path class="cls-1" d="M673,379.6a6,6,0,0,1,.3-2.2c.3-1.4.7-3.2,1.2-5.2s1.2-3.8,1.7-5.1.8-2.1.9-2a10,10,0,0,1-.6,2.1c-.4,1.3-1,3.1-1.5,5.1s-1,3.9-1.4,5.2A18.32,18.32,0,0,1,673,379.6Z" transform="translate(-2.7 -9.33)"/><path class="cls-1" d="M689.3,363.7a15.55,15.55,0,0,1-2.3-.5c-1.4-.4-3.4-.9-5.5-1.4s-4.2-.9-5.6-1.1a14.48,14.48,0,0,1-2.3-.5,8.65,8.65,0,0,1,2.4.2,56.44,56.44,0,0,1,5.6,1c2.2.5,4.1,1.1,5.5,1.5A10.13,10.13,0,0,1,689.3,363.7Z" transform="translate(-2.7 -9.33)"/><path class="cls-1" d="M660.8,368.3a11.89,11.89,0,0,1,.4-2.6,61.28,61.28,0,0,1,1.4-6.1c.6-2.4,1.3-4.5,1.8-6s.9-2.4.9-2.4a12.81,12.81,0,0,1-.6,2.5c-.4,1.5-1,3.6-1.7,6s-1.1,4.5-1.5,6A21.82,21.82,0,0,1,660.8,368.3Z" transform="translate(-2.7 -9.33)"/><path class="cls-1" d="M681.8,349.9c0,.1-4.1-.2-9.2-.7a91,91,0,0,1-9.1-1.2c0-.1,4.1.2,9.2.7S681.8,349.8,681.8,349.9Z" transform="translate(-2.7 -9.33)"/><path class="cls-5" d="M678.8,399.7c0,.1-14.4.2-32.2.2s-32.2-.1-32.2-.2,14.4-.2,32.2-.2S678.8,399.6,678.8,399.7Z" transform="translate(-2.7 -9.33)"/><path class="cls-5" d="M668.8,418.3c0,.1-9.7.2-21.7.2s-21.7-.1-21.7-.2,9.7-.2,21.7-.2S668.8,418.1,668.8,418.3Z" transform="translate(-2.7 -9.33)"/><path class="cls-5" d="M669.1,420.9c0,.1-9.7.2-21.7.2s-21.7-.1-21.7-.2,9.7-.2,21.7-.2S669.1,420.8,669.1,420.9Z" transform="translate(-2.7 -9.33)"/><path class="cls-5" d="M669.1,416.1c0,.1-10.1.2-22.5.2s-22.5-.1-22.5-.2,10.1-.2,22.5-.2S669.1,415.9,669.1,416.1Z" transform="translate(-2.7 -9.33)"/></g><g id="Floor"><path class="cls-1" d="M2.7,443.4c0,.8,154.3,1.5,344.5,1.5s344.6-.7,344.6-1.5-154.2-1.5-344.6-1.5C157,442,2.7,442.6,2.7,443.4Z" transform="translate(-2.7 -9.33)"/></g><g id="Character_4" data-name="Character 4"><g id="ImagePC"><path class="cls-6" d="M514.7,239.4H404.5a10,10,0,0,1-10-10V187.9a10,10,0,0,1,10-10H514.7a10,10,0,0,1,10,10v41.5A10,10,0,0,1,514.7,239.4Z" transform="translate(-2.7 -9.33)"/><path class="cls-7" d="M447.4,214.4H431.2a6.7,6.7,0,0,1-6.7-6.7V191.4a6.7,6.7,0,0,1,6.7-6.7h16.2a6.7,6.7,0,0,1,6.7,6.7v16.2A6.66,6.66,0,0,1,447.4,214.4Z" transform="translate(-2.7 -9.33)"/><path class="cls-8" d="M446.8,196.9l-8.4,8.4a1.69,1.69,0,0,1-2.3,0l-4.3-4.3a1.63,1.63,0,0,1,2.3-2.3l3.2,3.2,7.3-7.3a1.69,1.69,0,0,1,2.3,0A1.79,1.79,0,0,1,446.8,196.9Z" transform="translate(-2.7 -9.33)"/><path class="cls-9" d="M487.9,214.4H471.7a6.7,6.7,0,0,1-6.7-6.7V191.4a6.7,6.7,0,0,1,6.7-6.7h16.2a6.7,6.7,0,0,1,6.7,6.7v16.2A6.6,6.6,0,0,1,487.9,214.4Z" transform="translate(-2.7 -9.33)"/><path class="cls-8" d="M487.3,196.9l-8.4,8.4a1.69,1.69,0,0,1-2.3,0l-4.3-4.3a1.63,1.63,0,0,1,2.3-2.3l3.2,3.2,7.3-7.3a1.69,1.69,0,0,1,2.3,0A1.79,1.79,0,0,1,487.3,196.9Z" transform="translate(-2.7 -9.33)"/><path class="cls-10" d="M432.1,220.9v10.6H431V220.9Z" transform="translate(-2.7 -9.33)"/><path class="cls-10" d="M442.3,231.4h-1.1l-5.8-8.8v8.8h-1.1V220.8h1.1l5.8,8.9v-8.9h1.1Z" transform="translate(-2.7 -9.33)"/><path class="cls-10" d="M452.4,221.6a5.77,5.77,0,0,1,1.8,2.5h-1.1a3.19,3.19,0,0,0-1.4-1.8,3.79,3.79,0,0,0-2.4-.7,4.55,4.55,0,0,0-2,.5,4,4,0,0,0-1.4,1.5,5.93,5.93,0,0,0-.5,2.3,5.56,5.56,0,0,0,.5,2.3,3.39,3.39,0,0,0,1.4,1.5,3.51,3.51,0,0,0,2,.5,3.61,3.61,0,0,0,2.4-.7,4.89,4.89,0,0,0,1.4-1.8h1.1a4.21,4.21,0,0,1-1.8,2.5,5.17,5.17,0,0,1-3.1.9,4.62,4.62,0,0,1-2.6-.7,5.46,5.46,0,0,1-1.8-1.9,6.83,6.83,0,0,1,0-5.6,4.14,4.14,0,0,1,1.8-1.9,4.62,4.62,0,0,1,2.6-.7A11.12,11.12,0,0,1,452.4,221.6Z" transform="translate(-2.7 -9.33)"/><path class="cls-10" d="M457.1,230.5h3.8v.9H456V220.8h1.1Z" transform="translate(-2.7 -9.33)"/><path class="cls-10" d="M463.4,220.9v6.4a3.56,3.56,0,0,0,.7,2.5,2.79,2.79,0,0,0,2,.8,2.63,2.63,0,0,0,2-.8,3.56,3.56,0,0,0,.7-2.5v-6.4h1.1v6.4a4.4,4.4,0,0,1-1,3.2,4.11,4.11,0,0,1-5.6,0,4.4,4.4,0,0,1-1-3.2v-6.4Z" transform="translate(-2.7 -9.33)"/><path class="cls-10" d="M480.3,228.9a4.14,4.14,0,0,1-1.9,1.8,6.68,6.68,0,0,1-3,.6h-3.2V220.8h3.2a5.64,5.64,0,0,1,4.1,1.4,4.93,4.93,0,0,1,1.4,3.9A5,5,0,0,1,480.3,228.9Zm-1.6.5a4.87,4.87,0,0,0,0-6.4,4.51,4.51,0,0,0-3.4-1.1h-2.1v8.6h2.1A6.22,6.22,0,0,0,478.7,229.4Z" transform="translate(-2.7 -9.33)"/><path class="cls-10" d="M483.9,221.6v4H488v.8h-4.1v4h4.6v1h-5.6V220.8h5.6v.9h-4.6Z" transform="translate(-2.7 -9.33)"/><path class="cls-11" d="M502.3,179.5H416.8a15.09,15.09,0,0,1-15.1-15.1h0a15.13,15.13,0,0,1,15.1-15h85.4a15.09,15.09,0,0,1,15.1,15.1h0A14.92,14.92,0,0,1,502.3,179.5Z" transform="translate(-2.7 -9.33)"/><path class="cls-12" d="M500.8,181.7H415.4a15.09,15.09,0,0,1-15.1-15.1h0a15.09,15.09,0,0,1,15.1-15.1h85.4a15.09,15.09,0,0,1,15.1,15.1h0A15.15,15.15,0,0,1,500.8,181.7Z" transform="translate(-2.7 -9.33)"/><path class="cls-8" d="M423.5,167v3.7h-2.6V160.1h4.2a4.2,4.2,0,0,1,2.9.9,3.17,3.17,0,0,1,1,2.5,3.66,3.66,0,0,1-.4,1.8,3,3,0,0,1-1.3,1.2,4.64,4.64,0,0,1-2.1.4h-1.7Zm2.9-3.5c0-.9-.5-1.4-1.5-1.4h-1.3v2.8h1.3C425.8,164.9,426.4,164.5,426.4,163.5Z" transform="translate(-2.7 -9.33)"/><path class="cls-8" d="M432.8,160.2v10.6h-2.6V160.2Z" transform="translate(-2.7 -9.33)"/><path class="cls-8" d="M437.1,167v3.7h-2.6V160.1h4.2a4.2,4.2,0,0,1,2.9.9,3.17,3.17,0,0,1,1,2.5,3.66,3.66,0,0,1-.4,1.8,3,3,0,0,1-1.3,1.2,4.64,4.64,0,0,1-2.1.4h-1.7Zm2.9-3.5c0-.9-.5-1.4-1.5-1.4h-1.3v2.8h1.3C439.5,164.9,440,164.5,440,163.5Z" transform="translate(-2.7 -9.33)"/><path class="cls-8" d="M446.4,162.2v2.2H450v1.9h-3.6v2.4h4v2.1h-6.6V160.2h6.6v2Z" transform="translate(-2.7 -9.33)"/><path class="cls-8" d="M454.5,168.7h3.4v2h-6V160.1h2.6Z" transform="translate(-2.7 -9.33)"/><path class="cls-8" d="M461.6,160.2v10.6H459V160.2Z" transform="translate(-2.7 -9.33)"/><path class="cls-8" d="M472.8,170.7h-2.6l-4.3-6.5v6.5h-2.6V160.1h2.6l4.3,6.6v-6.6h2.6Z" transform="translate(-2.7 -9.33)"/><path class="cls-8" d="M477.2,162.2v2.2h3.6v1.9h-3.6v2.4h4v2.1h-6.6V160.2h6.6v2Z" transform="translate(-2.7 -9.33)"/><path class="cls-8" d="M490,163.2c0-.8-.4-1.2-1.1-1.2a1,1,0,0,0-.9.4,2.27,2.27,0,0,0-.3,1.3h-2.5a4.11,4.11,0,0,1,1.2-2.9,4.06,4.06,0,0,1,2.7-1,3.57,3.57,0,0,1,2.6.9,3,3,0,0,1,.9,2.3,4.8,4.8,0,0,1-1.2,3,11.17,11.17,0,0,1-2.8,2.5h4.2v2.1h-7.6v-1.9C488.4,166.4,490,164.7,490,163.2Z" transform="translate(-2.7 -9.33)"/><polygon class="cls-13" points="488.9 429.47 489.5 432.97 461.8 432.97 462.4 429.47 488.9 429.47"/><polygon class="cls-13" points="494 390.97 491.4 395.57 459.8 395.57 456.9 391.37 494 390.97"/><polygon class="cls-14" points="491.4 395.57 488.9 429.47 462.4 429.47 459.8 395.57 491.4 395.57"/><path class="cls-13" d="M493.8,409.9l.1-.8-1.3,1.1-4.1-3.4,2.3-1.9h-1l-1.8,1.5-1.8-1.5H485l2.4,2-4,3.3-4-3.4,2.4-2h-1l-1.8,1.5-1.8-1.5h-1l2.4,2-4,3.4-4-3.3,2.4-2h-1.1l-1.8,1.5-1.8-1.5h-1l2.3,1.9-4.1,3.4-2.2-1.9-.1.2v.4l1.9,1.6-1.7,1.4.1.9,2.1-1.8,4,3.3-4.1,3.4-1.8-1.5.1.8,1.3,1.1-1.1,1,.1.8,1.6-1.3,4,3.4-4.1,3.4-1.2-1,.1.7.7.6-.6.5.1.8,1.1-.9,4.1,3.4-4.2,3.5-.6-.5v.6l.1.1-.1.1.1.7.5-.4,4.1,3.4-2.1,1.8h.8l1.7-1.4,1.7,1.4h.7l-2.1-1.7,4.2-3.5,4.1,3.4-2.1,1.8h.8l1.7-1.4,1.7,1.4h.8l-2.1-1.8,4.1-3.4,4.2,3.5-2.1,1.7h.7l1.7-1.4,1.7,1.4h.8l-2.1-1.8,3.6-3v-.6l-4,3.4-4.2-3.5,4.1-3.4,4.1,3.4.1-.7-3.7-3.1,4.1-3.4.1.1.1-.9-.1.1-4.1-3.4,4-3.4.7.5.1-.8-.2-.2.2-.2.1-.8-.7.6-4.1-3.4,4-3.3,1.2,1,.1-.9-.7-.6Zm-6.4,4.5-4,3.4-4.1-3.4,4-3.4Zm-9,7.6-4.1,3.4-4.1-3.4,4.1-3.4Zm-3.7-3.8,4.1-3.4,4.1,3.4-4.1,3.4Zm4.1,4.1,4.1,3.4-4.1,3.4-4.1-3.4Zm.5-.3,4.1-3.4,4.1,3.4-4.1,3.4Zm-.5-14.7,4,3.4-4,3.4-4-3.4Zm-4.5,3.8,4,3.4-4.1,3.4-4-3.4Zm-8.6-.4,4.1-3.4,4,3.3-4.1,3.4Zm-.1,7.5,4.1-3.4,4,3.4-4.1,3.4Zm0,7.6,4.1-3.4,4.1,3.4-4.1,3.4Zm4.1,10.9-4.1-3.4,4.2-3.5,4.1,3.4Zm4.6-3.7-4.1-3.4,4.1-3.4,4.1,3.4Zm4.5,3.7-4.1-3.4,4.1-3.4,4.1,3.4Zm4.6-3.7-4.1-3.4,4.1-3.4,4.1,3.4Zm8.6-7.2-4.1,3.4-4.1-3.4,4.1-3.4Zm0-7.6-4,3.4-4.1-3.4,4-3.4Zm-4.1-4.2-4.1-3.4,4-3.3,4.1,3.4Z" transform="translate(-2.7 -9.33)"/><polygon class="cls-15" points="456.9 391.37 457.9 392.87 480.7 392.87 479 429.47 479.5 432.97 487.6 432.97 486.9 429.47 489.5 395.57 490.3 392.77 493.2 392.37 494 390.97 456.9 391.37"/><path class="cls-6" d="M468.9,102.9H358.7a10,10,0,0,1-10-10V53.2a10,10,0,0,1,10-10H468.9a10,10,0,0,1,10,10V92.8A10.05,10.05,0,0,1,468.9,102.9Z" transform="translate(-2.7 -9.33)"/><path class="cls-16" d="M381.7,80.5H365.5a6.7,6.7,0,0,1-6.7-6.7V57.6a6.7,6.7,0,0,1,6.7-6.7h16.2a6.7,6.7,0,0,1,6.7,6.7V73.8A6.7,6.7,0,0,1,381.7,80.5Z" transform="translate(-2.7 -9.33)"/><path class="cls-8" d="M381.1,63.2l-8.4,8.4a1.69,1.69,0,0,1-2.3,0l-4.3-4.3a1.63,1.63,0,0,1,2.3-2.3l3.2,3.2,7.3-7.3a1.69,1.69,0,0,1,2.3,0A1.81,1.81,0,0,1,381.1,63.2Z" transform="translate(-2.7 -9.33)"/><path class="cls-7" d="M422.2,80.5H406a6.7,6.7,0,0,1-6.7-6.7V57.6a6.7,6.7,0,0,1,6.7-6.7h16.2a6.7,6.7,0,0,1,6.7,6.7V73.8A6.7,6.7,0,0,1,422.2,80.5Z" transform="translate(-2.7 -9.33)"/><path class="cls-8" d="M421.6,63.2l-8.4,8.4a1.69,1.69,0,0,1-2.3,0l-4.3-4.3a1.63,1.63,0,0,1,2.3-2.3l3.2,3.2,7.3-7.3a1.69,1.69,0,0,1,2.3,0A1.81,1.81,0,0,1,421.6,63.2Z" transform="translate(-2.7 -9.33)"/><path class="cls-10" d="M386.4,86.2V96.8h-1.1V86.2Z" transform="translate(-2.7 -9.33)"/><path class="cls-10" d="M396.5,96.8h-1.1L389.6,88v8.8h-1.1V86.2h1.1l5.8,8.9V86.2h1.1Z" transform="translate(-2.7 -9.33)"/><path class="cls-10" d="M406.6,87.1a5.77,5.77,0,0,1,1.8,2.5h-1.1a3.19,3.19,0,0,0-1.4-1.8,3.79,3.79,0,0,0-2.4-.7,4.55,4.55,0,0,0-2,.5,4,4,0,0,0-1.4,1.5,5.93,5.93,0,0,0-.5,2.3,5.56,5.56,0,0,0,.5,2.3,3.39,3.39,0,0,0,1.4,1.5,3.51,3.51,0,0,0,2,.5,3.61,3.61,0,0,0,2.4-.7,4.89,4.89,0,0,0,1.4-1.8h1.1a4.21,4.21,0,0,1-1.8,2.5,5.17,5.17,0,0,1-3.1.9,4.62,4.62,0,0,1-2.6-.7,5.46,5.46,0,0,1-1.8-1.9,6.83,6.83,0,0,1,0-5.6,4.14,4.14,0,0,1,1.8-1.9,4.62,4.62,0,0,1,2.6-.7A7.28,7.28,0,0,1,406.6,87.1Z" transform="translate(-2.7 -9.33)"/><path class="cls-10" d="M411.4,96h3.8v.8h-4.9V86.2h1.1V96Z" transform="translate(-2.7 -9.33)"/><path class="cls-10" d="M417.6,86.2v6.4a3.56,3.56,0,0,0,.7,2.5,2.79,2.79,0,0,0,2,.8,2.63,2.63,0,0,0,2-.8,3.56,3.56,0,0,0,.7-2.5V86.2h1.1v6.4a4.4,4.4,0,0,1-1,3.2,4.11,4.11,0,0,1-5.6,0,4.4,4.4,0,0,1-1-3.2V86.2Z" transform="translate(-2.7 -9.33)"/><path class="cls-10" d="M434.5,94.3a4.14,4.14,0,0,1-1.9,1.8,6.68,6.68,0,0,1-3,.6h-3.2V86.1h3.2a5.64,5.64,0,0,1,4.1,1.4,4.93,4.93,0,0,1,1.4,3.9A4.34,4.34,0,0,1,434.5,94.3Zm-1.5.4a4.87,4.87,0,0,0,0-6.4,4.51,4.51,0,0,0-3.4-1.1h-2.1v8.7h2.1A4.7,4.7,0,0,0,433,94.7Z" transform="translate(-2.7 -9.33)"/><path class="cls-10" d="M438.2,87.1v4h4.1v.8h-4.1v4h4.6v.9h-5.6V86.2h5.6v.9Z" transform="translate(-2.7 -9.33)"/><path class="cls-11" d="M456.5,45H371.1A15.09,15.09,0,0,1,356,29.9h0a15.09,15.09,0,0,1,15.1-15.1h85.4a15.09,15.09,0,0,1,15.1,15.1h0A15.15,15.15,0,0,1,456.5,45Z" transform="translate(-2.7 -9.33)"/><path class="cls-12" d="M455.1,47H369.7a15.09,15.09,0,0,1-15.1-15.1h0a15.09,15.09,0,0,1,15.1-15.1h85.4a15.09,15.09,0,0,1,15.1,15.1h0A15.15,15.15,0,0,1,455.1,47Z" transform="translate(-2.7 -9.33)"/><path class="cls-8" d="M377.7,32.4v3.7h-2.5V25.5h4.2a4.2,4.2,0,0,1,2.9.9,3.17,3.17,0,0,1,1,2.5,3.66,3.66,0,0,1-.4,1.8,2.54,2.54,0,0,1-1.3,1.2,4.64,4.64,0,0,1-2.1.4l-1.8.1Zm2.9-3.4c0-.9-.5-1.4-1.5-1.4h-1.3v2.8h1.3C380.1,30.4,380.6,29.9,380.6,29Z" transform="translate(-2.7 -9.33)"/><path class="cls-8" d="M387,25.5V36.1h-2.6V25.5Z" transform="translate(-2.7 -9.33)"/><path class="cls-8" d="M391.3,32.4v3.7h-2.6V25.5h4.2a4.2,4.2,0,0,1,2.9.9,3.17,3.17,0,0,1,1,2.5,3.66,3.66,0,0,1-.4,1.8,2.54,2.54,0,0,1-1.3,1.2,4.64,4.64,0,0,1-2.1.4l-1.7.1Zm2.9-3.4c0-.9-.5-1.4-1.5-1.4h-1.3v2.8h1.3C393.7,30.4,394.2,29.9,394.2,29Z" transform="translate(-2.7 -9.33)"/><path class="cls-8" d="M400.6,27.6v2.2h3.6v1.9h-3.6v2.4h4v2.1H398V25.5h6.6v2l-4,.1Z" transform="translate(-2.7 -9.33)"/><path class="cls-8" d="M408.7,34.2h3.4v2h-6V25.5h2.6Z" transform="translate(-2.7 -9.33)"/><path class="cls-8" d="M415.9,25.5V36.1h-2.6V25.5Z" transform="translate(-2.7 -9.33)"/><path class="cls-8" d="M427,36.1h-2.6l-4.2-6.5v6.5h-2.6V25.5h2.6l4.3,6.6V25.5h2.6V36.1Z" transform="translate(-2.7 -9.33)"/><path class="cls-8" d="M431.4,27.6v2.2H435v1.9h-3.6v2.4h4v2.1h-6.6V25.5h6.6v2l-4,.1Z" transform="translate(-2.7 -9.33)"/><path class="cls-8" d="M439.2,27.9V25.5h4.3V36.1h-2.7V27.9Z" transform="translate(-2.7 -9.33)"/><path class="cls-6" d="M658,173.5H547.8a10,10,0,0,1-10-10V123.8a10,10,0,0,1,10-10H658a10,10,0,0,1,10,10v39.7A10,10,0,0,1,658,173.5Z" transform="translate(-2.7 -9.33)"/><path class="cls-16" d="M572.2,152.4H556a6.7,6.7,0,0,1-6.7-6.7V129.5a6.7,6.7,0,0,1,6.7-6.7h16.2a6.7,6.7,0,0,1,6.7,6.7v16.2A6.7,6.7,0,0,1,572.2,152.4Z" transform="translate(-2.7 -9.33)"/><path class="cls-8" d="M571.6,135.1l-8.4,8.4a1.69,1.69,0,0,1-2.3,0l-4.3-4.3a1.63,1.63,0,0,1,2.3-2.3l3.2,3.2,7.3-7.3a1.69,1.69,0,0,1,2.3,0A1.81,1.81,0,0,1,571.6,135.1Z" transform="translate(-2.7 -9.33)"/><path class="cls-9" d="M612.7,152.4H596.5a6.7,6.7,0,0,1-6.7-6.7V129.5a6.7,6.7,0,0,1,6.7-6.7h16.2a6.7,6.7,0,0,1,6.7,6.7v16.2A6.7,6.7,0,0,1,612.7,152.4Z" transform="translate(-2.7 -9.33)"/><path class="cls-8" d="M612.1,135.1l-8.4,8.4a1.69,1.69,0,0,1-2.3,0l-4.3-4.3a1.63,1.63,0,0,1,2.3-2.3l3.2,3.2,7.3-7.3a1.69,1.69,0,0,1,2.3,0A1.81,1.81,0,0,1,612.1,135.1Z" transform="translate(-2.7 -9.33)"/><path class="cls-10" d="M576.9,158.9v10.6h-1.1V158.9Z" transform="translate(-2.7 -9.33)"/><path class="cls-10" d="M587.1,169.5H586l-5.8-8.8v8.8h-1.1V158.9h1.1l5.8,8.9v-8.9h1.1Z" transform="translate(-2.7 -9.33)"/><path class="cls-10" d="M597.2,159.7a5.77,5.77,0,0,1,1.8,2.5h-1.1a3.19,3.19,0,0,0-1.4-1.8,3.79,3.79,0,0,0-2.4-.7,4.55,4.55,0,0,0-2,.5,4,4,0,0,0-1.4,1.5,5.93,5.93,0,0,0-.5,2.3,5.56,5.56,0,0,0,.5,2.3,3.39,3.39,0,0,0,1.4,1.5,3.51,3.51,0,0,0,2,.5,3.61,3.61,0,0,0,2.4-.7,4.89,4.89,0,0,0,1.4-1.8H599a4.21,4.21,0,0,1-1.8,2.5,5.17,5.17,0,0,1-3.1.9,4.62,4.62,0,0,1-2.6-.7,5.46,5.46,0,0,1-1.8-1.9,6.83,6.83,0,0,1,0-5.6,4.14,4.14,0,0,1,1.8-1.9,4.62,4.62,0,0,1,2.6-.7A11.12,11.12,0,0,1,597.2,159.7Z" transform="translate(-2.7 -9.33)"/><path class="cls-10" d="M602,168.7h3.8v.8h-4.9V158.9H602v9.8Z" transform="translate(-2.7 -9.33)"/><path class="cls-10" d="M608.2,158.9v6.4a3.56,3.56,0,0,0,.7,2.5,2.79,2.79,0,0,0,2,.8,2.63,2.63,0,0,0,2-.8,3.56,3.56,0,0,0,.7-2.5v-6.4h1.1v6.4a4.4,4.4,0,0,1-1,3.2,4.11,4.11,0,0,1-5.6,0,4.4,4.4,0,0,1-1-3.2v-6.4Z" transform="translate(-2.7 -9.33)"/><path class="cls-10" d="M625.1,167a4.14,4.14,0,0,1-1.9,1.8,6.68,6.68,0,0,1-3,.6H617V158.8h3.2a5.64,5.64,0,0,1,4.1,1.4,4.93,4.93,0,0,1,1.4,3.9A4.48,4.48,0,0,1,625.1,167Zm-1.6.4a4.87,4.87,0,0,0,0-6.4,4.51,4.51,0,0,0-3.4-1.1H618v8.7h2.1A4.4,4.4,0,0,0,623.5,167.4Z" transform="translate(-2.7 -9.33)"/><path class="cls-10" d="M628.8,159.8v4h4.1v.8h-4.1v4h4.6v.9h-5.6V158.9h5.6v.9Z" transform="translate(-2.7 -9.33)"/><path class="cls-11" d="M647.1,117.7H561.7a15.09,15.09,0,0,1-15.1-15.1h0a15.09,15.09,0,0,1,15.1-15.1h85.4a15.09,15.09,0,0,1,15.1,15.1h0A15.15,15.15,0,0,1,647.1,117.7Z" transform="translate(-2.7 -9.33)"/><path class="cls-12" d="M645.6,119.7H560.2a15.09,15.09,0,0,1-15.1-15.1h0a15.09,15.09,0,0,1,15.1-15.1h85.4a15.09,15.09,0,0,1,15.1,15.1h0A15,15,0,0,1,645.6,119.7Z" transform="translate(-2.7 -9.33)"/><path class="cls-8" d="M568.3,105.1v3.7h-2.6V98.2h4.2a4.2,4.2,0,0,1,2.9.9,3.17,3.17,0,0,1,1,2.5,3.66,3.66,0,0,1-.4,1.8,2.54,2.54,0,0,1-1.3,1.2,4.64,4.64,0,0,1-2.1.4h-1.7v.1Zm2.9-3.4c0-.9-.5-1.4-1.5-1.4h-1.3v2.8h1.3C570.6,103,571.2,102.6,571.2,101.7Z" transform="translate(-2.7 -9.33)"/><path class="cls-8" d="M577.6,98.2v10.6H575V98.2Z" transform="translate(-2.7 -9.33)"/><path class="cls-8" d="M581.9,105.1v3.7h-2.6V98.2h4.2a4.2,4.2,0,0,1,2.9.9,3.17,3.17,0,0,1,1,2.5,3.66,3.66,0,0,1-.4,1.8,2.54,2.54,0,0,1-1.3,1.2,4.64,4.64,0,0,1-2.1.4h-1.7v.1Zm2.9-3.4c0-.9-.5-1.4-1.5-1.4H582v2.8h1.3C584.3,103,584.8,102.6,584.8,101.7Z" transform="translate(-2.7 -9.33)"/><path class="cls-8" d="M591.2,100.3v2.2h3.6v1.9h-3.6v2.4h4v2.1h-6.6V98.3h6.6v2Z" transform="translate(-2.7 -9.33)"/><path class="cls-8" d="M599.3,106.9h3.4v2h-6V98.3h2.6Z" transform="translate(-2.7 -9.33)"/><path class="cls-8" d="M606.4,98.2v10.6h-2.6V98.2Z" transform="translate(-2.7 -9.33)"/><path class="cls-8" d="M617.6,108.8H615l-4.3-6.5v6.5h-2.6V98.2h2.6l4.3,6.6V98.2h2.6Z" transform="translate(-2.7 -9.33)"/><path class="cls-8" d="M622,100.3v2.2h3.6v1.9H622v2.4h4v2.1h-6.6V98.3H626v2Z" transform="translate(-2.7 -9.33)"/><path class="cls-8" d="M636,98.1a4,4,0,0,1,1.2,1,2.41,2.41,0,0,1,.4,1.5,3.1,3.1,0,0,1-.5,1.7,1.83,1.83,0,0,1-1.3.8v.1a2.56,2.56,0,0,1,2.1,2.6,2.73,2.73,0,0,1-.4,1.6,3.18,3.18,0,0,1-1.2,1.1,3.81,3.81,0,0,1-1.9.4,4.37,4.37,0,0,1-2.9-.9,3.8,3.8,0,0,1-1.2-2.7h2.5a1.37,1.37,0,0,0,.4,1.1,1.25,1.25,0,0,0,1.1.4,1.06,1.06,0,0,0,1.2-1.2c0-.9-.6-1.3-1.9-1.3h-.5v-2.1h.5c1.1,0,1.7-.4,1.7-1.2a1,1,0,0,0-.3-.8,1.14,1.14,0,0,0-.8-.3,1.09,1.09,0,0,0-.9.4,2.32,2.32,0,0,0-.4,1h-2.5a3.62,3.62,0,0,1,1-2.6,5,5,0,0,1,4.6-.6Z" transform="translate(-2.7 -9.33)"/><path class="cls-8" d="M217.3,75.3a49.09,49.09,0,0,0-5.3.4A59.35,59.35,0,0,0,106,56.8a37.77,37.77,0,0,0-4.6-.2,46.8,46.8,0,0,0,0,93.6H217.2a37.45,37.45,0,0,0,.1-74.9Z" transform="translate(-2.7 -9.33)"/><path class="cls-9" d="M190.9,97.6H171.4a5.48,5.48,0,0,1-5.5-5.5V72.5a5.48,5.48,0,0,1,5.5-5.5h19.5a5.48,5.48,0,0,1,5.5,5.5V92A5.44,5.44,0,0,1,190.9,97.6Z" transform="translate(-2.7 -9.33)"/><path class="cls-8" d="M188.9,79.6l-8.7,8.7a1.52,1.52,0,0,1-2.3,0l-4.5-4.5a1.63,1.63,0,0,1,2.3-2.3l3.3,3.3,7.5-7.5a1.52,1.52,0,0,1,2.3,0A1.46,1.46,0,0,1,188.9,79.6Z" transform="translate(-2.7 -9.33)"/><path class="cls-7" d="M135.9,91.3H116.4a5.48,5.48,0,0,1-5.5-5.5V66.3a5.48,5.48,0,0,1,5.5-5.5h19.5a5.48,5.48,0,0,1,5.5,5.5V85.8A5.42,5.42,0,0,1,135.9,91.3Z" transform="translate(-2.7 -9.33)"/><path class="cls-8" d="M134,73.4l-8.7,8.7a1.52,1.52,0,0,1-2.3,0l-4.5-4.5a1.63,1.63,0,0,1,2.3-2.3l3.3,3.3,7.5-7.5a1.52,1.52,0,0,1,2.3,0A1.82,1.82,0,0,1,134,73.4Z" transform="translate(-2.7 -9.33)"/><path class="cls-16" d="M99.8,130.5H80.3a5.48,5.48,0,0,1-5.5-5.5V105.5a5.48,5.48,0,0,1,5.5-5.5H99.8a5.48,5.48,0,0,1,5.5,5.5V125A5.55,5.55,0,0,1,99.8,130.5Z" transform="translate(-2.7 -9.33)"/><path class="cls-8" d="M97.7,112.6,89,121.3a1.52,1.52,0,0,1-2.3,0l-4.5-4.5a1.52,1.52,0,0,1,0-2.3,1.6,1.6,0,0,1,2.3,0l3.3,3.3,7.5-7.5a1.52,1.52,0,0,1,2.3,0A1.6,1.6,0,0,1,97.7,112.6Z" transform="translate(-2.7 -9.33)"/><path class="cls-17" d="M167.2,143H147.7a5.48,5.48,0,0,1-5.5-5.5V118a5.48,5.48,0,0,1,5.5-5.5h19.5a5.48,5.48,0,0,1,5.5,5.5v19.4A5.57,5.57,0,0,1,167.2,143Z" transform="translate(-2.7 -9.33)"/><path class="cls-8" d="M165.2,125l-8.7,8.7a1.52,1.52,0,0,1-2.3,0l-4.5-4.5a1.63,1.63,0,0,1,2.3-2.3l3.3,3.3,7.5-7.5a1.52,1.52,0,0,1,2.3,0A1.6,1.6,0,0,1,165.2,125Z" transform="translate(-2.7 -9.33)"/><path class="cls-18" d="M234.1,125.1H214.6a5.48,5.48,0,0,1-5.5-5.5V100.1a5.48,5.48,0,0,1,5.5-5.5h19.5a5.48,5.48,0,0,1,5.5,5.5v19.5A5.3,5.3,0,0,1,234.1,125.1Z" transform="translate(-2.7 -9.33)"/><path class="cls-8" d="M232.2,107.2l-8.7,8.7a1.52,1.52,0,0,1-2.3,0l-4.5-4.5a1.63,1.63,0,0,1,2.3-2.3l3.3,3.3,7.5-7.5a1.52,1.52,0,0,1,2.3,0A1.6,1.6,0,0,1,232.2,107.2Z" transform="translate(-2.7 -9.33)"/><path class="cls-17" d="M461.6,80.5H445.4a6.7,6.7,0,0,1-6.7-6.7V57.6a6.7,6.7,0,0,1,6.7-6.7h16.2a6.7,6.7,0,0,1,6.7,6.7V73.8A6.64,6.64,0,0,1,461.6,80.5Z" transform="translate(-2.7 -9.33)"/><path class="cls-8" d="M461,63.2l-8.4,8.4a1.69,1.69,0,0,1-2.3,0L446,67.3a1.63,1.63,0,1,1,2.3-2.3l3.2,3.2,7.3-7.3a1.69,1.69,0,0,1,2.3,0A1.81,1.81,0,0,1,461,63.2Z" transform="translate(-2.7 -9.33)"/><path class="cls-18" d="M652.5,152.7H636.3a6.7,6.7,0,0,1-6.7-6.7V129.8a6.7,6.7,0,0,1,6.7-6.7h16.2a6.7,6.7,0,0,1,6.7,6.7V146A6.64,6.64,0,0,1,652.5,152.7Z" transform="translate(-2.7 -9.33)"/><path class="cls-8" d="M651.9,135.3l-8.4,8.4a1.69,1.69,0,0,1-2.3,0l-4.3-4.3a1.63,1.63,0,1,1,2.3-2.3l3.2,3.2,7.3-7.3a1.69,1.69,0,0,1,2.3,0A1.81,1.81,0,0,1,651.9,135.3Z" transform="translate(-2.7 -9.33)"/><line class="cls-19" x1="224.4" y1="71.17" x2="346" y2="63.77"/><line class="cls-19" x1="247.4" y1="103.47" x2="535.1" y2="134.77"/><line class="cls-19" x1="234.8" y1="134.77" x2="390.4" y2="194.17"/></g><path class="cls-20" d="M264.7,279.8a19.47,19.47,0,0,1-2.7-8.4H245.7a18,18,0,0,1-2.7,8.4c-2.4,3.6-7.6,5.8-7.6,5.8h36.7C272.2,285.6,267.1,283.4,264.7,279.8Z" transform="translate(-2.7 -9.33)"/><path class="cls-20" d="M334.2,268.8a5.34,5.34,0,0,1-5.3,5.3H178.3a5.34,5.34,0,0,1-5.3-5.3V169.6a5.34,5.34,0,0,1,5.3-5.3H328.9a5.34,5.34,0,0,1,5.3,5.3Z" transform="translate(-2.7 -9.33)"/><path class="cls-21" d="M173,258.9v9.9a5.34,5.34,0,0,0,5.3,5.3H328.9a5.34,5.34,0,0,0,5.3-5.3v-9.9Z" transform="translate(-2.7 -9.33)"/><path class="cls-22" d="M324.5,253.3H182.3a3.37,3.37,0,0,1-3.4-3.4V173.1a3.37,3.37,0,0,1,3.4-3.4H324.5a3.37,3.37,0,0,1,3.4,3.4v76.8A3.37,3.37,0,0,1,324.5,253.3Z" transform="translate(-2.7 -9.33)"/><path class="cls-23" d="M323.5,178.1a2.26,2.26,0,0,0-2.3-2.3H186.9a2.26,2.26,0,0,0-2.3,2.3v6.6h139l-.1-6.6Z" transform="translate(-2.7 -9.33)"/><path class="cls-8" d="M184.5,184.7v60.2a2.26,2.26,0,0,0,2.3,2.3H321.1a2.26,2.26,0,0,0,2.3-2.3V184.7Z" transform="translate(-2.7 -9.33)"/><path class="cls-22" d="M333.8,176.7a2.09,2.09,0,0,1,.4.6v-1.1A1,1,0,0,1,333.8,176.7Z" transform="translate(-2.7 -9.33)"/><path class="cls-22" d="M254.2,270.3h-.8a3.9,3.9,0,0,1-3.9-3.9v-.8a3.9,3.9,0,0,1,3.9-3.9h.8a3.9,3.9,0,0,1,3.9,3.9v.8A4,4,0,0,1,254.2,270.3Z" transform="translate(-2.7 -9.33)"/><rect class="cls-23" x="223.2" y="193.17" width="56.1" height="1"/><rect class="cls-23" x="195.1" y="182.77" width="112.6" height="2.3"/><rect class="cls-23" x="223" y="196.37" width="56.3" height="1"/><rect class="cls-23" x="223" y="190.07" width="56.3" height="1"/><rect class="cls-23" x="223" y="199.57" width="56.3" height="1"/><rect class="cls-23" x="223" y="202.77" width="56.3" height="1"/><rect class="cls-23" x="223" y="205.87" width="56.3" height="1"/><rect class="cls-23" x="223" y="209.07" width="56.3" height="1"/><rect class="cls-23" x="223" y="212.27" width="56.3" height="1"/><rect class="cls-23" x="223" y="215.37" width="30.4" height="1"/><path class="cls-22" d="M306.4,180.3a1.69,1.69,0,0,1-1.7,1.7,1.63,1.63,0,0,1-1.7-1.7,1.7,1.7,0,1,1,3.4,0Z" transform="translate(-2.7 -9.33)"/><path class="cls-22" d="M313.1,180.3a1.7,1.7,0,1,1-1.7-1.7A1.83,1.83,0,0,1,313.1,180.3Z" transform="translate(-2.7 -9.33)"/><path class="cls-22" d="M319.8,180.3a1.7,1.7,0,1,1-1.7-1.7A1.75,1.75,0,0,1,319.8,180.3Z" transform="translate(-2.7 -9.33)"/><path class="cls-23" d="M220.1,242.3H201a3.22,3.22,0,0,1-3.2-3.2V202.5a3.22,3.22,0,0,1,3.2-3.2h19.2a3.22,3.22,0,0,1,3.2,3.2v36.6A3.31,3.31,0,0,1,220.1,242.3Z" transform="translate(-2.7 -9.33)"/><path class="cls-23" d="M307,242.3H287.8a3.22,3.22,0,0,1-3.2-3.2V202.5a3.22,3.22,0,0,1,3.2-3.2H307a3.22,3.22,0,0,1,3.2,3.2v36.6A3.29,3.29,0,0,1,307,242.3Z" transform="translate(-2.7 -9.33)"/><g id="Desk"><polygon class="cls-1" points="527.2 433.07 510.6 286.97 496.6 291.97 519.5 433.07 527.2 433.07"/><rect class="cls-5" x="111.5" y="275.27" width="422.7" height="18.5"/><path class="cls-1" d="M447.4,284.9a.31.31,0,0,0,.1.2,5.92,5.92,0,0,1,.4.6,8,8,0,0,0,2.1,1.7,12.25,12.25,0,0,0,4.1,1.4,33.85,33.85,0,0,0,5.7.3,63.75,63.75,0,0,0,6.9-.8,59.75,59.75,0,0,1,7.8-.9c5.5-.2,11.6,1.3,17.6,3.4s11.7,4.6,17.1,6.1a38.21,38.21,0,0,0,7.8,1.5,31.77,31.77,0,0,0,6.9,0,24.63,24.63,0,0,0,9.5-3,13.56,13.56,0,0,0,2.9-2.2.31.31,0,0,0-.2.1c-.2.1-.3.3-.6.4a15.28,15.28,0,0,1-2.3,1.5,22.79,22.79,0,0,1-9.4,2.8,38.57,38.57,0,0,1-6.8,0,48.12,48.12,0,0,1-7.7-1.6c-5.3-1.5-11-4-17-6.1s-12.1-3.6-17.8-3.4a63.06,63.06,0,0,0-7.9,1,43.15,43.15,0,0,1-6.8.8,25,25,0,0,1-5.6-.2,10.46,10.46,0,0,1-4-1.3A10,10,0,0,1,447.4,284.9Z" transform="translate(-2.7 -9.33)"/><path class="cls-1" d="M493.6,285.2a15.41,15.41,0,0,0,1.3,1.1,26.78,26.78,0,0,0,3.9,2.5,31.52,31.52,0,0,0,6.3,2.6,35.16,35.16,0,0,0,8.2,1.3,31.59,31.59,0,0,0,14.7-3,10.26,10.26,0,0,0,3.6-2.9,6.4,6.4,0,0,0,.6-1.1,1.58,1.58,0,0,0,.1-.4,10.24,10.24,0,0,1-.9,1.4,8.4,8.4,0,0,1-3.6,2.7,31.9,31.9,0,0,1-14.6,2.8,39.41,39.41,0,0,1-8.1-1.2,49.23,49.23,0,0,1-6.3-2.4c-1.7-.9-3-1.7-3.9-2.3C494.1,285.5,493.6,285.1,493.6,285.2Z" transform="translate(-2.7 -9.33)"/><path class="cls-1" d="M394.4,296.9a3.13,3.13,0,0,1-.7.2,11.34,11.34,0,0,1-2,.5,11.21,11.21,0,0,1-7.4-1.2v.2a18.37,18.37,0,0,1,9.2-3.6,17.2,17.2,0,0,1,11.9,3.1c.4.3.9.7.9,1.2s-.3.9-.8,1.2a7.58,7.58,0,0,1-1.6.6c-.6.1-1.2.3-1.8.4-2.4.5-4.9,1.1-7.5,1.5a42.48,42.48,0,0,1-8,.5,28.45,28.45,0,0,1-4.1-.4,11.8,11.8,0,0,1-2-.4,15.19,15.19,0,0,1-2-.6,6.06,6.06,0,0,1-2.6-1.9,2.88,2.88,0,0,1-.5-2.8,4.73,4.73,0,0,1,2-2.2,14.65,14.65,0,0,1,2.8-1.4,38.15,38.15,0,0,1,11.7-2.4,48.67,48.67,0,0,1,20,3.1,49.84,49.84,0,0,1,12.1,6.6,33.36,33.36,0,0,1,2.9,2.4c.3.3.6.5.7.6a1.24,1.24,0,0,1,.3.2l-.2-.2-.7-.7a33.36,33.36,0,0,0-2.9-2.4,50.73,50.73,0,0,0-12.1-6.8,47.68,47.68,0,0,0-20.2-3.2,39.37,39.37,0,0,0-11.9,2.4,15.5,15.5,0,0,0-2.9,1.4,5.37,5.37,0,0,0-2.2,2.5,3.31,3.31,0,0,0,.6,3.3,6.29,6.29,0,0,0,2.8,2,17.23,17.23,0,0,0,2.1.7,15.52,15.52,0,0,0,2.1.4,29.84,29.84,0,0,0,4.2.4,42.92,42.92,0,0,0,8.1-.6q3.9-.6,7.5-1.5c.6-.1,1.2-.3,1.8-.4a6.36,6.36,0,0,0,1.8-.6,4.35,4.35,0,0,0,.7-.6,1.69,1.69,0,0,0,.3-1,2.49,2.49,0,0,0-1.1-1.5,18.24,18.24,0,0,0-12.2-3.1,17.57,17.57,0,0,0-9.3,3.7l-.2.1.2.1a11.6,11.6,0,0,0,7.6,1.1A9.05,9.05,0,0,0,394.4,296.9Z" transform="translate(-2.7 -9.33)"/><path class="cls-1" d="M340,285.4a4.11,4.11,0,0,0-.4.9,7.2,7.2,0,0,0-.3,2.8c.1,2.4,1.6,5.5,4.1,8.1a23,23,0,0,0,3.8,3.3,20.7,20.7,0,0,0,3.7,1.8,13.47,13.47,0,0,0,2.7.7,6.73,6.73,0,0,0,1,.1c0-.1-1.4-.3-3.6-1.1a15.81,15.81,0,0,1-3.6-1.9,18,18,0,0,1-3.7-3.2,13.61,13.61,0,0,1-4.1-7.7A10.4,10.4,0,0,1,340,285.4Z" transform="translate(-2.7 -9.33)"/><path class="cls-1" d="M264.1,302.1a13.24,13.24,0,0,1,1.9-1.9,13.54,13.54,0,0,1,6.6-3,14.12,14.12,0,0,1,5,.1,18.85,18.85,0,0,0,5.9.5c2.2-.2,4.1-1.5,5.9-2.9a19.47,19.47,0,0,1,19-3.7,30.35,30.35,0,0,1,9.7,4.9,45.6,45.6,0,0,1,5.6,4.8l1.4,1.4.5.5a2.22,2.22,0,0,0-.4-.5,16.68,16.68,0,0,0-1.4-1.5,42.05,42.05,0,0,0-5.5-5,31.08,31.08,0,0,0-9.8-5.1,21.23,21.23,0,0,0-13.4.2,20,20,0,0,0-6,3.6c-1.8,1.4-3.6,2.6-5.6,2.8a22,22,0,0,1-5.8-.5,15.23,15.23,0,0,0-5.2-.1,12.69,12.69,0,0,0-6.7,3.2A12.94,12.94,0,0,0,264.1,302.1Z" transform="translate(-2.7 -9.33)"/><path class="cls-1" d="M196.3,284.8a2.83,2.83,0,0,0,.5.6c.3.4.8,1,1.4,1.7a41.2,41.2,0,0,0,6.2,5.5,46.3,46.3,0,0,0,10.7,5.9,34.85,34.85,0,0,0,6.9,2.2,32.49,32.49,0,0,0,7.7,1,40.09,40.09,0,0,0,14.7-3,50.33,50.33,0,0,0,10.7-6,45.53,45.53,0,0,0,6.1-5.5,13.34,13.34,0,0,0,1.4-1.7,6.12,6.12,0,0,1,.5-.6,6.12,6.12,0,0,0-.5.6,19.27,19.27,0,0,1-1.5,1.6,48.32,48.32,0,0,1-6.2,5.4,52,52,0,0,1-10.6,5.9,39,39,0,0,1-14.5,3,31.65,31.65,0,0,1-7.6-1,36.08,36.08,0,0,1-6.8-2.2,50.38,50.38,0,0,1-10.7-5.8,42,42,0,0,1-6.2-5.3c-.7-.7-1.2-1.3-1.5-1.6Z" transform="translate(-2.7 -9.33)"/><path class="cls-1" d="M206,284.6a3,3,0,0,0,.4.3,7.17,7.17,0,0,0,1.1.7c1,.6,2.4,1.5,4.2,2.4a44.23,44.23,0,0,0,6.7,2.7,29.89,29.89,0,0,0,8.7,1.5,35.51,35.51,0,0,0,15.5-3.9,27.16,27.16,0,0,0,4.2-2.5c.5-.3.8-.6,1.1-.8s.4-.3.3-.3a15.59,15.59,0,0,0-1.5.9c-1,.6-2.4,1.4-4.2,2.3a37,37,0,0,1-15.3,3.7,32.92,32.92,0,0,1-8.6-1.4,49.55,49.55,0,0,1-6.7-2.6c-1.8-.9-3.3-1.7-4.3-2.2Z" transform="translate(-2.7 -9.33)"/><path class="cls-1" d="M163,286.5h.5c.4,0,.8-.1,1.4-.1a3.75,3.75,0,0,0,1-.1H170c.5,0,1.1.1,1.7.1s1.2.1,1.8.2c1.3.1,2.6.4,4,.6a66.41,66.41,0,0,1,8.8,2.6,58.3,58.3,0,0,1,8.3,4.1c1.2.8,2.4,1.5,3.4,2.2.5.4,1,.7,1.5,1.1a15,15,0,0,1,1.3,1.1,23.28,23.28,0,0,1,2.2,1.9,6.47,6.47,0,0,0,.9.8l.7.7,1,1a1.73,1.73,0,0,0,.4.3,3,3,0,0,1-.3-.4c-.2-.3-.5-.6-.9-1.1-.2-.2-.4-.5-.7-.8s-.6-.5-.9-.8a23,23,0,0,0-2.2-2,15,15,0,0,0-1.3-1.1c-.5-.4-1-.7-1.5-1.1-1-.8-2.2-1.5-3.4-2.3a53.13,53.13,0,0,0-17.2-6.7c-1.4-.2-2.7-.5-4-.6-.6-.1-1.2-.1-1.8-.2a9.15,9.15,0,0,1-1.7-.1,27.88,27.88,0,0,0-2.9,0,4.87,4.87,0,0,0-1.2.1c-.4,0-.7.1-1,.1-.5.1-1,.1-1.4.2Z" transform="translate(-2.7 -9.33)"/><path class="cls-1" d="M144.9,282.9v.3a4.14,4.14,0,0,0,.1,1,12.72,12.72,0,0,0,1,3.5,21.18,21.18,0,0,0,7.9,9.1,39.21,39.21,0,0,0,11.1,4.7c1.5.4,2.7.7,3.5.9s1.3.3,1.3.3a6.26,6.26,0,0,0-1.3-.4c-.9-.3-2.1-.6-3.5-1.1a44.33,44.33,0,0,1-10.9-4.8,21,21,0,0,1-7.8-8.8A19.31,19.31,0,0,1,144.9,282.9Z" transform="translate(-2.7 -9.33)"/><path class="cls-1" d="M256.5,301.7a21.4,21.4,0,0,1,2.3-2.8,22.62,22.62,0,0,1,8.5-4.8,53.8,53.8,0,0,1,6.6-1.5c2.4-.4,5-.7,7.8-1.2a54.3,54.3,0,0,0,8.4-2.1,53.76,53.76,0,0,1,9-2.2,37.14,37.14,0,0,1,17.5,2.4,58.33,58.33,0,0,1,7.1,3.2q3.3,1.65,6,3.3c3.6,2.1,6.5,3.8,8.5,5,1,.6,1.7,1.1,2.3,1.4.2.1.4.3.6.4a.31.31,0,0,0,.2.1l-.2-.2a6.13,6.13,0,0,1-.6-.4c-.5-.3-1.3-.9-2.2-1.5-2-1.3-4.8-3.1-8.5-5.2q-2.7-1.65-6-3.3c-2.2-1.1-4.6-2.3-7.2-3.3a38.21,38.21,0,0,0-17.8-2.5,52.6,52.6,0,0,0-9.1,2.2,57.28,57.28,0,0,1-8.4,2.1c-2.7.5-5.3.8-7.8,1.2a55.58,55.58,0,0,0-6.7,1.5,20.65,20.65,0,0,0-8.5,5A22.54,22.54,0,0,0,256.5,301.7Z" transform="translate(-2.7 -9.33)"/><path class="cls-1" d="M351.7,284.9a10.9,10.9,0,0,0,.1,1.2,12.83,12.83,0,0,0,.8,3.1,18.44,18.44,0,0,0,6.5,8.3,39,39,0,0,0,9.6,4.4c1.3.4,2.3.7,3.1.9s1.1.3,1.2.2a7,7,0,0,0-1.1-.4c-.8-.3-1.8-.7-3-1.1a55.67,55.67,0,0,1-9.5-4.5,18.24,18.24,0,0,1-6.4-8A21.61,21.61,0,0,1,351.7,284.9Z" transform="translate(-2.7 -9.33)"/><path class="cls-1" d="M449.9,303.1a7.21,7.21,0,0,0-1-1c-.7-.6-1.7-1.5-3-2.5a85.86,85.86,0,0,0-10.8-6.9c-4.4-2.4-8.5-4.3-11.5-5.7-1.5-.7-2.7-1.2-3.5-1.6a5.81,5.81,0,0,0-1.3-.5,8.6,8.6,0,0,0,1.2.7c.9.5,2.1,1,3.5,1.7,2.9,1.5,7,3.4,11.4,5.8a100.29,100.29,0,0,1,10.8,6.8c1.3,1,2.4,1.8,3.1,2.3A3.85,3.85,0,0,0,449.9,303.1Z" transform="translate(-2.7 -9.33)"/><path class="cls-1" d="M429.9,285.6c0,.1,1-.1,2.7,0a19.33,19.33,0,0,1,7.1,2.1,80.61,80.61,0,0,1,9.2,6.1,58.1,58.1,0,0,0,5.5,3.6,29,29,0,0,0,6.6,2.5,59.73,59.73,0,0,0,13.5,1.6c4.2.1,7.9,0,11.1.2a54.64,54.64,0,0,1,7.4.7c.9.2,1.5.3,2,.4a4.18,4.18,0,0,0,.7.1,3.13,3.13,0,0,0-.7-.2c-.4-.1-1.1-.3-2-.5a49.52,49.52,0,0,0-7.4-.9c-3.2-.2-6.9-.1-11.1-.3a71.84,71.84,0,0,1-13.4-1.6,28.25,28.25,0,0,1-6.5-2.5,57.74,57.74,0,0,1-5.5-3.5,63.69,63.69,0,0,0-9.3-6.1,19.23,19.23,0,0,0-7.2-2,10.36,10.36,0,0,0-2,.1A1.73,1.73,0,0,1,429.9,285.6Z" transform="translate(-2.7 -9.33)"/><path class="cls-1" d="M166.3,284.5c0,.1,17.7.3,39.5.3s39.5-.1,39.5-.3-17.7-.3-39.5-.3S166.3,284.4,166.3,284.5Z" transform="translate(-2.7 -9.33)"/><path class="cls-20" d="M530.7,276.4h0l-.1-.3H475.3c-.9,0-1.6,2.1-1.6,4.6s.7,4.6,1.6,4.6h55.4c.9,0,1.6-2,1.6-4.5S531.6,276.4,530.7,276.4Z" transform="translate(-2.7 -9.33)"/><path class="cls-21" d="M528.3,277.7H517.7a6.72,6.72,0,0,1,.7,3.6,7.53,7.53,0,0,1-.6,3.6h10.6c.5,0,1-1.6,1-3.6S528.8,277.7,528.3,277.7Z" transform="translate(-2.7 -9.33)"/><path class="cls-21" d="M477.4,281.1a9.37,9.37,0,0,1,.7-3.7h-2c-.5,0-1,1.6-1,3.6s.4,3.6,1,3.6H478A9.15,9.15,0,0,1,477.4,281.1Z" transform="translate(-2.7 -9.33)"/><path class="cls-24" d="M525.6,268.2H481.5c-.7,0-1.2,1.7-1.2,4s.6,4,1.2,4h43.9v.2h.2c.7,0,1.2-1.9,1.2-4.2S526.3,268.2,525.6,268.2Z" transform="translate(-2.7 -9.33)"/><path class="cls-24" d="M525.6,268.2H481.5c-.7,0-1.2,1.8-1.2,3.9h46.5C526.9,269.9,526.3,268.2,525.6,268.2Z" transform="translate(-2.7 -9.33)"/><path class="cls-25" d="M482.9,272.3a7,7,0,0,1,.8-3.5h-.9c-.5,0-1,1.6-1,3.6s.4,3.6,1,3.6h.9A7.26,7.26,0,0,1,482.9,272.3Z" transform="translate(-2.7 -9.33)"/><rect class="cls-8" x="499.3" y="261.17" width="22" height="1.8"/><path class="cls-26" d="M518.4,259.9h0v.2H485.6v-.2c-.9,0-1,1.8-1,4.1s.1,4,1,4.1v.1h32.8v-.1h0c.6,0,1-1.8,1-4.1S519,259.9,518.4,259.9Z" transform="translate(-2.7 -9.33)"/><path class="cls-12" d="M242.6,238.7h21.8a8.71,8.71,0,0,0,8.7-8.7V208.1a8.71,8.71,0,0,0-8.7-8.7H242.6a8.71,8.71,0,0,0-8.7,8.7v21.8A8.6,8.6,0,0,0,242.6,238.7Z" transform="translate(-2.7 -9.33)"/><path class="cls-8" d="M244.8,233.2a2,2,0,0,1-.9.9,2.9,2.9,0,0,1-1.4.3h-1.9v-4.9h1.9a3.19,3.19,0,0,1,1.4.3,2,2,0,0,1,.9.9,2.77,2.77,0,0,1,.3,1.3A2.13,2.13,0,0,1,244.8,233.2Zm-1.3-.2a1.45,1.45,0,0,0,0-2,1.82,1.82,0,0,0-1.1-.4h-.6v2.8h.6A1.6,1.6,0,0,0,243.5,233Z" transform="translate(-2.7 -9.33)"/><path class="cls-8" d="M247,230.4v1h1.7v.9H247v1.1h1.9v1h-3.1v-4.9h3.1v1H247Z" transform="translate(-2.7 -9.33)"/><path class="cls-8" d="M250.8,232.7v1.7h-1.2v-4.9h1.9a1.7,1.7,0,0,1,1.3.4,1.66,1.66,0,0,1,.5,1.2,1.88,1.88,0,0,1-.2.8,1.7,1.7,0,0,1-.6.6,1.64,1.64,0,0,1-1,.2Zm1.3-1.6a.63.63,0,0,0-.7-.7h-.6v1.3h.6C251.8,231.7,252.1,231.5,252.1,231.1Z" transform="translate(-2.7 -9.33)"/><path class="cls-8" d="M255.1,233.5h1.6v.9h-2.8v-4.9h1.2v4Z" transform="translate(-2.7 -9.33)"/><path class="cls-8" d="M260.9,229.7a2,2,0,0,1,.9.9,3,3,0,0,1,0,2.6,2,2,0,0,1-.9.9,3,3,0,0,1-2.6,0,2,2,0,0,1-.9-.9,3,3,0,0,1,0-2.6,2,2,0,0,1,.9-.9,3,3,0,0,1,2.6,0Zm-2.2,1.2a1.69,1.69,0,0,0-.3,1,1.49,1.49,0,0,0,.3,1,1.21,1.21,0,0,0,1.8,0,1.78,1.78,0,0,0,.4-1,1.49,1.49,0,0,0-.3-1,1,1,0,0,0-.9-.4A1.16,1.16,0,0,0,258.7,230.9Z" transform="translate(-2.7 -9.33)"/><path class="cls-8" d="M267,229.5l-1.7,3.3v1.6h-1.2v-1.6l-1.7-3.3h1.4l1,2,1-2Z" transform="translate(-2.7 -9.33)"/></g><path class="cls-27" d="M191.8,410.5,185,427.4s14.9,12.6,13.9,15.8l-33.2-12,9.5-26.7Z" transform="translate(-2.7 -9.33)"/><path class="cls-28" d="M175.2,422.2a1.36,1.36,0,0,0-.3,2.7,1.53,1.53,0,0,0,1.6-1.3c0-.7-.7-1.5-1.3-1.4" transform="translate(-2.7 -9.33)"/><g class="cls-29"><path class="cls-28" d="M165.7,431.2l1.1-2.7L198.2,441s1.2,1.2.7,2.2Z" transform="translate(-2.7 -9.33)"/></g><path class="cls-28" d="M185.6,427.4c-.1.2-.9-.1-1.9.2s-1.7.8-1.8.6.5-1,1.7-1.2S185.6,427.2,185.6,427.4Z" transform="translate(-2.7 -9.33)"/><path class="cls-28" d="M188.5,430.1c0,.2-.8.2-1.6.7s-1.2,1.2-1.4,1.1.1-1,1.1-1.6S188.6,429.9,188.5,430.1Z" transform="translate(-2.7 -9.33)"/><path class="cls-28" d="M189,435c-.2,0-.1-.9.6-1.6a2,2,0,0,1,1.6-.7c0,.2-.6.5-1.2,1.1S189.2,435,189,435Z" transform="translate(-2.7 -9.33)"/><path class="cls-28" d="M186.7,423.4c-.1.1-.8-.4-1.7-.6s-1.8-.2-1.8-.4.9-.5,2-.2S186.8,423.3,186.7,423.4Z" transform="translate(-2.7 -9.33)"/><path class="cls-28" d="M188,419.9c0,.1-.7-.1-1.7-.6a7.89,7.89,0,0,1-1.5-1.2,7.27,7.27,0,0,1-.8-.9c-.1-.2-.3-.3-.4-.6a.75.75,0,0,1,1-1l.6.3c.3.2.6.5.9.7a8.35,8.35,0,0,1,1.2,1.6c.5,1,.6,1.7.5,1.7s-.3-.6-.9-1.5a13,13,0,0,0-1.2-1.4c-.3-.2-.5-.4-.8-.6a.88.88,0,0,0-.8-.2c-.1,0-.1.1,0,.2s.2.3.3.4a5.72,5.72,0,0,0,.7.8,13,13,0,0,0,1.4,1.2A7.86,7.86,0,0,0,188,419.9Z" transform="translate(-2.7 -9.33)"/><path class="cls-28" d="M187.7,420.1c-.1,0-.2-.7.1-1.8a5.65,5.65,0,0,1,.9-1.7,6.47,6.47,0,0,1,.8-.9,1.52,1.52,0,0,1,1.4-.5.87.87,0,0,1,.5.7v.7a3.58,3.58,0,0,1-.4,1.1,5,5,0,0,1-1.3,1.5c-1,.6-1.7.6-1.7.5a6.11,6.11,0,0,0,1.4-.9,4,4,0,0,0,1.1-1.4,2.93,2.93,0,0,0,.3-1c.1-.4,0-.7-.1-.7s-.5.1-.8.3a2.7,2.7,0,0,0-.7.8,8.46,8.46,0,0,0-.9,1.5C187.8,419.4,187.8,420.1,187.7,420.1Z" transform="translate(-2.7 -9.33)"/><path class="cls-27" d="M160.5,407.4l-6.8,16.9s14.9,12.6,13.9,15.8l-33.2-12,9.5-26.7Z" transform="translate(-2.7 -9.33)"/><path class="cls-28" d="M144,419.1a1.36,1.36,0,0,0-.3,2.7,1.53,1.53,0,0,0,1.6-1.3c0-.7-.7-1.5-1.3-1.4" transform="translate(-2.7 -9.33)"/><g class="cls-29"><path class="cls-28" d="M134.5,428.1l1.1-2.7L167,437.9s1.2,1.2.7,2.2Z" transform="translate(-2.7 -9.33)"/></g><path class="cls-28" d="M154.3,424.3c-.1.2-.9-.1-1.9.2s-1.7.8-1.8.6.5-1,1.7-1.2S154.4,424.2,154.3,424.3Z" transform="translate(-2.7 -9.33)"/><path class="cls-28" d="M157.3,427c0,.2-.8.2-1.6.7s-1.2,1.2-1.4,1.1.1-1,1.1-1.6S157.3,426.8,157.3,427Z" transform="translate(-2.7 -9.33)"/><path class="cls-28" d="M157.8,431.9c-.2,0-.1-.9.6-1.6a2,2,0,0,1,1.6-.7c0,.2-.6.5-1.2,1.1S157.9,431.9,157.8,431.9Z" transform="translate(-2.7 -9.33)"/><path class="cls-28" d="M155.4,420.3c-.1.1-.8-.4-1.7-.6s-1.8-.2-1.8-.4.9-.5,2-.2S155.6,420.2,155.4,420.3Z" transform="translate(-2.7 -9.33)"/><path class="cls-28" d="M156.8,416.9c0,.1-.7-.1-1.7-.6a7.89,7.89,0,0,1-1.5-1.2,7.27,7.27,0,0,1-.8-.9c-.1-.2-.3-.3-.4-.6a.75.75,0,0,1,1-1l.6.3c.3.2.6.5.9.7a8.35,8.35,0,0,1,1.2,1.6c.5,1,.6,1.7.5,1.7s-.3-.6-.9-1.5a13,13,0,0,0-1.2-1.4c-.3-.2-.5-.4-.8-.6a.88.88,0,0,0-.8-.2c-.1,0-.1.1,0,.2s.2.3.3.4a5.72,5.72,0,0,0,.7.8,13,13,0,0,0,1.4,1.2C156.2,416.5,156.8,416.8,156.8,416.9Z" transform="translate(-2.7 -9.33)"/><path class="cls-28" d="M156.5,417c-.1,0-.2-.7.1-1.8a5.65,5.65,0,0,1,.9-1.7,6.47,6.47,0,0,1,.8-.9,1.52,1.52,0,0,1,1.4-.5.87.87,0,0,1,.5.7v.7a3.58,3.58,0,0,1-.4,1.1,5,5,0,0,1-1.3,1.5c-1,.6-1.7.6-1.7.5a6.11,6.11,0,0,0,1.4-.9,4,4,0,0,0,1.1-1.4,2.93,2.93,0,0,0,.3-1c.1-.4,0-.7-.1-.7s-.5.1-.8.3a2.7,2.7,0,0,0-.7.8,8.46,8.46,0,0,0-.9,1.5C156.6,416.3,156.6,417,156.5,417Z" transform="translate(-2.7 -9.33)"/><path class="cls-30" d="M137.6,188.8l3.2,25.9-4.9,12,19.5.7,4-9.4s9.7-1.1,10-7.3c.2-4-6.1-32.7-6.1-32.7Z" transform="translate(-2.7 -9.33)"/><path class="cls-1" d="M143.9,219.7c-2.3-1.6-3.5-2.6-4.5-5.2s-1.7-5.3-2.8-7.8c-1.2-2.7-2.9-5-4.1-7.7s-1.8-5.8-.6-8.5c0,0,.4-3.4,5-4.7,0,0,2.6-7.3,8.6-8,8.1-.9,7.9-3.3,13.2-5.3a5.15,5.15,0,0,1,6.9,2.5s3.3,1.5,4,4.5v.1a7.05,7.05,0,0,1-3.3,7.8c-.3.2-.7.4-1,.6a6.93,6.93,0,0,0-2.5,2c-.9,1.3-.7,3.1-.3,4.7s1,3.1.7,4.7c-.1.5-.4,1.2-.9,1.2-.7,0-.8-.9-1-1.5a2.73,2.73,0,1,0-4.7,2.6c.9,1.2,2.5,1.9,3,3.3,1,2.3-1.4,5.1-2.2,6.6a14,14,0,0,1-1,1.6,21.68,21.68,0,0,1-6.8,5.9,6.16,6.16,0,0,1-6.4.3" transform="translate(-2.7 -9.33)"/><path class="cls-1" d="M152.7,301.9l46.6,7a22.71,22.71,0,0,1,15.6,10h0a22.86,22.86,0,0,1,2.8,18.7l-24.6,78.5-22.2-8.4,13.6-69.4-72.1-4.8V301.8l40.3-1.5" transform="translate(-2.7 -9.33)"/><path class="cls-1" d="M119.9,301.9l46.6,7a22.71,22.71,0,0,1,15.6,10h0a22.86,22.86,0,0,1,2.8,18.7l-21.5,73.8-24.8-6.6,13.1-66.6L103.5,335V303.3l16.3-3.1" transform="translate(-2.7 -9.33)"/><path class="cls-31" d="M201.2,222.9l-2.1,3.9s-6.3.8-6.1-4.1l2.7-3.3Z" transform="translate(-2.7 -9.33)"/><path class="cls-30" d="M187.6,223.4l-1.3,3.8,3.4,5.8s4.9-1.4,2.8-5.8l-1.9-1.2s4.4-1.2,4.1-4l-.7-.7Z" transform="translate(-2.7 -9.33)"/><polygon class="cls-30" points="187 223.67 186.1 232.27 196.7 232.67 195.9 223.97 187 223.67"/><path class="cls-30" d="M188.8,222.5l.4-12a1.11,1.11,0,0,1,1.1-1.1h0a1.16,1.16,0,0,1,1.3,1.1l.5,8.8,2.8-8.4a1.3,1.3,0,0,1,1.4-.9h0a1.34,1.34,0,0,1,1.1,1.5l-1.7,7.8,5.5,3.5-2.6,10.5-8.9-.3Z" transform="translate(-2.7 -9.33)"/><path class="cls-27" d="M188.4,236.7c-.8.6-5.7,40.4-5.7,40.4l19.1-2.9,1-34.5S196,231,188.4,236.7Z" transform="translate(-2.7 -9.33)"/><path class="cls-27" d="M110.1,234.1c5.3-7.7,14.3-10.3,17.4-11a6.8,6.8,0,0,1,2-.2h27a18.7,18.7,0,0,1,13.1,5.2,64.06,64.06,0,0,1,10.3,13.3l13.6,18.9,8.3,14-1.7,2.1a14.13,14.13,0,0,1-16.8,4.3c-2.8-1.3-4.8-3.7-6.6-6.4-3.4-5-7-10.4-9.3-14.6l-13.6,38.9,7.3,4.6-30.7,12.4L98.5,301.9l8.8-31.4h0s-14,1.4-15.3-4.1S103.7,243.4,110.1,234.1Z" transform="translate(-2.7 -9.33)"/><path class="cls-32" d="M113.3,248.3c-2.4,3.8-4.4,7.8-6.4,11.8-.3.5-1,.1-.8-.5a94,94,0,0,1,6.6-11.6c.3-.3.8,0,.6.3Z" transform="translate(-2.7 -9.33)"/><path class="cls-32" d="M106.9,246.1c-2.4,3.8-4.4,7.8-6.4,11.8-.3.5-1,.1-.8-.5a94,94,0,0,1,6.6-11.6c.3-.4.8-.1.6.3Z" transform="translate(-2.7 -9.33)"/><path class="cls-32" d="M119.4,249.2c-1.3,5.2-2.4,10.5-3.3,15.8-.1.7-1.3.4-1.1-.3a109.12,109.12,0,0,1,3.9-15.7c.1-.2.6-.1.5.2Z" transform="translate(-2.7 -9.33)"/><path class="cls-32" d="M133.9,250.7a64.43,64.43,0,0,0-2.6,15.7c0,.7-1.2.7-1.2,0a54.17,54.17,0,0,1,3.2-15.9c.1-.3.7-.1.6.2Z" transform="translate(-2.7 -9.33)"/><path class="cls-32" d="M122,263.5c1.6-5,3-9.5,3.5-14.8.1-.7,1.1-.7,1.1,0-.1,5.1-1.3,10.7-4,15-.2.3-.7.1-.6-.2Z" transform="translate(-2.7 -9.33)"/><path class="cls-32" d="M140.3,251.1a67.88,67.88,0,0,1-2.2,14.9.52.52,0,1,1-1-.3l2.7-14.7c0-.3.5-.2.5.1Z" transform="translate(-2.7 -9.33)"/><path class="cls-32" d="M148.1,252c-1.3,5.5-2.3,11-3.3,16.5-.1.5-1,.4-.9-.1a86,86,0,0,1,3.9-16.5c-.1-.2.3-.1.3.1Z" transform="translate(-2.7 -9.33)"/><path class="cls-32" d="M155.1,253.3a65.85,65.85,0,0,1-1.7,15.3c-.1.5-.9.3-.8-.2.7-5,1.6-10,1.8-15,.1-.5.7-.5.7-.1Z" transform="translate(-2.7 -9.33)"/><path class="cls-32" d="M177.7,267.3a114.86,114.86,0,0,1-11.5-13.6c-.3-.4.4-.9.7-.6,3.8,4.4,8,9,11,13.9.2.2,0,.4-.2.3Z" transform="translate(-2.7 -9.33)"/><path class="cls-32" d="M182.7,262.8a45.73,45.73,0,0,1-9.8-12.1c-.3-.5.5-1,.8-.5,2.9,4.3,6.2,8.2,9.4,12.2a.28.28,0,0,1-.4.4Z" transform="translate(-2.7 -9.33)"/><path class="cls-32" d="M179.7,248.3c2.8,3.2,5.7,6.3,8.4,9.6.4.4-.2,1.1-.6.6-2.8-3.2-5.4-6.6-8.1-9.8-.2-.3.1-.7.3-.4Z" transform="translate(-2.7 -9.33)"/><path class="cls-32" d="M162.3,254.1c-1.2,5.1-1.9,10.2-3,15.3a.46.46,0,0,1-.9-.1,135.8,135.8,0,0,1,3.2-15.4.36.36,0,1,1,.7.2Z" transform="translate(-2.7 -9.33)"/><g class="cls-33"><path d="M121.4,265a7.3,7.3,0,0,1,5.7,2.9,18.29,18.29,0,0,1,3,5.9,61.51,61.51,0,0,1,3.2,20.8c0,2.2-.1,4.6,1.6,6,1.4,1.2,3.5,1.1,5.2,1.8,2.8,1.1,5.1,4.8,4.3,7.6L129,315.8Z" transform="translate(-2.7 -9.33)"/></g><path class="cls-1" d="M138.7,297.5c0,.1.6.4,1.8.7a22.44,22.44,0,0,0,4.5.7,19.42,19.42,0,0,0,4.5-.3,9.18,9.18,0,0,0,1.8-.5c0-.2-2.8.5-6.3.3A40.17,40.17,0,0,1,138.7,297.5Z" transform="translate(-2.7 -9.33)"/><polygon class="cls-5" points="191.5 330.37 203.8 433.27 198.5 433.27 185.5 330.37 191.5 330.37"/><polygon class="cls-5" points="142.7 330.37 131.4 433.27 125.6 433.27 136.6 330.37 142.7 330.37"/><polyline class="cls-5" points="82 330.37 72.7 433.27 66.2 433.27 76.9 330.37 84.7 330.37"/><path class="cls-5" d="M116.1,251.3H70.6a7.08,7.08,0,0,0-7,8.1l10.8,75.1a6,6,0,0,0,6,5.2h58.9Z" transform="translate(-2.7 -9.33)"/><path class="cls-5" d="M200.3,339.7c-.1-1.1,0-6.8,0-6.8L143.9,334a8.63,8.63,0,0,1-8.7-7.3L124,258.1a8,8,0,0,0-7.9-6.7h0l12.3,77.3a13.12,13.12,0,0,0,13,11.1l58.9-.1Z" transform="translate(-2.7 -9.33)"/><path class="cls-1" d="M116.1,251.3v.2c0,.2.1.4.1.7.1.7.2,1.5.4,2.7.4,2.4.9,5.7,1.5,9.8,1.3,8.3,3.1,19.6,5,32.2,1,6.3,2,12.3,2.8,17.7.4,2.7.9,5.3,1.3,7.7a56.23,56.23,0,0,0,1.4,6.7,20.87,20.87,0,0,0,2.3,5.2,12.55,12.55,0,0,0,2.9,3.1,8.27,8.27,0,0,0,2.4,1.3l.9.3a12,12,0,0,1-3.1-1.7,15.81,15.81,0,0,1-5-8.2,53.17,53.17,0,0,1-1.3-6.7c-.4-2.4-.8-5-1.2-7.7-.9-5.5-1.8-11.4-2.8-17.7-2-12.5-3.9-23.9-5.2-32.2-.7-4.1-1.2-7.4-1.6-9.7-.2-1.1-.4-2-.5-2.6a2,2,0,0,1-.1-.7C116.1,251.4,116.1,251.3,116.1,251.3Z" transform="translate(-2.7 -9.33)"/><path class="cls-1" d="M113.5,251.8a25.87,25.87,0,0,0,2.7-3.9,21,21,0,0,0,2.3-4.2,25.87,25.87,0,0,0-2.7,3.9A37.27,37.27,0,0,0,113.5,251.8Z" transform="translate(-2.7 -9.33)"/><path class="cls-1" d="M199.3,268.5a54.87,54.87,0,0,0-3.5-5.5c-2.1-2.9-3.8-5.3-4-5.2a54.87,54.87,0,0,0,3.5,5.5C197.4,266.2,199.2,268.5,199.3,268.5Z" transform="translate(-2.7 -9.33)"/><path class="cls-1" d="M161.3,250.3l.6,1.2c.5.8,1.1,1.8,1.8,3.1,1.5,2.6,3.7,6.1,6.2,10s4.8,7.3,6.6,9.7c.9,1.2,1.6,2.2,2.1,2.9a8.73,8.73,0,0,0,.8,1,9.32,9.32,0,0,0-.7-1.1c-.5-.8-1.2-1.8-2-3-1.7-2.5-4-5.9-6.5-9.8s-4.6-7.3-6.3-9.9c-.8-1.3-1.5-2.3-1.9-3S161.3,250.2,161.3,250.3Z" transform="translate(-2.7 -9.33)"/><ellipse class="cls-34" cx="351.6" cy="257.67" rx="11.8" ry="2.4"/><path class="cls-12" d="M354.3,269.3c-6.5,0-11.8-1.1-11.8-2.4l3.6,18.9c0,1.3,3.7,2.4,8.3,2.4s8.3-1.1,8.3-2.4l3.6-18.9C366.2,268.3,360.9,269.3,354.3,269.3Z" transform="translate(-2.7 -9.33)"/><path class="cls-11" d="M354.3,268.7c-7,0-11-1.2-11.3-1.8.3-.6,4.2-1.7,11.3-1.7s11,1.2,11.3,1.8C365.3,267.6,361.3,268.7,354.3,268.7Z" transform="translate(-2.7 -9.33)"/><path class="cls-35" d="M345.1,267.8a47.47,47.47,0,0,0,18.4,0,38.32,38.32,0,0,0-9.2-.9A52.79,52.79,0,0,0,345.1,267.8Z" transform="translate(-2.7 -9.33)"/><path class="cls-11" d="M361.9,270l-2.8,16.6a4.67,4.67,0,0,0,2.3-.9l3.1-16.3C363.7,269.6,362.8,269.8,361.9,270Z" transform="translate(-2.7 -9.33)"/><path class="cls-36" d="M345.5,269.8a7.37,7.37,0,0,1-1.4-.4l3.1,16.3a2.65,2.65,0,0,0,1.1.6Z" transform="translate(-2.7 -9.33)"/><path class="cls-11" d="M369.4,270.7a3.5,3.5,0,0,0-2.8-1.4h-.9l-.4,2.4h1.3a1.05,1.05,0,0,1,.9.5,1.23,1.23,0,0,1,.2,1l-.9,3.2a8,8,0,0,1-3.4,4.6l-.6,2.9a10.39,10.39,0,0,0,6.2-7l.9-3.2A3,3,0,0,0,369.4,270.7Z" transform="translate(-2.7 -9.33)"/></g><image class="cls-37" width="816" height="773" transform="translate(236.98 192.67) scale(0.03)" xlink:href="../../Logos/Logos%20sans%20nom/Logotype_Go2Scale_blanc.png"/><path class="cls-8" d="M29.27,10.64,25.81,24H24.22L20.87,12.56,17.51,24h-1.6l-3.45-13.4h1.48l2.79,11.75,3.38-11.75h1.5L25,22.41l2.82-11.77Z" transform="translate(-2.7 -9.33)"/><path class="cls-8" d="M31.33,9.92a1.17,1.17,0,0,1,1.42,0,.9.9,0,0,1,.26.67.85.85,0,0,1-.26.64,1.13,1.13,0,0,1-1.42,0,.82.82,0,0,1-.27-.64A.87.87,0,0,1,31.33,9.92Zm1.38,3.75V24H31.36V13.67Z" transform="translate(-2.7 -9.33)"/><path class="cls-8" d="M40.31,22.86V24H39.07a3.15,3.15,0,0,1-2.24-.71,3.28,3.28,0,0,1-.74-2.41v-6.1H34.51V13.67h1.58V11h1.35v2.63h2.85v1.15H37.44v6.12a2.14,2.14,0,0,0,.4,1.51,1.87,1.87,0,0,0,1.4.41Z" transform="translate(-2.7 -9.33)"/><path class="cls-8" d="M50.62,14.62A4.66,4.66,0,0,1,51.75,18v6H50.44V18.09a3.61,3.61,0,0,0-.86-2.59,3.07,3.07,0,0,0-2.34-.9,3.23,3.23,0,0,0-2.48,1,4.23,4.23,0,0,0-.92,2.94V24H42.49V10h1.35v6.23a3.6,3.6,0,0,1,1.45-2,4.15,4.15,0,0,1,2.39-.7A4,4,0,0,1,50.62,14.62Z" transform="translate(-2.7 -9.33)"/><path class="cls-8" d="M69.4,11.67a5.72,5.72,0,0,1,2.16,3.1H70.18a4.67,4.67,0,0,0-1.74-2.19,5.42,5.42,0,0,0-5.51-.15,4.84,4.84,0,0,0-1.84,2,6.33,6.33,0,0,0-.66,3,6.32,6.32,0,0,0,.67,3,4.82,4.82,0,0,0,1.86,2,5.32,5.32,0,0,0,2.71.68,5.24,5.24,0,0,0,2.47-.59A4.74,4.74,0,0,0,70,20.66a5.9,5.9,0,0,0,.8-2.68H65.2V17h6.72v1.18a6.84,6.84,0,0,1-1,3.08,6,6,0,0,1-2.22,2.15,6.31,6.31,0,0,1-3.18.79,6.61,6.61,0,0,1-3.38-.86,6,6,0,0,1-2.3-2.42,7.45,7.45,0,0,1-.82-3.54,7.41,7.41,0,0,1,.82-3.53,6,6,0,0,1,2.29-2.43,6.57,6.57,0,0,1,3.37-.86A6.44,6.44,0,0,1,69.4,11.67Z" transform="translate(-2.7 -9.33)"/><path class="cls-8" d="M81.7,14.17A4.51,4.51,0,0,1,83.53,16a5.73,5.73,0,0,1,.67,2.84,5.64,5.64,0,0,1-.67,2.83,4.59,4.59,0,0,1-1.83,1.85,5.83,5.83,0,0,1-5.31,0,4.6,4.6,0,0,1-1.85-1.86,5.66,5.66,0,0,1-.68-2.82A5.74,5.74,0,0,1,74.54,16a4.55,4.55,0,0,1,1.85-1.84,5.83,5.83,0,0,1,5.31,0Zm-4.55,1a3.49,3.49,0,0,0-1.41,1.39,4.7,4.7,0,0,0-.53,2.31,4.63,4.63,0,0,0,.53,2.3,3.55,3.55,0,0,0,1.41,1.39,4.06,4.06,0,0,0,1.9.45,4,4,0,0,0,1.87-.45,3.53,3.53,0,0,0,1.4-1.39,4.63,4.63,0,0,0,.53-2.3,4.7,4.7,0,0,0-.53-2.31,3.46,3.46,0,0,0-1.4-1.39,3.89,3.89,0,0,0-1.87-.46A4,4,0,0,0,77.15,15.15Z" transform="translate(-2.7 -9.33)"/><path class="cls-8" d="M91.37,18.57a6.54,6.54,0,0,0,2-4.2,3,3,0,0,0-.64-2,2.6,2.6,0,0,0-2.09-.77,2.74,2.74,0,0,0-2.25.93A4.15,4.15,0,0,0,87.52,15H86.21a5,5,0,0,1,1.35-3.37,4.36,4.36,0,0,1,3.17-1.19,4.24,4.24,0,0,1,2.89,1,3.56,3.56,0,0,1,1.1,2.83,5.92,5.92,0,0,1-1,3.22,14.83,14.83,0,0,1-2.6,3,20.48,20.48,0,0,1-3.18,2.37h7.2V24H86V23A27.83,27.83,0,0,0,91.37,18.57Z" transform="translate(-2.7 -9.33)"/><path class="cls-8" d="M105.11,22.36a3.33,3.33,0,0,1-1.32,1.31,4.57,4.57,0,0,1-2.23.5,5.46,5.46,0,0,1-2.3-.47,4.13,4.13,0,0,1-1.6-1.3A3.67,3.67,0,0,1,97,20.54h1.4a2.94,2.94,0,0,0,.44,1.18,2.89,2.89,0,0,0,1,1,3.31,3.31,0,0,0,1.66.39,2.63,2.63,0,0,0,1.94-.68,2.38,2.38,0,0,0,.68-1.73,2.27,2.27,0,0,0-.45-1.46,3,3,0,0,0-1.1-.86,16.35,16.35,0,0,0-1.8-.67,14.74,14.74,0,0,1-2-.77,3.4,3.4,0,0,1-1.3-1.09,3.12,3.12,0,0,1-.53-1.92A3.17,3.17,0,0,1,98,11.44a4.27,4.27,0,0,1,2.93-.95,4.55,4.55,0,0,1,3,.93,3.67,3.67,0,0,1,1.32,2.32h-1.43a2.72,2.72,0,0,0-.9-1.52,2.87,2.87,0,0,0-2-.66,2.77,2.77,0,0,0-1.88.6,2.12,2.12,0,0,0-.71,1.69,2.1,2.1,0,0,0,.44,1.39,2.87,2.87,0,0,0,1.07.82c.43.19,1,.4,1.74.65a15,15,0,0,1,2.06.77A3.58,3.58,0,0,1,105,18.62a3.36,3.36,0,0,1,.55,2A3.67,3.67,0,0,1,105.11,22.36Z" transform="translate(-2.7 -9.33)"/><path class="cls-8" d="M115.82,14.58a4.31,4.31,0,0,1,1.59,2.77H116a3,3,0,0,0-1.16-2,4.09,4.09,0,0,0-4.19-.25,3.36,3.36,0,0,0-1.35,1.39,4.93,4.93,0,0,0-.5,2.31,4.93,4.93,0,0,0,.5,2.31,3.38,3.38,0,0,0,1.35,1.4,3.9,3.9,0,0,0,1.86.45,3.73,3.73,0,0,0,2.33-.71A2.91,2.91,0,0,0,116,20.35h1.39a4.33,4.33,0,0,1-1.59,2.78,5.1,5.1,0,0,1-3.27,1,5.42,5.42,0,0,1-2.64-.63,4.5,4.5,0,0,1-1.79-1.85,5.93,5.93,0,0,1-.65-2.84,6,6,0,0,1,.65-2.84,4.47,4.47,0,0,1,1.79-1.84,5.32,5.32,0,0,1,2.64-.64A5,5,0,0,1,115.82,14.58Z" transform="translate(-2.7 -9.33)"/><path class="cls-8" d="M126.86,14.35a4.14,4.14,0,0,1,1.53,2.17V13.67h1.31V24h-1.31V21.19a4.11,4.11,0,0,1-1.53,2.16,4.39,4.39,0,0,1-2.69.82,4.91,4.91,0,0,1-2.51-.64,4.33,4.33,0,0,1-1.73-1.86,6,6,0,0,1-.62-2.82,6.07,6.07,0,0,1,.62-2.84,4.32,4.32,0,0,1,1.72-1.84,4.87,4.87,0,0,1,2.52-.64A4.39,4.39,0,0,1,126.86,14.35Zm-5.15,1.47a4.23,4.23,0,0,0-1,3,4.23,4.23,0,0,0,1,3A3.71,3.71,0,0,0,124.52,23a3.89,3.89,0,0,0,2-.51A3.66,3.66,0,0,0,127.89,21a5,5,0,0,0,0-4.35,3.63,3.63,0,0,0-1.39-1.46,3.89,3.89,0,0,0-2-.51A3.71,3.71,0,0,0,121.71,15.82Z" transform="translate(-2.7 -9.33)"/><path class="cls-8" d="M133.94,10V24h-1.35V10Z" transform="translate(-2.7 -9.33)"/><path class="cls-8" d="M143.71,22.37a2.85,2.85,0,0,0,1.14-1.9h1.4a4.21,4.21,0,0,1-1.58,2.68,5.1,5.1,0,0,1-3.26,1,5.42,5.42,0,0,1-2.64-.63A4.5,4.5,0,0,1,137,21.69a5.93,5.93,0,0,1-.65-2.84A6,6,0,0,1,137,16a4.47,4.47,0,0,1,1.79-1.84,5.32,5.32,0,0,1,2.64-.64,5.15,5.15,0,0,1,2.63.64,4.32,4.32,0,0,1,1.69,1.7,4.84,4.84,0,0,1,.58,2.32,5.86,5.86,0,0,1-.08,1h-8.59a4.43,4.43,0,0,0,.55,2.19,3.24,3.24,0,0,0,1.35,1.3,4,4,0,0,0,1.81.42A3.86,3.86,0,0,0,143.71,22.37ZM139.56,15a3.36,3.36,0,0,0-1.36,1.29,4.46,4.46,0,0,0-.56,2.15H145a3.8,3.8,0,0,0-.42-2.14,3.09,3.09,0,0,0-1.33-1.3,4.31,4.31,0,0,0-3.67,0Z" transform="translate(-2.7 -9.33)"/><path class="cls-8" d="M149.67,11c0,1.3-.57,2-1.73,2v-.67a.84.84,0,0,0,.69-.25,1.11,1.11,0,0,0,.21-.74v-.47H148V9.33h1.54A9.5,9.5,0,0,1,149.67,11Z" transform="translate(-2.7 -9.33)"/><path class="cls-8" d="M157.63,14.43a3.81,3.81,0,0,1,1.26,2.41h-1.28a2.54,2.54,0,0,0-.82-1.66,2.7,2.7,0,0,0-1.91-.66,2.4,2.4,0,0,0-1.61.5,1.72,1.72,0,0,0-.58,1.34,1.41,1.41,0,0,0,.37,1A2.49,2.49,0,0,0,154,18a13.86,13.86,0,0,0,1.49.41,14.13,14.13,0,0,1,1.83.54,3,3,0,0,1,1.19.86,2.43,2.43,0,0,1,.49,1.6,2.54,2.54,0,0,1-.92,2,3.6,3.6,0,0,1-2.44.79,4.64,4.64,0,0,1-2.93-.88,3.55,3.55,0,0,1-1.35-2.42h1.3a2.42,2.42,0,0,0,.89,1.67,3.2,3.2,0,0,0,2.11.64,2.18,2.18,0,0,0,1.54-.51,1.75,1.75,0,0,0,.55-1.33,1.48,1.48,0,0,0-.38-1.06,2.37,2.37,0,0,0-.94-.6c-.38-.13-.89-.28-1.53-.43a13.68,13.68,0,0,1-1.8-.53,2.86,2.86,0,0,1-1.15-.83,2.31,2.31,0,0,1-.47-1.53,2.54,2.54,0,0,1,.93-2,3.81,3.81,0,0,1,2.53-.78A4,4,0,0,1,157.63,14.43Z" transform="translate(-2.7 -9.33)"/><path class="cls-8" d="M176.29,10.64V24H175V17.69H167.7V24h-1.35V10.64h1.35v5.95H175V10.64Z" transform="translate(-2.7 -9.33)"/><path class="cls-8" d="M180.45,10.64v8.12a4.48,4.48,0,0,0,.94,3.15,3.37,3.37,0,0,0,2.58,1,3.29,3.29,0,0,0,2.55-1,4.53,4.53,0,0,0,.92-3.15V10.64h1.33v8.12a5.59,5.59,0,0,1-1.31,4.06,5.25,5.25,0,0,1-7,0,5.63,5.63,0,0,1-1.31-4.06V10.64Z" transform="translate(-2.7 -9.33)"/><path class="cls-8" d="M199.75,18.26a3.23,3.23,0,0,1,.78,2.17,3.32,3.32,0,0,1-1.1,2.61,4.57,4.57,0,0,1-3.19,1h-4.66V10.64h4.6a4.46,4.46,0,0,1,3,.91,3.07,3.07,0,0,1,1,2.42,3.09,3.09,0,0,1-.7,2.1,3.32,3.32,0,0,1-1.81,1A3.52,3.52,0,0,1,199.75,18.26Zm-6.82-1.63H196a3.1,3.1,0,0,0,2.14-.66,2.26,2.26,0,0,0,.73-1.79,2.26,2.26,0,0,0-.72-1.77,3.25,3.25,0,0,0-2.22-.64h-3Zm5.42,5.58a2.37,2.37,0,0,0,.83-1.93,2.37,2.37,0,0,0-.85-1.93,3.56,3.56,0,0,0-2.36-.71h-3V22.9H196A3.59,3.59,0,0,0,198.35,22.21Z" transform="translate(-2.7 -9.33)"/></svg>