<svg xmlns="http://www.w3.org/2000/svg" xmlns:xlink="http://www.w3.org/1999/xlink" viewBox="0 0 1700 1080"><defs><style>.cls-1{fill:#263238;}.cls-2{fill:#3b6f1c;}.cls-3{fill:#51c60c;}.cls-4{fill:#2c892c;}.cls-5{fill:#455a64;}.cls-38,.cls-6,.cls-8{fill:#fff;}.cls-6{opacity:0.9;}.cls-37,.cls-6{isolation:isolate;}.cls-7{fill:#42b395;}.cls-9{fill:#b3dfe0;}.cls-10{fill:#66676b;}.cls-11{fill:#0b8ba3;}.cls-12{fill:#00b1d2;}.cls-13{fill:#49616e;}.cls-14{fill:url(#Dégradé_sans_nom_5);}.cls-15{fill:url(#Dégradé_sans_nom_4);}.cls-16{fill:#738091;}.cls-17{fill:#4e626d;}.cls-18{fill:#96d5cd;}.cls-19{fill:none;stroke:#fff;stroke-miterlimit:10;stroke-width:2px;}.cls-20{fill:#2a4f98;}.cls-21{fill:#5684c2;}.cls-22{fill:#353c73;}.cls-23{fill:#c4d6eb;}.cls-24{fill:#ee897b;}.cls-25{fill:#e55740;}.cls-26{fill:#fcd274;}.cls-27{fill:#00d6a0;}.cls-28{fill:#9404b2;}.cls-29{opacity:0.6;}.cls-30{fill:#ffbe9d;}.cls-31{fill:#f9cebb;}.cls-32{fill:#fafafa;}.cls-33{opacity:0.3;}.cls-34{fill:#59747f;}.cls-35{fill:#56473f;}.cls-36{fill:#39e1f7;}.cls-38{fill-rule:evenodd;opacity:0.5;}</style><linearGradient id="Dégradé_sans_nom_5" x1="1208.15" y1="287.79" x2="1145.38" y2="191.95" gradientTransform="matrix(1, 0, 0, -1, 0, 1233.16)" gradientUnits="userSpaceOnUse"><stop offset="0" stop-color="#f5ebcb"/><stop offset="0.14" stop-color="#efe7c8"/><stop offset="0.34" stop-color="#dddbc1"/><stop offset="0.57" stop-color="#bfc7b5"/><stop offset="0.82" stop-color="#96aca4"/><stop offset="1" stop-color="#759696"/></linearGradient><linearGradient id="Dégradé_sans_nom_4" x1="1182.47" y1="318.38" x2="1152.3" y2="171.81" gradientTransform="matrix(1, 0, 0, -1, 0, 1233.16)" gradientUnits="userSpaceOnUse"><stop offset="0" stop-color="#8a8677"/><stop offset="0.17" stop-color="#706d61"/><stop offset="0.74" stop-color="#201f1b"/><stop offset="1"/></linearGradient></defs><g id="Calque_1" data-name="Calque 1"><g id="Plant"><rect class="cls-1" x="1461.03" y="926.29" width="155.55" height="20.98"/><path class="cls-1" d="M1616.82,947.51h-156V926.05h156ZM1461.27,947h155.07V926.53H1461.27Z"/><polygon class="cls-1" points="1475.32 940.36 1497.86 1049.1 1580.72 1049.1 1602.28 947.28 1475.32 940.36"/><polygon class="cls-1" points="1475.32 1038.84 1487.44 1055.06 1587.99 1055.06 1602.28 1038.84 1475.32 1038.84"/><path class="cls-1" d="M1533,943.46c-.24,0-.73-50.31-1-112.55s0-112.55.24-112.55.73,50.31,1,112.55C1533.23,893.15,1533.23,943.46,1533,943.46Z"/><path class="cls-1" d="M1567.64,817.56a2.38,2.38,0,0,1-.49,1.19c-.48,1-.73,1.91-1.45,3.34a24.22,24.22,0,0,0-1,2.38c-.24.95-.73,1.91-1,2.86-.49,1-.73,2.15-1.21,3.34s-.73,2.39-1.21,3.82a136.65,136.65,0,0,0-4.36,18.83,216.87,216.87,0,0,0-2.43,23.37,329.12,329.12,0,0,0,1.21,42.92q.73,8.24,1.46,12.88c.24,1.43.24,2.62.48,3.58v1.19a2.89,2.89,0,0,1-.24-1.19c-.24-1-.24-2.15-.48-3.58-.49-3.1-1.22-7.39-1.7-12.88a257.07,257.07,0,0,1-1.45-42.92,221.23,221.23,0,0,1,2.42-23.6,181.31,181.31,0,0,1,4.6-18.84c.49-1.19.73-2.63,1.21-3.82a18.45,18.45,0,0,0,1.22-3.34c.48-1,.72-1.9,1.21-2.86a20.14,20.14,0,0,1,1.21-2.38c.72-1.19,1.21-2.39,1.69-3.1C1567.39,817.79,1567.64,817.32,1567.64,817.56Z"/><path class="cls-1" d="M1563.52,776.78a7.75,7.75,0,0,0-.49,1.67c-.48,1.19-1,2.62-1.69,4.77a32,32,0,0,1-1.21,3.34c-.49,1.19-.73,2.62-1.22,4.05q-1.46,4.29-2.9,10c-.49,1.9-1,3.81-1.46,5.72-.48,2.14-1,4-1.45,6.44-1,4.29-1.94,9.06-2.91,14.07-1.7,10-3.15,21-4.36,32.66-1,11.69-1.45,22.9-1.45,32.91,0,10.25,0,19.32.48,27,.24,3.81.49,7.39.49,10.25.24,3.1.48,5.72.48,7.87.24,2.15.24,3.81.48,5v1.67a4.12,4.12,0,0,1-.24-1.67c-.24-1.2-.24-2.86-.48-5s-.49-4.77-.73-7.87-.48-6.44-.73-10.25c-.48-7.63-.72-16.93-.72-27,0-10.25.48-21.46,1.45-33.14s2.67-22.9,4.36-32.91c1-5,1.94-9.78,2.91-14.07.48-2.15,1-4.29,1.45-6.44.49-1.91,1.21-4,1.7-5.72,1-3.82,2.18-6.92,3.15-10,.48-1.43,1-2.86,1.45-4a26.76,26.76,0,0,0,1.21-3.34c.73-1.91,1.46-3.58,1.94-4.53A8.16,8.16,0,0,1,1563.52,776.78Z"/><path class="cls-1" d="M1523.05,952.52V952a4.59,4.59,0,0,0-.24-1.66c0-1.67-.24-3.82-.48-6.68-.49-6-1-14.31-1.46-24.56-1.45-20.75-3.39-49.36-6.78-80.84-1.7-15.74-3.88-30.76-6.06-44.35-1.21-6.68-2.18-13.12-3.39-19.08s-2.18-11.68-3.39-16.69c-1-5-2.18-9.54-3.15-13.59s-1.7-7.39-2.43-10.26-1.21-5-1.69-6.43a12.51,12.51,0,0,0-.49-1.67v-.48a.73.73,0,0,0,.25.48,14.43,14.43,0,0,1,.48,1.67c.49,1.67,1,3.81,1.94,6.43.73,2.87,1.7,6.2,2.66,10.26s2.19,8.58,3.15,13.59c1.22,5,2.43,10.73,3.4,16.69,1.21,6,2.42,12.4,3.39,19.08,2.18,13.59,4.36,28.61,6.3,44.35,3.63,31.48,5.33,60.09,6.54,80.84.48,10.25,1,18.84,1.21,24.56,0,2.86.24,5,.24,6.68v2.14Z"/><path class="cls-2" d="M1531.53,742.68c-.72-7.15-8-12.64-15.26-12.64s-14,4.29-18.41,10-7,12.64-9,19.55c-4.85,16.93-7.51,34.58-5.57,51.75,2.18,17.4,9.21,34.57,21.8,46.73,1.94,1.91,4.85,4.06,7.52,3.34a8.2,8.2,0,0,0,3.87-2.38c25-22.18,39.25-55.32,38.28-88.23-.24-6.68-1-13.59-4.84-19.08-3.39-5.48-11.87-11.21-18.42-9.06"/><path class="cls-2" d="M1477.26,685.45c-3.39,6.2-6.78,12.16-10.18,18.36-.24.48-.48,1-1,1a1.62,1.62,0,0,1-1.22-1c-9-13.59-18.17-27.42-27.13-41l6.3-3.58Z"/><path class="cls-3" d="M1532.26,718.36c-30.77-17.89-61.78-35.77-92.55-53.65a3.89,3.89,0,0,1-2.19-2.15c-.48-1.43.73-2.62,1.7-3.58,12.84-12.87,31.26-20.5,49.43-19.07,18.17,1.19,35.86,11.68,44.58,27.42,9,15.5,9.21,36.24-1,51"/><path class="cls-1" d="M1453,647.54a4.23,4.23,0,0,0,1.21-.24c.73,0,1.94-.24,3.39-.24a99.52,99.52,0,0,1,12.85,1,81.67,81.67,0,0,1,18.17,5.49,77.89,77.89,0,0,1,19.62,12.64A74.87,74.87,0,0,1,1522.81,684a71.68,71.68,0,0,1,7.27,17.41,51,51,0,0,1,2.18,12.4,19.34,19.34,0,0,1,.24,3.34v1.19s-.24-1.67-.48-4.53a75.86,75.86,0,0,0-2.67-12.4,75.1,75.1,0,0,0-22-34.82A78.1,78.1,0,0,0,1470,648.49a121.32,121.32,0,0,0-12.6-1.43C1454.73,647.54,1453,647.78,1453,647.54Z"/><path class="cls-1" d="M1519.66,681.4c0,.24-1.69,1-4.6,2.14s-7,2.63-11.63,4.06-8.72,2.62-11.87,3.34-5.09,1.19-5.09.95,1.94-.72,4.84-1.67c3.4-1,7.27-2.38,11.88-3.58,4.36-1.43,8.23-2.62,11.63-3.81C1517.72,681.87,1519.66,681.16,1519.66,681.4Z"/><path class="cls-1" d="M1505.12,642.77c.25,0,1,4.53,1.22,10.25s-.25,10.25-.49,10.25-.48-4.53-.48-10.25C1505.12,647.54,1504.88,643,1505.12,642.77Z"/><path class="cls-1" d="M1439,663.75c0-.24,2.42-1,6.78-2.38,4.12-1.19,10.18-2.86,16.48-4.53,6.54-1.43,12.6-2.63,16.72-3.58,4.36-.72,7-1.19,7-1s-2.66.71-7,1.67-10.18,2.14-16.72,3.81c-6.54,1.43-12.36,3.1-16.72,4.05C1441.64,663.27,1439,664,1439,663.75Z"/><path class="cls-4" d="M1489.62,725.75c-8-6-16.48-7.15-26.41-6.68s-19.63,3.34-28.84,7.4c-15.5,6.67-30.28,16.69-39.49,30.76s-12.6,32.67-5.57,47.93c.72,1.43,1.69,3.1,3.15,3.81,1.69.72,3.63.24,5.33-.48,17.69-5.72,35.62-11.44,51.85-20.26s31.26-21.23,40-37.44a29.12,29.12,0,0,0,4.12-12.4c.24-4.77-1-9.54-4.12-12.64"/><path class="cls-1" d="M1489.86,723.84a9.87,9.87,0,0,1-1.21.48c-1,.24-2.18.72-3.64,1.19a18.82,18.82,0,0,0-2.66,1,25.26,25.26,0,0,0-3.15,1.19c-2.18,1-4.85,1.67-7.51,3.1-1.46.71-2.91,1.19-4.36,1.91s-2.91,1.43-4.61,2.38c-3.15,1.67-6.54,3.58-9.93,5.48a186.41,186.41,0,0,0-21.08,15.27,145,145,0,0,0-18.17,18.6,109,109,0,0,0-6.79,9.06l-2.9,4.29a36.16,36.16,0,0,0-2.43,4c-1.69,2.63-2.9,5-4.12,6.92-.48.95-1.21,1.91-1.69,2.86a12.27,12.27,0,0,0-1.21,2.62c-.73,1.43-1.22,2.63-1.7,3.58A13.53,13.53,0,0,0,1392,809a9.25,9.25,0,0,0,.49-1.19,27.43,27.43,0,0,0,1.45-3.58,23.54,23.54,0,0,1,1.21-2.62l1.46-2.86c1.21-2.15,2.42-4.53,3.87-7.16.73-1.19,1.7-2.62,2.43-4l2.9-4.29a111.28,111.28,0,0,1,6.79-9.06,163.56,163.56,0,0,1,18.17-18.84,148.22,148.22,0,0,1,21.32-15.26c3.39-1.91,6.79-4.06,9.94-5.49,1.69-.71,3.15-1.67,4.6-2.38s2.91-1.19,4.36-1.91a62.52,62.52,0,0,1,7.75-2.86c1.22-.48,2.19-.72,3.15-1.19,1-.24,1.94-.48,2.67-.72,1.45-.48,2.91-.71,3.88-1Z"/><path class="cls-1" d="M1427.59,757c0,.24-8.48,3.1-19.38,6.2-10.66,3.1-19.63,5.48-19.63,5,0-.24,8.48-3.1,19.38-6.2C1418.63,759.13,1427.59,756.75,1427.59,757Z"/><path class="cls-1" d="M1426.86,799.19c-.24,0-.24-2.38-.48-6v-14.3c.24-5.49.48-10.73.73-14.31a50.32,50.32,0,0,1,.72-6c.24,0,.24,2.38,0,6-.24,4-.24,8.82-.48,14.31s-.24,10.25-.49,14.3A37.82,37.82,0,0,1,1426.86,799.19Z"/><path class="cls-1" d="M1463.45,780.83c-.24,0-1.21-10.25-2.18-23.13-1-12.63-1.45-23.13-1-23.13.24,0,1.21,10.26,2.18,23.13C1463.21,770.34,1463.69,780.83,1463.45,780.83Z"/><path class="cls-1" d="M1417.9,733.62c0-.24,2.42-.24,6.3-.24s9.21.24,15,.24c5.82.24,11.15.48,15,.71s6.3.48,6.06.48c0,.24-2.42.24-6.3.24s-9.21-.24-15-.24c-5.82-.24-11.15-.48-15-.71C1420.08,734.1,1417.9,733.86,1417.9,733.62Z"/><path class="cls-1" d="M1509.24,863.1a4.11,4.11,0,0,0-.24-1.19,20.46,20.46,0,0,0-.24-3.58,117.24,117.24,0,0,1,0-13.11c0-5.49.48-12.16,1.21-19.56s1.7-15.26,3.15-23.6,3.39-16.22,5.33-23.37,3.88-13.36,5.82-18.6,3.39-9.54,4.6-12.4a23,23,0,0,1,1.45-3.34,10.33,10.33,0,0,1,.49-1.19,4.17,4.17,0,0,1-.24,1.19c-.25.95-.73,1.91-1.22,3.34-1.21,2.86-2.66,7.15-4.36,12.4s-3.63,11.68-5.57,18.6c-1.94,7.15-3.63,15-5.09,23.37s-2.66,16.21-3.39,23.6-1.21,13.83-1.45,19.56c-.25,5.48-.25,10-.25,13.11v3.58A1.58,1.58,0,0,1,1509.24,863.1Z"/><path class="cls-1" d="M1514.09,800.86a36.26,36.26,0,0,1-3.64,4.06c-2.42,2.38-5.81,5.48-9.69,8.82s-7.51,6.2-10.17,8.35-4.36,3.1-4.61,3.1c0-.24,1.46-1.43,4.12-3.58,2.91-2.38,6.3-5.25,9.94-8.58s7-6.2,9.93-8.59A37.24,37.24,0,0,1,1514.09,800.86Z"/><path class="cls-1" d="M1543.41,824c-.25,0-1.7-1.9-3.88-5.24-2.42-3.58-5.57-8.11-9.21-13.12s-6.78-9.3-9.45-13.11c-2.42-3.34-3.87-5.49-3.63-5.49,0,0,1.7,1.91,4.36,5s6.06,7.63,9.69,12.88c3.64,5,6.79,9.77,9,13.35S1543.65,824,1543.41,824Z"/><path class="cls-1" d="M1528.14,751c.24.24-9.45,6.67-21.8,14.3-12.12,7.63-22,13.83-22.3,13.6s9.45-6.68,21.81-14.31C1518,756.75,1527.9,750.79,1528.14,751Z"/><path class="cls-1" d="M1555.52,780.12c-.24.24-6.78-5.72-14.78-13.36s-14-13.83-14-14.06c.24-.24,6.78,5.72,14.78,13.35S1555.76,779.88,1555.52,780.12Z"/><path class="cls-3" d="M1562.55,779.64l8.24-.71a43.55,43.55,0,0,0,17-5,58.48,58.48,0,0,1,7.75-3.82c10.42-4.05,21.81-3.34,33-3.81a141.16,141.16,0,0,0,52.34-13.12A4.71,4.71,0,0,0,1683,751c1.69-3.1-1.46-5.73-4.12-7.4-14-8.58-28.35-17.16-44.34-21.46s-34.16-3.57-47.73,5.73c-15.75,10.49-21.57,32.9-24.23,51.74"/><path class="cls-1" d="M1683.45,749.83l-1.45-.71a35.55,35.55,0,0,1-3.88-2.15c-3.39-1.67-8.48-4.29-14.54-7.39a147.13,147.13,0,0,0-22.53-8.58,78.43,78.43,0,0,0-29.32-2.39c-10.41,1.43-19.86,5.25-26.65,11.21s-10.9,13.11-13.81,19.31a143.82,143.82,0,0,0-6.06,15,28.89,28.89,0,0,0-1.45,4.05,7.77,7.77,0,0,1-.48,1.43,3.65,3.65,0,0,1,.48-1.43c.24-1,.73-2.38,1.21-4.29a152.77,152.77,0,0,1,5.82-15.26c2.9-6.2,7-13.59,14-19.79,6.78-6.2,16.72-10.26,27.38-11.69a76.19,76.19,0,0,1,29.8,2.39c9,2.38,16.48,6,22.78,8.82,6.3,3.1,11.14,5.72,14.53,7.63,1.7,1,2.91,1.67,3.88,2.15C1683,749.6,1683.45,749.83,1683.45,749.83Z"/><path class="cls-1" d="M1663.34,760.33c-.24.23-11.14-6.68-24.47-15.5s-24-16.22-23.74-16.46,11.14,6.68,24.47,15.5C1652.92,752.93,1663.58,760.09,1663.34,760.33Z"/><path class="cls-1" d="M1652.92,727.42c0,.24-3.63,1.19-8.48,1.67s-8.72.24-8.72-.24c0-.24,3.88-.48,8.48-1C1649.05,727.66,1652.68,727.18,1652.92,727.42Z"/><path class="cls-1" d="M1604,718.84c.24.23-1.45,3.33-3.63,7.15s-4.37,6.68-4.61,6.44,1.46-3.34,3.64-7.16S1603.5,718.6,1604,718.84Z"/><path class="cls-1" d="M1613.67,766.76c0,.24-2.18-1-5.33-2.86a126.15,126.15,0,0,1-11.87-7.87c-4.6-3.33-8.48-6.43-11.39-8.58a46.24,46.24,0,0,1-4.6-3.82c0-.23,1.94,1.2,5.09,3.1,3.39,2.39,7.26,5.25,11.63,8.35,4.6,3.34,8.72,6.2,11.63,8.11C1612,765.33,1613.67,766.53,1613.67,766.76Z"/><path class="cls-4" d="M1574.66,814.46c-8-2.15-17.44,5.48-19.14,13.59-1.69,7.87,1.46,16,4.85,23.37,7.75,16.21,18.65,31.23,33,42.44s32.22,18.36,50.4,18.36c-3.4-15.5,1-31.47-1-47.21a61.16,61.16,0,0,0-17.93-36.25,62.52,62.52,0,0,0-37.07-17.4c-5.09-.72-10.91-1.43-13.09,3.1"/><path class="cls-1" d="M1644,912a12.29,12.29,0,0,0-1.21-.47,30.57,30.57,0,0,1-2.91-1.91,31.68,31.68,0,0,1-7.75-10.25c-1.22-2.39-2.67-5-4.12-7.87s-2.67-6-4.36-9.3a67.63,67.63,0,0,0-5.33-10c-2.19-3.34-4.61-6.44-7.27-9.77-5.58-6.2-11.39-11.69-16.48-16.93a124.19,124.19,0,0,1-12.6-14.79,48,48,0,0,1-6.06-11.44,15.21,15.21,0,0,1-1-3.34,4.2,4.2,0,0,1-.24-1.2,35.17,35.17,0,0,0,1.7,4.3,62,62,0,0,0,6.3,11.2,123.65,123.65,0,0,0,12.6,14.55c5.09,5.25,10.9,10.49,16.47,16.93a68,68,0,0,1,7.27,9.78,80.64,80.64,0,0,1,5.33,10c1.46,3.34,2.91,6.44,4.12,9.3,1.46,2.86,2.67,5.49,3.88,8.11a32.92,32.92,0,0,0,7.51,10.49A19.84,19.84,0,0,0,1644,912Z"/><path class="cls-1" d="M1602.77,899.35c-.24,0,0-2.15.73-5.25.72-3.34,1.69-7.63,2.9-12.4,1.46-4.77,2.91-9.06,4.12-12.16s1.94-5,2.18-4.77c.25,0-.48,1.91-1.45,5s-2.42,7.39-3.64,12.16c-1.45,4.77-2.42,9.3-3.39,12.4A42.19,42.19,0,0,1,1602.77,899.35Z"/><path class="cls-1" d="M1642.26,861.43c0,.24-2.18-.48-5.57-1.19-3.39-1-8.24-2.15-13.33-3.34-5.33-1.19-10.17-2.15-13.56-2.62-3.4-.72-5.58-1-5.58-1.19s2.18,0,5.82.47,8.48,1.19,13.57,2.39c5.33,1.19,9.93,2.62,13.32,3.57A24.93,24.93,0,0,1,1642.26,861.43Z"/><path class="cls-1" d="M1573.21,872.4c-.24,0,.24-2.38,1-6.2a143.92,143.92,0,0,1,3.39-14.54c1.45-5.73,3.15-10.74,4.36-14.31s2.18-5.73,2.18-5.73c.24,0-.48,2.39-1.45,6s-2.42,8.58-4.12,14.3c-1.45,5.49-2.67,10.73-3.63,14.31A51.12,51.12,0,0,1,1573.21,872.4Z"/><path class="cls-1" d="M1624.09,828.52c0,.24-9.93-.47-22.29-1.66-12.12-1.2-22-2.63-22-2.87s9.93.48,22.29,1.67C1614.16,827.09,1624.09,828.29,1624.09,828.52Z"/><path class="cls-5" d="M1616.82,947.28c0,.23-34.89.47-78,.47s-78-.24-78-.47,34.89-.48,78-.48S1616.82,947,1616.82,947.28Z"/><path class="cls-5" d="M1592.59,991.63c0,.24-23.5.48-52.58.48s-52.57-.24-52.57-.48,23.5-.48,52.57-.48C1568.85,990.91,1592.59,991.15,1592.59,991.63Z"/><path class="cls-5" d="M1593.32,997.83c0,.24-23.5.48-52.58.48s-52.58-.24-52.58-.48,23.51-.48,52.58-.48S1593.32,997.59,1593.32,997.83Z"/><path class="cls-5" d="M1593.32,986.38c0,.24-24.47.48-54.52.48s-54.51-.24-54.51-.48,24.47-.47,54.51-.47C1569.09,985.67,1593.32,985.91,1593.32,986.38Z"/></g><g id="Floor"><path class="cls-1" d="M19.86,1056.25c0,1.91,373.86,3.58,834.7,3.58,461.09,0,835-1.67,835-3.58s-373.62-3.58-834.95-3.58C393.72,1052.91,19.86,1054.34,19.86,1056.25Z"/></g><g id="Character_4" data-name="Character 4"><g id="ImagePC"><path class="cls-6" d="M1260.41,569.8h-267A24.11,24.11,0,0,1,969.17,546V447a24.11,24.11,0,0,1,24.23-23.85h267A24.12,24.12,0,0,1,1284.64,447v99A24.12,24.12,0,0,1,1260.41,569.8Z"/><path class="cls-7" d="M1097.34,510.19h-39.25a16.11,16.11,0,0,1-16.23-16V455.34a16.1,16.1,0,0,1,16.23-16h39.25a16.11,16.11,0,0,1,16.24,16V494A16,16,0,0,1,1097.34,510.19Z"/><path class="cls-8" d="M1095.89,468.46l-20.35,20a4.16,4.16,0,0,1-5.58,0l-10.41-10.26a4,4,0,0,1,0-5.48,4.15,4.15,0,0,1,5.57,0l7.75,7.63L1090.56,463a4.15,4.15,0,0,1,5.57,0C1097.34,464.88,1097.34,467.26,1095.89,468.46Z"/><path class="cls-9" d="M1195.47,510.19h-39.25a16.11,16.11,0,0,1-16.23-16V455.34a16.1,16.1,0,0,1,16.23-16h39.25a16.11,16.11,0,0,1,16.24,16V494C1212,503,1204.68,510.19,1195.47,510.19Z"/><path class="cls-8" d="M1194,468.46l-20.35,20a4.16,4.16,0,0,1-5.58,0l-10.42-10.26a4,4,0,0,1,0-5.48,4.16,4.16,0,0,1,5.58,0l7.75,7.63L1188.69,463a4.15,4.15,0,0,1,5.57,0C1195.47,464.88,1195.47,467.26,1194,468.46Z"/><path class="cls-10" d="M1060.27,525.69V551h-2.66V525.69Z"/><path class="cls-10" d="M1085,550.72h-2.67l-14-21v21h-2.67V525.45h2.67l14,21.22V525.45H1085Z"/><path class="cls-10" d="M1109.46,527.36a13.72,13.72,0,0,1,4.36,6h-2.67a7.61,7.61,0,0,0-3.39-4.3,9.28,9.28,0,0,0-5.81-1.66,11.1,11.1,0,0,0-4.85,1.19,9.63,9.63,0,0,0-3.39,3.57,13.92,13.92,0,0,0-1.21,5.49,13,13,0,0,0,1.21,5.48,8.2,8.2,0,0,0,3.39,3.58,8.65,8.65,0,0,0,4.85,1.19,8.79,8.79,0,0,0,5.81-1.67,11.51,11.51,0,0,0,3.39-4.29h2.67a10.06,10.06,0,0,1-4.36,6A12.69,12.69,0,0,1,1102,550a11.33,11.33,0,0,1-6.3-1.67,13,13,0,0,1-4.36-4.53,16,16,0,0,1,0-13.35,10,10,0,0,1,4.36-4.54,11.33,11.33,0,0,1,6.3-1.66C1104.85,525.21,1107.52,525.92,1109.46,527.36Z"/><path class="cls-10" d="M1120.85,548.58h9.2v2.14h-11.87V525.45h2.67Z"/><path class="cls-10" d="M1136.11,525.69V541c0,2.62.49,4.77,1.7,6a6.81,6.81,0,0,0,4.84,1.91,6.44,6.44,0,0,0,4.85-1.91c1.21-1.19,1.69-3.34,1.69-6V525.69h2.67V541c0,3.34-.73,6-2.42,7.63a10.1,10.1,0,0,1-13.57,0c-1.7-1.67-2.42-4.29-2.42-7.63V525.69Z"/><path class="cls-10" d="M1177.06,544.76a10,10,0,0,1-4.61,4.29,16.27,16.27,0,0,1-7.26,1.44h-7.76v-25h7.76c4.36,0,7.75,1.19,9.93,3.34,2.42,2.14,3.39,5.24,3.39,9.3A11.87,11.87,0,0,1,1177.06,544.76Zm-3.88,1.19a11.46,11.46,0,0,0,0-15.26c-1.94-1.9-4.6-2.62-8.24-2.62h-5.08v20.51h5.08A15.16,15.16,0,0,0,1173.18,546Z"/><path class="cls-10" d="M1185.78,527.36v9.53h9.93v1.91h-9.93v9.54h11.15v2.38h-13.57V525.45h13.57v2.14h-11.15Z"/><path class="cls-11" d="M1230.36,427H1023.2c-20.11,0-36.58-16-36.58-36h0a36.37,36.37,0,0,1,36.58-35.77h206.92c20.11,0,36.59,16,36.59,36h0C1266.71,411.23,1250.47,427,1230.36,427Z"/><path class="cls-12" d="M1226.73,432.21H1019.81c-20.11,0-36.59-16-36.59-36h0c0-19.79,16.24-36,36.59-36h206.92c20.11,0,36.58,16,36.58,36h0C1263.31,416,1246.84,432.21,1226.73,432.21Z"/><polygon class="cls-13" points="1204.44 1045.28 1205.89 1053.63 1138.78 1053.63 1140.23 1045.28 1204.44 1045.28"/><polygon class="cls-13" points="1216.79 953.48 1210.49 964.45 1133.93 964.45 1126.9 954.43 1216.79 953.48"/><polygon class="cls-14" points="1210.49 964.45 1204.44 1045.28 1140.23 1045.28 1133.93 964.45 1210.49 964.45"/><path class="cls-13" d="M1209.77,976.37l.24-1.91-3.15,2.62-9.93-8.1,5.57-4.54h-2.42l-4.37,3.58-4.36-3.58h-2.9l5.81,4.77-9.69,7.87-9.69-8.1,5.81-4.77h-2.42l-4.36,3.57-4.36-3.57h-2.43l5.82,4.77-9.69,8.1-9.69-7.87,5.81-4.77h-2.66l-4.37,3.58-4.36-3.58h-2.42l5.57,4.54-9.93,8.1-5.33-4.53-.24.48v1l4.6,3.82-4.12,3.34.24,2.14,5.09-4.29,9.69,7.87L1141.2,995l-4.36-3.58.24,1.91,3.15,2.62-2.67,2.39.25,1.9,3.87-3.1,9.69,8.11-9.93,8.11-2.91-2.39.25,1.67,1.69,1.43-1.45,1.2.24,1.9,2.67-2.14,9.93,8.1-10.18,8.35-1.45-1.19v1.43l.24.24-.24.24.24,1.67,1.21-1,9.94,8.11-5.09,4.29h1.94l4.12-3.34,4.12,3.34h1.69l-5.09-4,10.18-8.35,9.93,8.11-5.08,4.29h1.93l4.12-3.34,4.12,3.34h1.94l-5.09-4.29,9.94-8.11,10.17,8.35-5.09,4h1.7l4.12-3.34,4.12,3.34h1.94l-5.09-4.29,8.72-7.15v-1.44l-9.69,8.11-10.18-8.34,9.94-8.11,9.93,8.11.24-1.67-9-7.4,9.93-8.1.25.24.24-2.15-.24.24-9.94-8.11,9.69-8.11,1.7,1.2.24-1.91-.48-.48.48-.48.24-1.9-1.69,1.43-9.94-8.11,9.7-7.87,2.9,2.39.24-2.15-1.69-1.43Zm-15.51,10.73-9.69,8.11-9.93-8.11,9.69-8.11Zm-21.81,18.12-9.93,8.11-9.93-8.11,9.93-8.11Zm-9-9.06,9.93-8.11,9.94,8.11-9.94,8.11Zm9.93,9.78,9.94,8.1-9.94,8.11-9.93-8.11Zm1.22-.72,9.93-8.11,9.93,8.11-9.93,8.11Zm-1.22-35.05,9.7,8.11-9.7,8.1-9.69-8.1Zm-10.9,9.06,9.69,8.11-9.93,8.1-9.69-8.1Zm-20.84-1,9.94-8.11,9.69,7.87-9.93,8.1Zm-.24,17.88,9.94-8.11,9.69,8.11-9.94,8.11Zm0,18.12,9.94-8.11,9.93,8.11-9.93,8.11Zm9.94,26-9.94-8.1,10.18-8.35,9.93,8.11Zm11.14-8.82-9.93-8.11,9.93-8.1,9.93,8.1Zm10.9,8.82-9.93-8.1,9.93-8.11,9.94,8.11Zm11.15-8.82-9.93-8.11,9.93-8.1,9.93,8.1Zm20.84-17.17-9.94,8.11-9.93-8.11,9.93-8.11Zm0-18.12-9.7,8.11-9.93-8.11,9.69-8.11Zm-9.94-10-9.93-8.1,9.69-7.87,9.93,8.11Z"/><polygon class="cls-15" points="1126.9 954.43 1129.33 958.01 1184.57 958.01 1180.45 1045.28 1181.66 1053.63 1201.29 1053.63 1199.59 1045.28 1205.89 964.45 1207.83 957.77 1214.86 956.81 1216.79 953.48 1126.9 954.43"/><path class="cls-6" d="M1149.44,244.31h-267a24.11,24.11,0,0,1-24.23-23.85V125.8A24.11,24.11,0,0,1,882.43,102h267a24.12,24.12,0,0,1,24.23,23.85v94.42A24.16,24.16,0,0,1,1149.44,244.31Z"/><path class="cls-16" d="M938.16,190.89H898.9a16.1,16.1,0,0,1-16.23-16V136.29a16.11,16.11,0,0,1,16.23-16h39.26a16.11,16.11,0,0,1,16.23,16v38.63A16.1,16.1,0,0,1,938.16,190.89Z"/><path class="cls-8" d="M936.7,149.64l-20.35,20a4.15,4.15,0,0,1-5.57,0l-10.42-10.25a4,4,0,0,1,0-5.49,4.15,4.15,0,0,1,5.57,0l7.75,7.63,17.69-17.4a4.15,4.15,0,0,1,5.57,0A4.25,4.25,0,0,1,936.7,149.64Z"/><path class="cls-7" d="M1036.29,190.89H997a16.1,16.1,0,0,1-16.23-16V136.29a16.11,16.11,0,0,1,16.23-16h39.26a16.11,16.11,0,0,1,16.23,16v38.63A16.1,16.1,0,0,1,1036.29,190.89Z"/><path class="cls-8" d="M1034.83,149.64l-20.35,20a4.15,4.15,0,0,1-5.57,0l-10.42-10.25a4,4,0,0,1,0-5.49,4.15,4.15,0,0,1,5.57,0l7.75,7.63,17.69-17.4a4.15,4.15,0,0,1,5.57,0A4.25,4.25,0,0,1,1034.83,149.64Z"/><path class="cls-10" d="M949.54,204.49v25.27h-2.66V204.49Z"/><path class="cls-10" d="M974,229.76h-2.67l-14.05-21v21h-2.67V204.49h2.67l14.05,21.22V204.49H974Z"/><path class="cls-10" d="M998.49,206.63a13.77,13.77,0,0,1,4.36,6h-2.67a7.62,7.62,0,0,0-3.39-4.29,9.29,9.29,0,0,0-5.81-1.67,11.24,11.24,0,0,0-4.85,1.19,9.73,9.73,0,0,0-3.39,3.58,13.92,13.92,0,0,0-1.21,5.49,13,13,0,0,0,1.21,5.48,8.2,8.2,0,0,0,3.39,3.58,8.65,8.65,0,0,0,4.85,1.19,8.85,8.85,0,0,0,5.81-1.67,11.51,11.51,0,0,0,3.39-4.29h2.67a10.06,10.06,0,0,1-4.36,6,12.69,12.69,0,0,1-7.51,2.15,11.33,11.33,0,0,1-6.3-1.67,13.22,13.22,0,0,1-4.36-4.53,16,16,0,0,1,0-13.36,9.91,9.91,0,0,1,4.36-4.53,11.33,11.33,0,0,1,6.3-1.67C993.88,204.25,996.55,205,998.49,206.63Z"/><path class="cls-10" d="M1010.12,227.85h9.2v1.91h-11.87V204.49h2.67v23.36Z"/><path class="cls-10" d="M1025.14,204.49v15.26c0,2.62.48,4.77,1.7,6a6.81,6.81,0,0,0,4.84,1.91,6.44,6.44,0,0,0,4.85-1.91c1.21-1.19,1.69-3.34,1.69-6V204.49h2.67v15.26c0,3.34-.73,6-2.42,7.63a10.1,10.1,0,0,1-13.57,0c-1.7-1.67-2.43-4.29-2.43-7.63V204.49Z"/><path class="cls-10" d="M1066.09,223.8a10,10,0,0,1-4.61,4.29,16.28,16.28,0,0,1-7.26,1.43h-7.76V204.25h7.76c4.36,0,7.75,1.19,9.93,3.34,2.42,2.14,3.39,5.24,3.39,9.3A10.22,10.22,0,0,1,1066.09,223.8Zm-3.64.95a11.46,11.46,0,0,0,0-15.26c-1.94-1.9-4.6-2.62-8.23-2.62h-5.09v20.75h5.09C1057.61,227.62,1060.51,226.66,1062.45,224.75Z"/><path class="cls-10" d="M1075.05,206.63v9.54H1085v1.91h-9.94v9.54h11.15v2.14h-13.57V204.49h13.57v2.14Z"/><path class="cls-11" d="M1119.39,106.24H912.47c-20.11,0-36.58-16-36.58-36h0c0-19.8,16.23-36,36.58-36h206.92c20.11,0,36.59,16,36.59,36h0C1156,90,1139.5,106.24,1119.39,106.24Z"/><path class="cls-12" d="M1116,111H909.08c-20.11,0-36.59-16-36.59-36h0c0-19.79,16.24-36,36.59-36H1116c20.11,0,36.59,16,36.59,36h0A36.43,36.43,0,0,1,1116,111Z"/><path class="cls-6" d="M1607.61,412.66h-267a24.11,24.11,0,0,1-24.23-23.85V294.15a24.11,24.11,0,0,1,24.23-23.85h267a24.11,24.11,0,0,1,24.23,23.85v94.66A24.11,24.11,0,0,1,1607.61,412.66Z"/><path class="cls-16" d="M1399.73,362.34h-39.26a16.1,16.1,0,0,1-16.23-16V307.74a16.11,16.11,0,0,1,16.23-16h39.26a16.11,16.11,0,0,1,16.23,16v38.63A16.1,16.1,0,0,1,1399.73,362.34Z"/><path class="cls-8" d="M1398.27,321.09l-20.35,20a4.15,4.15,0,0,1-5.57,0l-10.42-10.25a4,4,0,0,1,0-5.49,4.15,4.15,0,0,1,5.57,0l7.75,7.63,17.69-17.4a4.15,4.15,0,0,1,5.57,0A4.25,4.25,0,0,1,1398.27,321.09Z"/><path class="cls-9" d="M1497.86,362.34H1458.6a16.1,16.1,0,0,1-16.23-16V307.74a16.11,16.11,0,0,1,16.23-16h39.26a16.11,16.11,0,0,1,16.23,16v38.63A16.1,16.1,0,0,1,1497.86,362.34Z"/><path class="cls-8" d="M1496.4,321.09l-20.35,20a4.15,4.15,0,0,1-5.57,0l-10.42-10.25a4,4,0,0,1,0-5.49,4.15,4.15,0,0,1,5.57,0l7.75,7.63,17.69-17.4a4.15,4.15,0,0,1,5.57,0A4.25,4.25,0,0,1,1496.4,321.09Z"/><path class="cls-10" d="M1411.11,377.84v25.28h-2.66V377.84Z"/><path class="cls-10" d="M1435.83,403.12h-2.67l-14.05-21v21h-2.67V377.84h2.67l14.05,21.23V377.84h2.67Z"/><path class="cls-10" d="M1460.3,379.75a13.77,13.77,0,0,1,4.36,6H1462a7.61,7.61,0,0,0-3.4-4.29,9.29,9.29,0,0,0-5.81-1.67,11.27,11.27,0,0,0-4.85,1.19,9.73,9.73,0,0,0-3.39,3.58,13.91,13.91,0,0,0-1.21,5.48,13,13,0,0,0,1.21,5.49,8.2,8.2,0,0,0,3.39,3.58,8.67,8.67,0,0,0,4.85,1.19,8.85,8.85,0,0,0,5.81-1.67,11.64,11.64,0,0,0,3.4-4.29h2.66a10.06,10.06,0,0,1-4.36,6,12.66,12.66,0,0,1-7.51,2.14,11.35,11.35,0,0,1-6.3-1.66,13.16,13.16,0,0,1-4.36-4.54,16,16,0,0,1,0-13.35,9.91,9.91,0,0,1,4.36-4.53,11.36,11.36,0,0,1,6.3-1.67C1455.7,377.61,1458.36,378.32,1460.3,379.75Z"/><path class="cls-10" d="M1471.93,401.21h9.21v1.91h-11.88V377.84h2.67v23.37Z"/><path class="cls-10" d="M1487,377.84V393.1c0,2.63.49,4.77,1.7,6a6.82,6.82,0,0,0,4.84,1.9,6.42,6.42,0,0,0,4.85-1.9c1.21-1.2,1.7-3.34,1.7-6V377.84h2.66V393.1c0,3.34-.73,6-2.42,7.64a10.1,10.1,0,0,1-13.57,0c-1.7-1.67-2.42-4.3-2.42-7.64V377.84Z"/><path class="cls-10" d="M1527.9,397.16a10,10,0,0,1-4.6,4.29,16.46,16.46,0,0,1-7.27,1.43h-7.76V377.61H1516c4.36,0,7.75,1.19,9.93,3.33,2.42,2.15,3.39,5.25,3.39,9.3A10.52,10.52,0,0,1,1527.9,397.16Zm-3.88.95a11.46,11.46,0,0,0,0-15.26c-1.93-1.91-4.6-2.62-8.23-2.62h-5.09V401h5.09C1519.42,401,1522.33,400,1524,398.11Z"/><path class="cls-10" d="M1536.86,380v9.54h9.94v1.91h-9.94V401H1548v2.15h-13.57V377.84H1548V380Z"/><path class="cls-11" d="M1581.2,279.6H1374.29c-20.11,0-36.59-16-36.59-36h0c0-19.79,16.23-36,36.59-36H1581.2c20.12,0,36.59,16,36.59,36h0C1617.79,263.38,1601.32,279.6,1581.2,279.6Z"/><path class="cls-12" d="M1577.57,284.37H1370.65c-20.11,0-36.59-16-36.59-36h0c0-19.79,16.24-36,36.59-36h206.92c20.11,0,36.59,16,36.59,36h0C1614.16,268.39,1597.92,284.37,1577.57,284.37Z"/><path class="cls-8" d="M539.82,178.49a120.18,120.18,0,0,0-12.84,1A140.43,140.43,0,0,0,479,106c-25.44-20.74-57.91-31.95-91.1-31.95a144,144,0,0,0-117.76,60.33A92.33,92.33,0,0,0,259,133.9c-62.52,0-113.4,49.84-113.4,111.6S196.25,357.1,259,357.1H539.58c49.92,0,90.62-40.06,90.62-89.18S589.74,178.49,539.82,178.49Z"/><path class="cls-9" d="M475.86,231.67H428.61a13.18,13.18,0,0,1-13.32-13.11V171.82a13.18,13.18,0,0,1,13.32-13.12h47.25a13.19,13.19,0,0,1,13.33,13.12v46.5A13.08,13.08,0,0,1,475.86,231.67Z"/><path class="cls-8" d="M471,188.75l-21.08,20.74a3.72,3.72,0,0,1-5.57,0l-10.9-10.73a3.58,3.58,0,0,1,0-5.48,3.72,3.72,0,0,1,5.57,0l8,7.87,18.17-17.89a3.72,3.72,0,0,1,5.57,0C472.71,184.93,472.71,187.56,471,188.75Z"/><path class="cls-7" d="M342.6,216.65H295.35A13.19,13.19,0,0,1,282,203.53V157a13.18,13.18,0,0,1,13.33-13.11H342.6A13.18,13.18,0,0,1,355.92,157v46.5C356.17,210.69,350.11,216.65,342.6,216.65Z"/><path class="cls-8" d="M338,174l-21.08,20.75a3.72,3.72,0,0,1-5.57,0L300.44,184a3.59,3.59,0,0,1,0-5.49,3.74,3.74,0,0,1,5.57,0l8,7.87,18.17-17.88a3.72,3.72,0,0,1,5.57,0A4.25,4.25,0,0,1,338,174Z"/><path class="cls-16" d="M255.13,310.12H207.88A13.18,13.18,0,0,1,194.56,297v-46.5a13.18,13.18,0,0,1,13.32-13.12h47.25a13.19,13.19,0,0,1,13.33,13.12V297A13.34,13.34,0,0,1,255.13,310.12Z"/><path class="cls-8" d="M250,267.44,229,288.18a3.72,3.72,0,0,1-5.57,0l-10.9-10.73a3.58,3.58,0,0,1,0-5.48c1.69-1.43,4.11-1.67,5.57,0l8,7.87L244.23,262a3.72,3.72,0,0,1,5.57,0A3.79,3.79,0,0,1,250,267.44Z"/><path class="cls-17" d="M418.44,339.93H371.19a13.19,13.19,0,0,1-13.33-13.12V280.32a13.19,13.19,0,0,1,13.33-13.12h47.25a13.18,13.18,0,0,1,13.32,13.12v46.26C432,333.73,425.7,339.93,418.44,339.93Z"/><path class="cls-8" d="M413.59,297l-21.08,20.74a3.72,3.72,0,0,1-5.57,0L376,307a3.59,3.59,0,0,1,0-5.48,3.73,3.73,0,0,1,5.58,0l8,7.87,18.17-17.89a3.73,3.73,0,0,1,5.58,0A3.8,3.8,0,0,1,413.59,297Z"/><path class="cls-18" d="M580.53,297.25H533.28A13.18,13.18,0,0,1,520,284.13v-46.5a13.18,13.18,0,0,1,13.32-13.11h47.25a13.18,13.18,0,0,1,13.33,13.11v46.5C594.34,291.28,588.28,297.25,580.53,297.25Z"/><path class="cls-8" d="M575.93,254.56l-21.08,20.75a3.73,3.73,0,0,1-5.58,0l-10.9-10.73a3.59,3.59,0,0,1,0-5.49,3.72,3.72,0,0,1,5.57,0l8,7.87,18.17-17.88a3.72,3.72,0,0,1,5.57,0A3.77,3.77,0,0,1,575.93,254.56Z"/><path class="cls-17" d="M1131.75,190.89H1092.5a16.11,16.11,0,0,1-16.24-16V136.29a16.11,16.11,0,0,1,16.24-16h39.25a16.11,16.11,0,0,1,16.23,16v38.63C1148.23,183.74,1140.71,190.89,1131.75,190.89Z"/><path class="cls-8" d="M1130.3,149.64l-20.36,20a4.15,4.15,0,0,1-5.57,0L1094,159.42a4,4,0,0,1,0-5.49,4.15,4.15,0,0,1,5.57,0l7.76,7.63,17.69-17.4a4.15,4.15,0,0,1,5.57,0A4.27,4.27,0,0,1,1130.3,149.64Z"/><path class="cls-18" d="M1594.29,363.06H1555a16.11,16.11,0,0,1-16.24-16V308.45a16.11,16.11,0,0,1,16.24-16h39.25a16.1,16.1,0,0,1,16.23,16v38.63C1610.76,355.67,1603.5,363.06,1594.29,363.06Z"/><path class="cls-8" d="M1592.83,321.57l-20.35,20a4.15,4.15,0,0,1-5.57,0l-10.42-10.26a4,4,0,0,1,0-5.48,4.15,4.15,0,0,1,5.57,0l7.76,7.63,17.68-17.41a4.16,4.16,0,0,1,5.58,0A4.26,4.26,0,0,1,1592.83,321.57Z"/><line class="cls-19" x1="563.57" y1="190.89" x2="858.2" y2="173.25"/><line class="cls-19" x1="619.3" y1="267.92" x2="1316.38" y2="342.55"/><line class="cls-19" x1="588.77" y1="342.55" x2="965.78" y2="484.19"/></g><path class="cls-20" d="M654.67,666.14c-5.81-8.59-6.54-20-6.54-20H608.64s-.49,11.44-6.55,20c-5.81,8.58-18.41,13.83-18.41,13.83H672.6C672.84,680,660.49,674.72,654.67,666.14Z"/><path class="cls-20" d="M823.07,639.91a12.82,12.82,0,0,1-12.84,12.63H445.33a12.82,12.82,0,0,1-12.84-12.63V403.36a12.82,12.82,0,0,1,12.84-12.64h364.9a12.83,12.83,0,0,1,12.84,12.64Z"/><path class="cls-21" d="M432.49,616.3v23.61a12.82,12.82,0,0,0,12.84,12.63h364.9a12.82,12.82,0,0,0,12.84-12.63V616.3Z"/><path class="cls-22" d="M799.56,603H455a8.11,8.11,0,0,1-8.24-8.11V411.7a8.1,8.1,0,0,1,8.24-8.1H799.56a8.1,8.1,0,0,1,8.24,8.1V594.84A8.11,8.11,0,0,1,799.56,603Z"/><path class="cls-23" d="M797.14,423.63a5.44,5.44,0,0,0-5.57-5.49H466.17a5.45,5.45,0,0,0-5.58,5.49v15.74H797.38l-.24-15.74Z"/><path class="cls-8" d="M460.35,439.37V582.92a5.44,5.44,0,0,0,5.58,5.48h325.4a5.43,5.43,0,0,0,5.57-5.48V439.37Z"/><path class="cls-22" d="M822.1,420.29a5.25,5.25,0,0,1,1,1.43V419.1A2.49,2.49,0,0,1,822.1,420.29Z"/><path class="cls-22" d="M629.23,643.48h-1.94a9.38,9.38,0,0,1-9.45-9.3v-1.9a9.39,9.39,0,0,1,9.45-9.3h1.94a9.38,9.38,0,0,1,9.45,9.3v1.9A9.54,9.54,0,0,1,629.23,643.48Z"/><rect class="cls-23" x="560.66" y="481.81" width="135.93" height="2.38"/><rect class="cls-23" x="492.58" y="457.01" width="272.82" height="5.48"/><rect class="cls-23" x="560.18" y="489.44" width="136.41" height="2.38"/><rect class="cls-23" x="560.18" y="474.42" width="136.41" height="2.38"/><rect class="cls-23" x="560.18" y="497.07" width="136.41" height="2.38"/><rect class="cls-23" x="560.18" y="504.7" width="136.41" height="2.38"/><rect class="cls-23" x="560.18" y="512.09" width="136.41" height="2.38"/><rect class="cls-23" x="560.18" y="519.72" width="136.41" height="2.38"/><rect class="cls-23" x="560.18" y="527.36" width="136.41" height="2.38"/><rect class="cls-23" x="560.18" y="534.75" width="73.66" height="2.38"/><path class="cls-22" d="M755.71,428.87a4.06,4.06,0,0,1-4.12,4.06,3.92,3.92,0,0,1-4.12-4.06,4.12,4.12,0,0,1,8.24,0Z"/><path class="cls-22" d="M771.94,428.87a4.12,4.12,0,1,1-4.12-4.05A4.4,4.4,0,0,1,771.94,428.87Z"/><path class="cls-22" d="M788.18,428.87a4.12,4.12,0,1,1-4.12-4.05A4.21,4.21,0,0,1,788.18,428.87Z"/><path class="cls-23" d="M546.61,576.72H500.33a7.75,7.75,0,0,1-7.75-7.64V481.81a7.75,7.75,0,0,1,7.75-7.63h46.52a7.74,7.74,0,0,1,7.75,7.63v87.27A8,8,0,0,1,546.61,576.72Z"/><path class="cls-23" d="M757.16,576.72H710.64a7.75,7.75,0,0,1-7.75-7.64V481.81a7.75,7.75,0,0,1,7.75-7.63h46.52a7.75,7.75,0,0,1,7.76,7.63v87.27A7.92,7.92,0,0,1,757.16,576.72Z"/><g id="Desk"><polygon class="cls-1" points="1297.24 1053.87 1257.02 705.48 1223.09 717.4 1278.58 1053.87 1297.24 1053.87"/><rect class="cls-5" x="290.02" y="677.58" width="1024.18" height="44.11"/><path class="cls-1" d="M1097.34,678.3a.7.7,0,0,0,.25.47,14.21,14.21,0,0,1,1,1.44,19.43,19.43,0,0,0,5.09,4,30.2,30.2,0,0,0,9.94,3.34,83.92,83.92,0,0,0,13.81.71,158.16,158.16,0,0,0,16.72-1.9,146,146,0,0,1,18.9-2.15c13.32-.48,28.1,3.1,42.64,8.11,14.54,5.24,28.35,11,41.43,14.54a93.92,93.92,0,0,0,18.9,3.58,78.38,78.38,0,0,0,16.72,0,60.42,60.42,0,0,0,23-7.15,33.07,33.07,0,0,0,7-5.25.74.74,0,0,0-.48.24c-.49.24-.73.71-1.46.95a36.12,36.12,0,0,1-5.57,3.58c-4.84,2.86-12.6,5.72-22.77,6.68a96.38,96.38,0,0,1-16.48,0,118.88,118.88,0,0,1-18.66-3.82c-12.84-3.58-26.65-9.54-41.19-14.55-14.53-5.24-29.31-8.58-43.12-8.1-6.79.24-13.09,1.43-19.15,2.38-5.81,1-11.38,1.91-16.47,1.91a61.26,61.26,0,0,1-13.57-.48,25.48,25.48,0,0,1-9.69-3.1A24.26,24.26,0,0,1,1097.34,678.3Z"/><path class="cls-1" d="M1209.28,679a36.5,36.5,0,0,0,3.15,2.63,65.21,65.21,0,0,0,9.45,6,77.49,77.49,0,0,0,15.27,6.2,86.42,86.42,0,0,0,19.87,3.1c14.53.47,27.37-3.1,35.61-7.16,4.12-2.14,7.27-4.77,8.73-6.91a15.55,15.55,0,0,0,1.45-2.62,3.78,3.78,0,0,0,.24-1c-.24,0-.48,1.43-2.18,3.34-1.45,2.15-4.36,4.53-8.72,6.44a78.39,78.39,0,0,1-35.38,6.67,96.33,96.33,0,0,1-19.62-2.86,120,120,0,0,1-15.27-5.72c-4.12-2.15-7.27-4-9.45-5.48C1210.49,679.73,1209.28,678.77,1209.28,679Z"/><path class="cls-1" d="M968.93,706.91a7.77,7.77,0,0,1-1.7.48,27.82,27.82,0,0,1-4.84,1.19,27.48,27.48,0,0,1-17.93-2.86v.48a44.9,44.9,0,0,1,22.29-8.59A42.25,42.25,0,0,1,995.58,705c1,.72,2.18,1.67,2.18,2.87.24,1.19-.73,2.14-1.94,2.86a19,19,0,0,1-3.87,1.43c-1.46.24-2.91.71-4.37,1-5.81,1.19-11.87,2.63-18.17,3.58A104.73,104.73,0,0,1,950,717.88a71.27,71.27,0,0,1-9.94-1,28.8,28.8,0,0,1-4.84-1,35.58,35.58,0,0,1-4.85-1.43,14.65,14.65,0,0,1-6.3-4.53c-1.45-1.91-2.18-4.53-1.21-6.67.73-2.15,2.91-4.06,4.85-5.25a36.18,36.18,0,0,1,6.78-3.34A93.72,93.72,0,0,1,962.87,689a119.47,119.47,0,0,1,48.46,7.39,121.5,121.5,0,0,1,29.32,15.74,79,79,0,0,1,7,5.72c.73.72,1.46,1.19,1.7,1.43a3.2,3.2,0,0,1,.73.48l-.49-.48-1.69-1.67a81,81,0,0,0-7-5.72,123.16,123.16,0,0,0-29.32-16.21,117.16,117.16,0,0,0-48.94-7.64,96.84,96.84,0,0,0-28.84,5.73,37.65,37.65,0,0,0-7,3.34,12.84,12.84,0,0,0-5.33,6,7.8,7.8,0,0,0,1.45,7.87,15.35,15.35,0,0,0,6.79,4.77,41.77,41.77,0,0,0,5.08,1.66,38.26,38.26,0,0,0,5.09,1,73,73,0,0,0,10.18.95,104.94,104.94,0,0,0,19.62-1.43q9.45-1.43,18.18-3.58c1.45-.23,2.9-.71,4.36-.95a15.46,15.46,0,0,0,4.36-1.43,10.64,10.64,0,0,0,1.7-1.43,4,4,0,0,0,.72-2.39c-.24-1.66-1.69-2.86-2.66-3.57a44.71,44.71,0,0,0-29.56-7.39A42.94,42.94,0,0,0,944.21,706l-.48.24.48.24a28.61,28.61,0,0,0,18.42,2.62A22.33,22.33,0,0,0,968.93,706.91Z"/><path class="cls-1" d="M837.12,679.49a9.56,9.56,0,0,0-1,2.15,17,17,0,0,0-.73,6.67c.25,5.73,3.88,13.12,9.94,19.32a56.19,56.19,0,0,0,9.2,7.87,50.62,50.62,0,0,0,9,4.29,33.47,33.47,0,0,0,6.54,1.67,16.52,16.52,0,0,0,2.42.24c0-.24-3.39-.72-8.72-2.63a38.3,38.3,0,0,1-8.72-4.53,43.36,43.36,0,0,1-9-7.63c-6.05-6-9.44-13.11-9.93-18.36C835.67,682.59,837.36,679.49,837.12,679.49Z"/><path class="cls-1" d="M653.22,719.31a31.45,31.45,0,0,1,4.6-4.53,33,33,0,0,1,16-7.15,34.56,34.56,0,0,1,12.12.24c4.36.71,9.21,1.9,14.29,1.19,5.33-.48,9.94-3.58,14.3-6.92a53,53,0,0,1,14.29-8.34c10.91-3.82,22.3-3.1,31.74-.48,9.7,2.62,17.45,7.39,23.51,11.68a111.61,111.61,0,0,1,13.57,11.45l3.39,3.34,1.21,1.19a5.1,5.1,0,0,0-1-1.19,41.38,41.38,0,0,0-3.39-3.58,101.33,101.33,0,0,0-13.33-11.92,75.73,75.73,0,0,0-23.74-12.16c-9.69-2.86-21.32-3.58-32.47.48a48.4,48.4,0,0,0-14.54,8.58c-4.36,3.34-8.72,6.2-13.57,6.68s-9.69-.48-14.05-1.2a37.49,37.49,0,0,0-12.6-.23,26.85,26.85,0,0,0-20.35,12.87Z"/><path class="cls-1" d="M488.94,678.06a7,7,0,0,0,1.21,1.43c.73,1,1.94,2.38,3.4,4a98.94,98.94,0,0,0,15,13.12,112.9,112.9,0,0,0,25.92,14.07A85.9,85.9,0,0,0,551.21,716a80,80,0,0,0,18.66,2.39,98.39,98.39,0,0,0,35.62-7.16,122.55,122.55,0,0,0,25.92-14.3,109.38,109.38,0,0,0,14.78-13.12,31.29,31.29,0,0,0,3.39-4,13.4,13.4,0,0,1,1.22-1.43,13.4,13.4,0,0,0-1.22,1.43,46.11,46.11,0,0,1-3.63,3.81,116.83,116.83,0,0,1-15,12.88,126.4,126.4,0,0,1-25.69,14.07,95.89,95.89,0,0,1-35.13,7.15,77.82,77.82,0,0,1-18.41-2.38A87.94,87.94,0,0,1,535.22,710a122.28,122.28,0,0,1-25.92-13.83,101.16,101.16,0,0,1-15-12.64c-1.69-1.67-2.9-3.1-3.63-3.81Z"/><path class="cls-1" d="M512.45,677.58a7.1,7.1,0,0,0,1,.72,18.89,18.89,0,0,0,2.67,1.67c2.42,1.43,5.81,3.57,10.18,5.72a107.87,107.87,0,0,0,16.23,6.44,73.39,73.39,0,0,0,21.08,3.57c15.51,0,28.59-5,37.56-9.29a66.13,66.13,0,0,0,10.17-6c1.21-.71,1.94-1.43,2.67-1.9.48-.48,1-.72.72-.72a39.06,39.06,0,0,0-3.63,2.15c-2.42,1.43-5.82,3.34-10.18,5.48-9,4.06-22,8.82-37.07,8.82-7.51,0-14.54-1.66-20.84-3.33a122.12,122.12,0,0,1-16.23-6.2c-4.36-2.15-8-4.06-10.42-5.25Z"/><path class="cls-1" d="M408.26,682.11h1.21c1,0,1.94-.24,3.39-.24a9.6,9.6,0,0,0,2.43-.23h9.93c1.21,0,2.66.23,4.12.23,1.45.24,2.91.24,4.36.48,3.15.24,6.3,1,9.69,1.43a163,163,0,0,1,21.32,6.2,141.26,141.26,0,0,1,20.11,9.78c2.91,1.91,5.82,3.58,8.24,5.24,1.21,1,2.42,1.67,3.64,2.63a36.45,36.45,0,0,1,3.15,2.62,57.28,57.28,0,0,1,5.33,4.53,15,15,0,0,0,2.18,1.91l1.69,1.67,2.43,2.38a4.07,4.07,0,0,0,1,.72,6.44,6.44,0,0,1-.73-1c-.49-.71-1.21-1.43-2.18-2.62-.49-.48-1-1.19-1.7-1.91s-1.45-1.19-2.18-1.9a55.13,55.13,0,0,0-5.33-4.77,36.48,36.48,0,0,0-3.15-2.63c-1.21-.95-2.42-1.67-3.63-2.62-2.43-1.91-5.33-3.58-8.24-5.48a129.84,129.84,0,0,0-41.68-16c-3.39-.48-6.54-1.19-9.69-1.43-1.45-.24-2.91-.24-4.36-.48a22.4,22.4,0,0,1-4.12-.24c-2.66-.23-5.09,0-7,0a11.93,11.93,0,0,0-2.91.24c-1,0-1.7.24-2.43.24-1.21.24-2.42.24-3.39.48Z"/><path class="cls-1" d="M364.4,673.53v.71a9.49,9.49,0,0,0,.25,2.39,29.94,29.94,0,0,0,2.42,8.34c2.91,6.92,9.45,15.5,19.14,21.7s19.87,9.3,26.89,11.21c3.64,1,6.55,1.67,8.49,2.15s3.15.71,3.15.71a15.82,15.82,0,0,0-3.15-1c-2.19-.72-5.09-1.43-8.49-2.62-7-2.15-17-5.49-26.41-11.45s-16-14.31-18.89-21C364.65,678.06,364.65,673.29,364.4,673.53Z"/><path class="cls-1" d="M634.8,718.36c.25,0,1.46-2.62,5.58-6.68A55.1,55.1,0,0,1,661,700.24a130,130,0,0,1,16-3.58c5.82-.95,12.12-1.67,18.9-2.86a133.49,133.49,0,0,0,20.35-5c7-2.15,14.3-4.29,21.81-5.25,15.27-1.9,30.05,1.2,42.4,5.73a140.51,140.51,0,0,1,17.21,7.63q8,3.93,14.53,7.87c8.73,5,15.75,9.06,20.6,11.92,2.42,1.43,4.12,2.62,5.57,3.34.49.24,1,.71,1.45,1a.78.78,0,0,0,.49.24l-.49-.48a15.39,15.39,0,0,1-1.45-1c-1.21-.72-3.15-2.15-5.33-3.58-4.85-3.1-11.63-7.39-20.59-12.4q-6.55-3.93-14.54-7.87c-5.33-2.62-11.15-5.48-17.45-7.87-12.6-4.53-27.38-7.86-43.13-6-7.75,1-15,3.1-22,5.25a141.21,141.21,0,0,1-20.36,5c-6.54,1.19-12.84,1.9-18.9,2.86a136.3,136.3,0,0,0-16.23,3.57c-9.69,3.1-16.72,7.87-20.59,11.93A54.33,54.33,0,0,0,634.8,718.36Z"/><path class="cls-1" d="M865.47,678.3a25.86,25.86,0,0,0,.24,2.86,30.14,30.14,0,0,0,1.94,7.39,44,44,0,0,0,15.75,19.79,95.07,95.07,0,0,0,23.26,10.5c3.15.95,5.57,1.66,7.51,2.14,1.7.48,2.66.72,2.91.48a17.05,17.05,0,0,0-2.67-1c-1.94-.71-4.36-1.66-7.27-2.62-6-2.38-14.54-5.48-23-10.73a43.57,43.57,0,0,1-15.5-19.08C866,682.35,865.71,678.3,865.47,678.3Z"/><path class="cls-1" d="M1103.4,721.7a17.35,17.35,0,0,0-2.42-2.39c-1.7-1.43-4.12-3.57-7.27-6a208.2,208.2,0,0,0-26.17-16.45c-10.66-5.73-20.59-10.26-27.86-13.59-3.64-1.67-6.54-2.87-8.48-3.82a14.4,14.4,0,0,0-3.15-1.19A21.87,21.87,0,0,0,1031,680c2.19,1.19,5.09,2.38,8.49,4,7,3.58,17,8.11,27.62,13.83a243.05,243.05,0,0,1,26.16,16.22c3.15,2.38,5.82,4.29,7.52,5.48A9.38,9.38,0,0,0,1103.4,721.7Z"/><path class="cls-1" d="M1054.94,680c0,.24,2.42-.24,6.54,0a47.62,47.62,0,0,1,17.21,5c6.78,3.34,14,8.83,22.29,14.55a141.47,141.47,0,0,0,13.32,8.58,70.72,70.72,0,0,0,16,6c11.38,2.86,22.53,3.57,32.71,3.81s19.14,0,26.89.48a134,134,0,0,1,17.93,1.67c2.18.47,3.63.71,4.85,1a10.2,10.2,0,0,0,1.69.24,7.51,7.51,0,0,0-1.69-.48c-1-.24-2.67-.71-4.85-1.19a122.72,122.72,0,0,0-17.93-2.15c-7.75-.47-16.72-.23-26.89-.71s-21.33-1.19-32.47-3.82a68.71,68.71,0,0,1-15.75-6,139.57,139.57,0,0,1-13.33-8.34c-8.24-6-15.5-11.21-22.53-14.55a47.17,47.17,0,0,0-17.45-4.77,25.29,25.29,0,0,0-4.84.24A4.23,4.23,0,0,1,1054.94,680Z"/><path class="cls-1" d="M416.25,677.34c0,.24,42.89.72,95.71.72s95.71-.24,95.71-.72c0-.23-42.89-.71-95.71-.71C458.9,676.87,416.25,677.11,416.25,677.34Z"/><path class="cls-20" d="M1299.17,658h0l-.24-.72h-134c-2.18,0-3.87,5-3.87,11s1.69,11,3.87,11h134.23c2.19,0,3.88-4.77,3.88-10.73C1303.05,662.8,1301.36,658,1299.17,658Z"/><path class="cls-21" d="M1293.36,661.13h-25.68c1.21,1.43,1.69,5,1.69,8.58s-.24,6.44-1.45,8.59h25.68c1.21,0,2.42-3.82,2.42-8.59C1295.78,664.94,1294.57,661.13,1293.36,661.13Z"/><path class="cls-21" d="M1170,669.24a22,22,0,0,1,1.7-8.83h-4.85c-1.21,0-2.42,3.82-2.42,8.59s1,8.58,2.42,8.58h4.61A21.46,21.46,0,0,1,1170,669.24Z"/><path class="cls-24" d="M1286.82,638.48H1180c-1.7,0-2.91,4-2.91,9.53s1.45,9.54,2.91,9.54h106.36V658h.49c1.69,0,2.91-4.53,2.91-10C1290,642.53,1288.51,638.48,1286.82,638.48Z"/><path class="cls-24" d="M1286.82,638.48H1180c-1.7,0-2.91,4.29-2.91,9.3h112.66C1290,642.53,1288.51,638.48,1286.82,638.48Z"/><path class="cls-25" d="M1183.36,648.25a16.3,16.3,0,0,1,1.94-8.34h-2.18c-1.22,0-2.43,3.81-2.43,8.58,0,4.53,1,8.59,2.43,8.59h2.18C1184.08,655.41,1183.36,651.83,1183.36,648.25Z"/><rect class="cls-8" x="1229.64" y="643.96" width="53.3" height="4.29"/><path class="cls-26" d="M1269.37,618.68h0v.48H1189.9v-.48c-2.18,0-2.42,4.3-2.42,9.78,0,5.25.24,9.54,2.42,9.78v.24h79.47v-.24h0c1.46,0,2.43-4.3,2.43-9.78C1271.8,623.21,1270.83,618.68,1269.37,618.68Z"/><path class="cls-12" d="M601.13,568.13H654A20.92,20.92,0,0,0,675,547.39V495.16A20.92,20.92,0,0,0,654,474.42H601.13a20.92,20.92,0,0,0-21.08,20.74v52C579.8,558.83,589.25,568.13,601.13,568.13Z"/><path class="cls-8" d="M606.46,555a4.73,4.73,0,0,1-2.19,2.14,7,7,0,0,1-3.39.72h-4.6V546.19h4.6a7.77,7.77,0,0,1,3.39.72,4.78,4.78,0,0,1,2.19,2.14,6.59,6.59,0,0,1,.72,3.1A5.08,5.08,0,0,1,606.46,555Zm-3.15-.48a3.44,3.44,0,0,0,0-4.77,4.46,4.46,0,0,0-2.67-.95h-1.45v6.67h1.45A3.92,3.92,0,0,0,603.31,554.54Z"/><path class="cls-8" d="M611.79,548.34v2.38h4.12v2.15h-4.12v2.62h4.6v2.39h-7.51V546.19h7.51v2.39h-4.6Z"/><path class="cls-8" d="M621,553.82v4.06h-2.9V546.19h4.6a4.15,4.15,0,0,1,3.15,1,3.9,3.9,0,0,1,1.21,2.86,4.51,4.51,0,0,1-.48,1.91,4.23,4.23,0,0,1-1.46,1.43,4.07,4.07,0,0,1-2.42.47Zm3.15-3.81a1.51,1.51,0,0,0-1.69-1.67H621v3.1h1.46C623.42,551.44,624.14,551,624.14,550Z"/><path class="cls-8" d="M631.41,555.73h3.88v2.15H628.5V546.19h2.91v9.54Z"/><path class="cls-8" d="M645.46,546.67a4.75,4.75,0,0,1,2.19,2.15,7,7,0,0,1,0,6.2,4.73,4.73,0,0,1-2.19,2.14,7.23,7.23,0,0,1-6.29,0A4.73,4.73,0,0,1,637,555a7,7,0,0,1,0-6.2,4.75,4.75,0,0,1,2.19-2.15,7.23,7.23,0,0,1,6.29,0Zm-5.33,2.86a4,4,0,0,0-.72,2.39,3.54,3.54,0,0,0,.72,2.38,3,3,0,0,0,4.37,0,4.2,4.2,0,0,0,1-2.38,3.55,3.55,0,0,0-.72-2.39,2.39,2.39,0,0,0-2.18-.95A2.86,2.86,0,0,0,640.13,549.53Z"/><path class="cls-8" d="M660.24,546.19l-4.11,7.87v3.82h-2.91v-3.82l-4.12-7.87h3.39l2.42,4.77,2.43-4.77Z"/></g><path class="cls-27" d="M478,977.8l-16.48,40.3s36.11,30,33.68,37.67l-80.44-28.61,23-63.67Z"/><path class="cls-28" d="M437.82,1005.7a3.24,3.24,0,1,0-.73,6.44c1.7.23,3.88-1.43,3.88-3.1s-1.7-3.58-3.15-3.34"/><g class="cls-29"><path class="cls-28" d="M414.8,1027.16l2.67-6.44,76.08,29.81s2.9,2.86,1.69,5.24Z"/></g><path class="cls-28" d="M463,1018.1c-.24.47-2.18-.24-4.61.47-2.42.48-4.12,1.91-4.36,1.43-.24-.23,1.21-2.38,4.12-2.86C460.84,1016.43,463,1017.62,463,1018.1Z"/><path class="cls-28" d="M470,1024.54c0,.47-1.93.47-3.87,1.66s-2.91,2.87-3.39,2.63c-.49,0,.24-2.39,2.66-3.82C467.86,1023.34,470.29,1024.06,470,1024.54Z"/><path class="cls-28" d="M471.26,1036.22c-.49,0-.25-2.15,1.45-3.82s3.88-1.9,3.88-1.66c0,.47-1.46,1.19-2.91,2.62C472.22,1034.55,471.74,1036.22,471.26,1036.22Z"/><path class="cls-28" d="M465.68,1008.56c-.24.24-1.94-.95-4.12-1.43-2.18-.72-4.36-.48-4.36-1-.24-.47,2.18-1.19,4.85-.47C464.47,1006.41,465.93,1008.32,465.68,1008.56Z"/><path class="cls-28" d="M468.83,1000.21c0,.24-1.69-.24-4.12-1.43a18.91,18.91,0,0,1-3.63-2.86,16.68,16.68,0,0,1-1.94-2.15c-.24-.47-.73-.71-1-1.43a1.87,1.87,0,0,1,.49-2.14,1.94,1.94,0,0,1,1.93-.24l1.46.71c.73.48,1.45,1.2,2.18,1.67a20.48,20.48,0,0,1,2.91,3.82c1.21,2.38,1.45,4.05,1.21,4.05s-.73-1.43-2.18-3.57a30.86,30.86,0,0,0-2.91-3.34c-.73-.48-1.21-1-1.94-1.43a2.15,2.15,0,0,0-1.94-.48c-.24,0-.24.24,0,.48,0,.24.49.71.73,1a13,13,0,0,0,1.7,1.91,31.89,31.89,0,0,0,3.39,2.86A18.84,18.84,0,0,0,468.83,1000.21Z"/><path class="cls-28" d="M468.11,1000.69c-.25,0-.49-1.67.24-4.29a13.36,13.36,0,0,1,2.18-4.06,15,15,0,0,1,1.94-2.14,3.68,3.68,0,0,1,3.39-1.19,2,2,0,0,1,1.21,1.66v1.67a8.3,8.3,0,0,1-1,2.63,11.87,11.87,0,0,1-3.15,3.57c-2.42,1.43-4.12,1.43-4.12,1.2s1.7-.48,3.39-2.15a9.73,9.73,0,0,0,2.67-3.34,6.93,6.93,0,0,0,.73-2.38c.24-1,0-1.67-.25-1.67-.48-.24-1.21.24-1.93.71a6.48,6.48,0,0,0-1.7,1.91,19.52,19.52,0,0,0-2.18,3.58C468.35,999,468.35,1000.69,468.11,1000.69Z"/><path class="cls-27" d="M402.2,970.41l-16.47,40.29s36.1,30,33.67,37.68L339,1019.77l23-63.67Z"/><path class="cls-28" d="M362.22,998.31a3.42,3.42,0,0,0-3.63,2.86,3.38,3.38,0,0,0,2.91,3.57c1.69.24,3.87-1.43,3.87-3.1s-1.69-3.57-3.15-3.33"/><g class="cls-29"><path class="cls-28" d="M339.21,1019.77l2.66-6.44,76.08,29.8s2.91,2.87,1.7,5.25Z"/></g><path class="cls-28" d="M387.18,1010.71c-.24.47-2.18-.24-4.6.47-2.43.48-4.12,1.91-4.37,1.43-.24-.24,1.22-2.38,4.12-2.86C385.24,1009,387.42,1010.47,387.18,1010.71Z"/><path class="cls-28" d="M394.45,1017.14c0,.48-1.94.48-3.88,1.67s-2.91,2.86-3.39,2.63c-.49,0,.24-2.39,2.66-3.82S394.45,1016.67,394.45,1017.14Z"/><path class="cls-28" d="M395.66,1028.83c-.48,0-.24-2.15,1.45-3.82s3.88-1.91,3.88-1.67c0,.48-1.45,1.2-2.91,2.63S395.9,1028.83,395.66,1028.83Z"/><path class="cls-28" d="M389.84,1001.17c-.24.24-1.93-1-4.11-1.43-2.18-.72-4.37-.48-4.37-1-.24-.47,2.19-1.19,4.85-.47S390.33,1000.93,389.84,1001.17Z"/><path class="cls-28" d="M393.24,993.06c0,.24-1.7-.24-4.12-1.43a19.35,19.35,0,0,1-3.64-2.86,18.1,18.1,0,0,1-1.93-2.15c-.25-.48-.73-.71-1-1.43a1.86,1.86,0,0,1,.48-2.15,2,2,0,0,1,1.94-.23l1.45.71c.73.48,1.46,1.19,2.18,1.67a19.85,19.85,0,0,1,2.91,3.82c1.21,2.38,1.45,4,1.21,4s-.72-1.43-2.18-3.58a31.68,31.68,0,0,0-2.91-3.34c-.72-.47-1.21-.95-1.93-1.43a2.18,2.18,0,0,0-1.94-.47c-.24,0-.24.23,0,.47,0,.24.48.72.72,1a14.19,14.19,0,0,0,1.7,1.9,31,31,0,0,0,3.39,2.87C391.78,992.11,393.24,992.82,393.24,993.06Z"/><path class="cls-28" d="M392.51,993.3c-.24,0-.48-1.67.24-4.29a13.46,13.46,0,0,1,2.18-4.06,15.65,15.65,0,0,1,1.94-2.14,3.7,3.7,0,0,1,3.39-1.2,2.08,2.08,0,0,1,1.21,1.67V985a8.38,8.38,0,0,1-1,2.62,11.92,11.92,0,0,1-3.15,3.58c-2.43,1.43-4.12,1.43-4.12,1.19s1.69-.47,3.39-2.14a9.6,9.6,0,0,0,2.66-3.34,6.78,6.78,0,0,0,.73-2.39c.24-1,0-1.66-.24-1.66-.49-.24-1.21.23-1.94.71a6.5,6.5,0,0,0-1.7,1.91A20.71,20.71,0,0,0,394,989C392.75,991.63,392.75,993.3,392.51,993.3Z"/><path class="cls-30" d="M346.72,449.14l7.75,61.76L342.6,539.52l47.24,1.67,9.7-22.42s23.5-2.62,24.23-17.41c.48-9.53-14.78-78-14.78-78Z"/><path class="cls-1" d="M362,522.82c-5.57-3.81-8.48-6.2-10.9-12.4s-4.12-12.63-6.79-18.59c-2.9-6.44-7-11.93-9.93-18.37s-4.36-13.83-1.45-20.26c0,0,1-8.11,12.11-11.21,0,0,6.3-17.41,20.84-19.08,19.62-2.14,19.14-7.87,32-12.64,12.12-4.53,16.72,6,16.72,6s8,3.58,9.69,10.74v.23a16.69,16.69,0,0,1-8,18.6c-.72.48-1.69,1-2.42,1.43-2.18,1.2-4.6,2.63-6.06,4.77-2.18,3.1-1.69,7.4-.72,11.21s2.42,7.39,1.69,11.21c-.24,1.19-1,2.86-2.18,2.86-1.69,0-1.94-2.15-2.42-3.58-1.45-4.29-7.75-6.44-11.15-2.38-2.18,2.62-2.42,6-.24,8.58,2.18,2.86,6.06,4.53,7.27,7.87,2.42,5.49-3.39,12.16-5.33,15.74a34.55,34.55,0,0,1-2.42,3.82,52.28,52.28,0,0,1-16.48,14.06c-4.6,2.87-10.9,3.58-15.51.72"/><path class="cls-1" d="M383.3,718.84l112.91,16.69A55.1,55.1,0,0,1,534,759.37h0A53.75,53.75,0,0,1,540.79,804l-59.6,187.19-53.79-20,33-165.49L285.66,794.19V718.6L383.3,715"/><path class="cls-1" d="M303.83,718.84l112.91,16.69a55.1,55.1,0,0,1,37.8,23.84h0A53.78,53.78,0,0,1,461.32,804l-52.09,176-60.09-15.73,31.74-158.82-116.79-7.63V722.17l39.5-7.39"/><path class="cls-31" d="M500.82,530.46l-5.09,9.29S480.46,541.66,481,530l6.54-7.87Z"/><path class="cls-30" d="M467.86,531.65l-3.15,9.06L473,554.54s11.87-3.34,6.79-13.83l-4.61-2.86s10.66-2.86,9.94-9.54l-1.7-1.67Z"/><polygon class="cls-30" points="472.95 554.54 470.77 575.05 496.45 576 494.52 555.25 472.95 554.54"/><path class="cls-30" d="M470.77,529.5l1-28.61a2.67,2.67,0,0,1,2.67-2.63h0a2.8,2.8,0,0,1,3.15,2.63l1.21,21,6.78-20a3.16,3.16,0,0,1,3.39-2.15h0a3.21,3.21,0,0,1,2.67,3.58l-4.12,18.6,13.33,8.35-6.3,25L473,554.54Z"/><path class="cls-27" d="M469.8,563.36C467.86,564.79,456,659.7,456,659.7l46.28-6.92,2.42-82.26S488.22,549.77,469.8,563.36Z"/><path class="cls-27" d="M280.09,557.16c12.84-18.36,34.64-24.56,42.15-26.23a17,17,0,0,1,4.85-.47h65.42a45.73,45.73,0,0,1,31.74,12.39,153.45,153.45,0,0,1,25,31.72l33,45.07L502.27,653l-4.12,5c-9.69,11.92-26.41,16.69-40.71,10.25-6.78-3.1-11.63-8.82-16-15.26-8.23-11.92-17-24.8-22.53-34.81L386,711l17.69,11L329.27,751.5,252,718.84,273.3,644h0s-33.92,3.34-37.07-9.78S264.58,579.34,280.09,557.16Z"/><path class="cls-32" d="M287.84,591c-5.82,9.06-10.66,18.6-15.51,28.14-.72,1.19-2.42.24-1.94-1.19a223,223,0,0,1,16-27.66c.72-.72,1.93,0,1.45.71Z"/><path class="cls-32" d="M272.33,585.78c-5.81,9.06-10.66,18.6-15.5,28.13-.73,1.2-2.43.24-1.94-1.19a222.43,222.43,0,0,1,16-27.66c.73-.95,1.94-.24,1.45.72Z"/><path class="cls-32" d="M302.62,593.17c-3.15,12.4-5.82,25-8,37.67-.24,1.67-3.15,1-2.66-.71a256.59,256.59,0,0,1,9.45-37.44c.24-.47,1.45-.24,1.21.48Z"/><path class="cls-32" d="M337.75,596.75c-3.88,12.16-5.57,24.8-6.3,37.43,0,1.67-2.91,1.67-2.91,0,.49-13.11,3.4-25.51,7.76-37.91.24-.72,1.69-.24,1.45.48Z"/><path class="cls-32" d="M308.92,627.27c3.88-11.92,7.27-22.66,8.48-35.29.24-1.67,2.66-1.67,2.66,0-.24,12.16-3.15,25.51-9.69,35.77-.48.71-1.69.23-1.45-.48Z"/><path class="cls-32" d="M353.26,597.7a159.85,159.85,0,0,1-5.33,35.53,1.27,1.27,0,1,1-2.43-.72q3.28-17.52,6.55-35c0-.71,1.21-.48,1.21.24Z"/><path class="cls-32" d="M372.16,599.85c-3.15,13.11-5.58,26.23-8,39.34-.24,1.19-2.42.95-2.18-.24a202.7,202.7,0,0,1,9.45-39.34c-.24-.48.73-.24.73.24Z"/><path class="cls-32" d="M389.12,603c-.24,12.16-1,24.56-4.12,36.48-.24,1.19-2.18.71-1.94-.48,1.7-11.92,3.88-23.84,4.36-35.77.24-1.19,1.7-1.19,1.7-.23Z"/><path class="cls-32" d="M443.88,636.33c-10.18-9.54-19.39-21.46-27.87-32.43-.72-.95,1-2.15,1.7-1.43,9.21,10.49,19.38,21.46,26.65,33.14.49.48,0,1-.48.72Z"/><path class="cls-32" d="M456,625.6c-9.45-7.87-17.69-18.36-23.74-28.85-.73-1.2,1.21-2.39,1.93-1.2,7,10.26,15,19.56,22.78,29.1.48.71-.24,1.43-1,1Z"/><path class="cls-32" d="M448.72,591c6.79,7.63,13.81,15,20.35,22.89,1,1-.48,2.63-1.45,1.44-6.78-7.64-13.08-15.74-19.62-23.37-.49-.72.24-1.67.72-1Z"/><path class="cls-32" d="M406.56,604.85c-2.9,12.16-4.6,24.33-7.27,36.49a1.12,1.12,0,0,1-2.18-.24c1.46-12.4,4.85-24.56,7.76-36.72a.88.88,0,1,1,1.69.47Z"/><g class="cls-33"><path d="M307.46,630.84c5.34-.23,10.42,2.87,13.82,6.92s5.57,9.06,7.26,14.07a144.47,144.47,0,0,1,7.76,49.6c0,5.24-.24,11,3.87,14.31,3.4,2.86,8.48,2.62,12.6,4.29,6.79,2.62,12.36,11.44,10.42,18.12L325.88,752Z"/></g><path class="cls-1" d="M349.38,708.34c0,.24,1.46,1,4.36,1.67a55,55,0,0,0,10.91,1.67,48.14,48.14,0,0,0,10.9-.71,22.52,22.52,0,0,0,4.36-1.2c0-.47-6.78,1.2-15.26.72C356.17,710.25,349.62,708.1,349.38,708.34Z"/><polygon class="cls-5" points="483.86 808.97 513.66 1054.34 500.81 1054.34 469.32 808.97 483.86 808.97"/><polygon class="cls-5" points="365.62 808.97 338.24 1054.34 324.18 1054.34 350.83 808.97 365.62 808.97"/><polyline class="cls-5" points="218.54 808.97 196.01 1054.34 180.26 1054.34 206.19 808.97 225.09 808.97"/><path class="cls-5" d="M294.62,598.18H184.38a17,17,0,0,0-17,19.31l26.17,179.08A14.55,14.55,0,0,0,208.12,809H350.84Z"/><path class="cls-5" d="M498.63,809c-.24-2.62,0-16.21,0-16.21L362,795.38A20.81,20.81,0,0,1,340.9,778L313.76,614.39a19.19,19.19,0,0,0-19.14-16h0l29.81,184.33a31.64,31.64,0,0,0,31.49,26.47L498.63,809Z"/><path class="cls-1" d="M294.62,598.18v.47c0,.48.25,1,.25,1.67.24,1.67.48,3.58,1,6.44,1,5.72,2.19,13.59,3.64,23.37,3.15,19.79,7.51,46.74,12.11,76.78,2.43,15,4.85,29.33,6.79,42.21,1,6.44,2.18,12.64,3.15,18.36a133.35,133.35,0,0,0,3.39,16,49.29,49.29,0,0,0,5.57,12.4,30.29,30.29,0,0,0,7,7.39,20.22,20.22,0,0,0,5.81,3.1l2.18.71c0-.23-3.15-.71-7.51-4s-9.45-10-12.11-19.55c-1.45-4.77-2.18-10-3.15-16-1-5.72-1.94-11.92-2.91-18.36-2.18-13.12-4.36-27.18-6.78-42.21-4.85-29.8-9.45-57-12.6-76.78-1.7-9.78-2.91-17.65-3.88-23.13-.48-2.62-1-4.77-1.21-6.2a4.64,4.64,0,0,1-.24-1.67C294.62,598.41,294.62,598.18,294.62,598.18Z"/><path class="cls-1" d="M288.32,599.37c.25.24,3.15-4,6.55-9.3s5.81-9.78,5.57-10-3.15,4.06-6.54,9.3C290.75,594.84,288.08,599.13,288.32,599.37Z"/><path class="cls-1" d="M496.21,639.19c.24-.24-3.63-6-8.48-13.11-5.09-6.92-9.21-12.64-9.69-12.4-.24.23,3.63,6,8.48,13.11C491.61,633.71,496,639.19,496.21,639.19Z"/><path class="cls-1" d="M404.14,595.79l1.45,2.86c1.22,1.91,2.67,4.3,4.37,7.4,3.63,6.2,9,14.54,15,23.84,6,9.06,11.63,17.41,16,23.13,2.18,2.86,3.88,5.25,5.09,6.92a20.06,20.06,0,0,0,1.94,2.38,23.19,23.19,0,0,0-1.7-2.62c-1.21-1.91-2.91-4.29-4.85-7.16-4.12-6-9.69-14.06-15.75-23.36-5.81-9.07-11.14-17.41-15.26-23.61-1.94-3.1-3.63-5.49-4.6-7.15C404.87,596.51,404.14,595.55,404.14,595.79Z"/><ellipse class="cls-34" cx="871.77" cy="635.61" rx="28.59" ry="5.72"/><path class="cls-12" d="M871.77,641.1c-15.75,0-28.59-2.62-28.59-5.72l8.72,45.06c0,3.1,9,5.73,20.11,5.73s20.11-2.63,20.11-5.73l8.72-45.06C900.6,638.71,887.76,641.1,871.77,641.1Z"/><path class="cls-11" d="M871.77,639.67c-17,0-26.65-2.86-27.38-4.29.73-1.44,10.17-4.06,27.38-4.06s26.65,2.86,27.38,4.29C898.42,637,888.73,639.67,871.77,639.67Z"/><path class="cls-35" d="M849.48,637.52c4.6,1.19,12.11,2.15,22.29,2.15s17.69-1,22.29-2.15c-4.6-1.19-12.12-2.14-22.29-2.14A129.45,129.45,0,0,0,849.48,637.52Z"/><path class="cls-11" d="M890.18,642.77l-6.78,39.58c3.15-.71,5.09-1.43,5.57-2.14l7.51-38.87C894.54,641.81,892.36,642.29,890.18,642.77Z"/><path class="cls-36" d="M850.45,642.29a18.79,18.79,0,0,1-3.4-.95l7.51,38.87a6.67,6.67,0,0,0,2.67,1.43Z"/><path class="cls-11" d="M908.35,644.44a8.5,8.5,0,0,0-6.78-3.34h-2.18l-1,5.72h3.15a2.56,2.56,0,0,1,2.18,1.19,2.9,2.9,0,0,1,.49,2.39L902.05,658a19,19,0,0,1-8.23,11l-1.46,6.91a24.89,24.89,0,0,0,15-16.69l2.19-7.63A7.08,7.08,0,0,0,908.35,644.44Z"/></g><path class="cls-8" d="M81.78,26.16,73.72,57.37H70L62.21,30.63,54.37,57.37H50.65l-8-31.21h3.45l6.51,27.36,7.88-27.36h3.5l7.88,27.41,6.55-27.41Z"/><path class="cls-8" d="M86.58,24.47a2.43,2.43,0,0,1,1.66-.57,2.32,2.32,0,0,1,1.64.57A2,2,0,0,1,90.5,26a1.94,1.94,0,0,1-.62,1.51,2.33,2.33,0,0,1-1.64.58,2.43,2.43,0,0,1-1.66-.58A2,2,0,0,1,85.94,26,2,2,0,0,1,86.58,24.47Zm3.21,8.73V57.37H86.65V33.2Z"/><path class="cls-8" d="M107.51,54.63v2.74h-2.88a7.28,7.28,0,0,1-5.23-1.66q-1.73-1.65-1.72-5.6V35.9H94V33.2h3.68V27.09h3.14V33.2h6.64v2.7h-6.64V50.16c0,1.71.31,2.88.93,3.52a4.53,4.53,0,0,0,3.28,1Z"/><path class="cls-8" d="M131.53,35.43q2.63,2.68,2.63,7.86V57.37h-3V43.52a8.46,8.46,0,0,0-2-6.05,7.14,7.14,0,0,0-5.44-2.1,7.48,7.48,0,0,0-5.78,2.32q-2.15,2.33-2.15,6.84V57.37H112.6V24.61h3.14V39.13a8.43,8.43,0,0,1,3.37-4.74,9.76,9.76,0,0,1,5.58-1.64A9.21,9.21,0,0,1,131.53,35.43Z"/><path class="cls-8" d="M175.29,28.55a13.38,13.38,0,0,1,5.05,7.22h-3.23a10.66,10.66,0,0,0-4.05-5.1,12.59,12.59,0,0,0-12.84-.35,11.1,11.1,0,0,0-4.28,4.56,14.76,14.76,0,0,0-1.55,6.91,14.69,14.69,0,0,0,1.58,7,11.09,11.09,0,0,0,4.33,4.56,12.37,12.37,0,0,0,6.32,1.6,12,12,0,0,0,5.75-1.4,11,11,0,0,0,4.23-4,13.78,13.78,0,0,0,1.88-6.24h-13V40.9h15.67v2.75A16.07,16.07,0,0,1,179,50.82a14.12,14.12,0,0,1-5.18,5,14.9,14.9,0,0,1-7.42,1.83,15.37,15.37,0,0,1-7.88-2A13.78,13.78,0,0,1,153.11,50a17.43,17.43,0,0,1-1.9-8.23,17.47,17.47,0,0,1,1.9-8.24,13.88,13.88,0,0,1,5.33-5.64,15.19,15.19,0,0,1,7.87-2A14.92,14.92,0,0,1,175.29,28.55Z"/><path class="cls-8" d="M204,34.37a10.61,10.61,0,0,1,4.28,4.3,13.52,13.52,0,0,1,1.55,6.62,13.4,13.4,0,0,1-1.55,6.59,10.8,10.8,0,0,1-4.28,4.3,12.55,12.55,0,0,1-6.17,1.5,12.72,12.72,0,0,1-6.2-1.5,10.82,10.82,0,0,1-4.32-4.32,13.22,13.22,0,0,1-1.57-6.57,13.31,13.31,0,0,1,1.57-6.62,10.71,10.71,0,0,1,4.32-4.3,12.83,12.83,0,0,1,6.2-1.48A12.65,12.65,0,0,1,204,34.37Zm-10.6,2.28a8,8,0,0,0-3.28,3.26,10.84,10.84,0,0,0-1.24,5.38,10.69,10.69,0,0,0,1.24,5.35,8,8,0,0,0,3.28,3.24,9.53,9.53,0,0,0,4.43,1.06,9.33,9.33,0,0,0,4.36-1.06,8,8,0,0,0,3.25-3.24,10.59,10.59,0,0,0,1.24-5.35,10.73,10.73,0,0,0-1.24-5.38,8,8,0,0,0-3.25-3.26,9.21,9.21,0,0,0-4.36-1.06A9.41,9.41,0,0,0,193.36,36.65Z"/><path class="cls-8" d="M226.5,44.62q4.68-5.22,4.67-9.78a7,7,0,0,0-1.5-4.67c-1-1.2-2.63-1.8-4.87-1.8a6.47,6.47,0,0,0-5.25,2.15,9.73,9.73,0,0,0-2,5.82h-3.06a11.56,11.56,0,0,1,3.15-7.86A10.13,10.13,0,0,1,225,25.71,9.85,9.85,0,0,1,231.75,28a8.34,8.34,0,0,1,2.57,6.6,14,14,0,0,1-2.44,7.51,34,34,0,0,1-6.06,7.08,48.07,48.07,0,0,1-7.4,5.51H235.2v2.57H214V55A64.14,64.14,0,0,0,226.5,44.62Z"/><path class="cls-8" d="M258.52,53.45a7.62,7.62,0,0,1-3.08,3.06,10.47,10.47,0,0,1-5.18,1.17,12.52,12.52,0,0,1-5.36-1.1,9.55,9.55,0,0,1-3.74-3,8.58,8.58,0,0,1-1.62-4.31h3.28a7,7,0,0,0,1,2.74,6.53,6.53,0,0,0,2.43,2.28,7.62,7.62,0,0,0,3.85.91,6.09,6.09,0,0,0,4.54-1.59,5.51,5.51,0,0,0,1.57-4,5.24,5.24,0,0,0-1-3.39,7.12,7.12,0,0,0-2.56-2,39.39,39.39,0,0,0-4.19-1.55,34.62,34.62,0,0,1-4.71-1.79,8.06,8.06,0,0,1-3-2.54,7.45,7.45,0,0,1-1.24-4.48A7.35,7.35,0,0,1,241.93,28a9.88,9.88,0,0,1,6.82-2.22,10.64,10.64,0,0,1,7,2.17,8.53,8.53,0,0,1,3.08,5.41h-3.32a6.5,6.5,0,0,0-2.11-3.55,6.68,6.68,0,0,0-4.67-1.55,6.48,6.48,0,0,0-4.38,1.42,5,5,0,0,0-1.64,3.94,4.9,4.9,0,0,0,1,3.23,6.82,6.82,0,0,0,2.5,1.91q1.49.66,4.05,1.5a36.79,36.79,0,0,1,4.81,1.82,8.31,8.31,0,0,1,3.12,2.65,7.9,7.9,0,0,1,1.28,4.7A8.46,8.46,0,0,1,258.52,53.45Z"/><path class="cls-8" d="M283.49,35.32a10.1,10.1,0,0,1,3.69,6.47H284a6.85,6.85,0,0,0-2.7-4.54,8.81,8.81,0,0,0-5.45-1.66,8.9,8.9,0,0,0-4.31,1.06,7.64,7.64,0,0,0-3.15,3.26,11.29,11.29,0,0,0-1.17,5.38,11.35,11.35,0,0,0,1.17,5.38,7.67,7.67,0,0,0,3.15,3.25A8.9,8.9,0,0,0,275.8,55a8.81,8.81,0,0,0,5.45-1.66,6.83,6.83,0,0,0,2.7-4.54h3.23a10.07,10.07,0,0,1-3.69,6.47,11.85,11.85,0,0,1-7.64,2.43,12.42,12.42,0,0,1-6.13-1.48,10.4,10.4,0,0,1-4.19-4.3,13.84,13.84,0,0,1-1.5-6.61,13.85,13.85,0,0,1,1.5-6.62,10.4,10.4,0,0,1,4.19-4.3,12.42,12.42,0,0,1,6.13-1.48A11.85,11.85,0,0,1,283.49,35.32Z"/><path class="cls-8" d="M309.21,34.79a9.62,9.62,0,0,1,3.57,5.05V33.2h3.05V57.37h-3.05V50.73a9.62,9.62,0,0,1-3.57,5.05,10.25,10.25,0,0,1-6.26,1.9,11.5,11.5,0,0,1-5.87-1.5,10.22,10.22,0,0,1-4-4.32,14.23,14.23,0,0,1-1.44-6.57,14.33,14.33,0,0,1,1.44-6.62,10.13,10.13,0,0,1,4-4.3A11.53,11.53,0,0,1,303,32.89,10.25,10.25,0,0,1,309.21,34.79Zm-12,3.43a9.84,9.84,0,0,0-2.45,7.07,9.83,9.83,0,0,0,2.45,7.06,8.61,8.61,0,0,0,6.53,2.59,9,9,0,0,0,4.63-1.2,8.36,8.36,0,0,0,3.23-3.38,10.51,10.51,0,0,0,1.18-5.07,10.49,10.49,0,0,0-1.18-5.07,8.45,8.45,0,0,0-3.23-3.39,9,9,0,0,0-4.63-1.2A8.61,8.61,0,0,0,297.21,38.22Z"/><path class="cls-8" d="M325.71,24.61V57.37h-3.15V24.61Z"/><path class="cls-8" d="M348.47,53.48a6.57,6.57,0,0,0,2.65-4.43h3.28a9.8,9.8,0,0,1-3.68,6.24,11.8,11.8,0,0,1-7.61,2.39A12.42,12.42,0,0,1,337,56.2a10.34,10.34,0,0,1-4.19-4.3,13.84,13.84,0,0,1-1.5-6.61,13.85,13.85,0,0,1,1.5-6.62,10.34,10.34,0,0,1,4.19-4.3,12.42,12.42,0,0,1,6.13-1.48,12.12,12.12,0,0,1,6.13,1.48,10.07,10.07,0,0,1,3.94,4,11.16,11.16,0,0,1,1.35,5.41,12.9,12.9,0,0,1-.18,2.25h-20a10.23,10.23,0,0,0,1.26,5.12,7.62,7.62,0,0,0,3.17,3,9.27,9.27,0,0,0,4.21,1A9,9,0,0,0,348.47,53.48Zm-9.66-17.09a7.66,7.66,0,0,0-3.16,3,10.12,10.12,0,0,0-1.31,5h17.09a8.85,8.85,0,0,0-1-5,7.25,7.25,0,0,0-3.1-3,9.81,9.81,0,0,0-8.55,0Z"/><path class="cls-8" d="M362.37,26.87q0,4.56-4,4.56V29.88a2,2,0,0,0,1.59-.58,2.59,2.59,0,0,0,.49-1.73v-1.1h-2V23.1H362A20.88,20.88,0,0,1,362.37,26.87Z"/><path class="cls-8" d="M380.92,35a8.87,8.87,0,0,1,2.92,5.62h-3A6,6,0,0,0,379,36.72a6.3,6.3,0,0,0-4.45-1.53,5.53,5.53,0,0,0-3.74,1.17,4,4,0,0,0-1.35,3.13,3.23,3.23,0,0,0,.86,2.34,5.63,5.63,0,0,0,2.15,1.35,29.19,29.19,0,0,0,3.45,1,31.47,31.47,0,0,1,4.28,1.27,7,7,0,0,1,2.77,2,5.67,5.67,0,0,1,1.15,3.72,6,6,0,0,1-2.15,4.72,8.47,8.47,0,0,1-5.69,1.83,10.76,10.76,0,0,1-6.82-2.06A8.21,8.21,0,0,1,366.27,50h3a5.69,5.69,0,0,0,2.08,3.9,7.48,7.48,0,0,0,4.91,1.5,5.1,5.1,0,0,0,3.59-1.19,4,4,0,0,0,1.28-3.1,3.43,3.43,0,0,0-.88-2.48,5.54,5.54,0,0,0-2.19-1.4,34.72,34.72,0,0,0-3.57-1A33.54,33.54,0,0,1,370.32,45a6.76,6.76,0,0,1-2.68-1.93,5.32,5.32,0,0,1-1.11-3.56,6,6,0,0,1,2.17-4.79,8.9,8.9,0,0,1,5.89-1.81A9.27,9.27,0,0,1,380.92,35Z"/><path class="cls-8" d="M424.4,26.16V57.37h-3.1V42.58H404.39V57.37h-3.14V26.16h3.14V40H421.3V26.16Z"/><path class="cls-8" d="M434.1,26.16v18.9q0,5,2.19,7.35a7.79,7.79,0,0,0,6,2.35,7.67,7.67,0,0,0,6-2.35q2.14-2.34,2.14-7.35V26.16h3.1v18.9c0,4.23-1,7.38-3.05,9.48a12.26,12.26,0,0,1-16.39,0c-2-2.1-3.05-5.25-3.05-9.48V26.16Z"/><path class="cls-8" d="M479.09,43.91A7.58,7.58,0,0,1,480.9,49a7.84,7.84,0,0,1-2.57,6.09q-2.56,2.33-7.44,2.32H460.05V26.16h10.71q4.69,0,7.06,2.1a7.18,7.18,0,0,1,2.37,5.65,7.06,7.06,0,0,1-1.64,4.89,7.73,7.73,0,0,1-4.2,2.41A8.18,8.18,0,0,1,479.09,43.91Zm-15.9-3.81h7.17a7.2,7.2,0,0,0,5-1.52,5.34,5.34,0,0,0,1.71-4.19,5.2,5.2,0,0,0-1.69-4.11c-1.12-1-2.84-1.51-5.18-1.51h-7Zm12.62,13a5.51,5.51,0,0,0,1.95-4.49,5.58,5.58,0,0,0-2-4.5,8.4,8.4,0,0,0-5.5-1.66h-7.08V54.72h7.17A8.3,8.3,0,0,0,475.81,53.1Z"/><g class="cls-37"><path class="cls-8" d="M939.22,77.38v9.8h-4.15V61.93h8.73q4.43,0,6.67,2.07a7.39,7.39,0,0,1,2.23,5.69,7.17,7.17,0,0,1-2.29,5.63c-1.53,1.38-3.73,2.06-6.61,2.06Zm9.26-7.69a4.23,4.23,0,0,0-1.21-3.27,5.67,5.67,0,0,0-3.91-1.13h-4.14v8.76h4.14C946.78,74.05,948.48,72.6,948.48,69.69Z"/><path class="cls-8" d="M960.48,61.93V87.18h-4.14V61.93Z"/><path class="cls-8" d="M969.64,77.38v9.8h-4.15V61.93h8.72q4.44,0,6.67,2.07a7.36,7.36,0,0,1,2.24,5.69,7.17,7.17,0,0,1-2.29,5.63c-1.53,1.38-3.73,2.06-6.62,2.06Zm9.26-7.69a4.23,4.23,0,0,0-1.21-3.27,5.67,5.67,0,0,0-3.91-1.13h-4.14v8.76h4.14C977.2,74.05,978.9,72.6,978.9,69.69Z"/><path class="cls-8" d="M990.9,65.22v7.65h9.45V76H990.9v7.84h10.54v3.32H986.76V61.93h14.68v3.29Z"/><path class="cls-8" d="M1009.61,84h8.87v3.18h-13V61.93h4.14Z"/><path class="cls-8" d="M1025.86,61.93V87.18h-4.14V61.93Z"/><path class="cls-8" d="M1051.63,87.18h-4.15L1035,68.54V87.18h-4.14V62H1035l12.46,18.71V62h4.15Z"/><path class="cls-8" d="M1060.79,65.22v7.65h9.45V76h-9.45v7.84h10.54v3.32h-14.69V61.93h14.69v3.29Z"/><path class="cls-8" d="M1081.83,65.75V61.93H1090V87.18h-4.36V65.75Z"/></g><g class="cls-37"><path class="cls-8" d="M1396.66,248.39v9.8h-4.14V232.93h8.72c3,0,5.18.7,6.67,2.08a7.38,7.38,0,0,1,2.24,5.69,7.21,7.21,0,0,1-2.29,5.63c-1.53,1.37-3.73,2.06-6.62,2.06Zm9.27-7.69a4.26,4.26,0,0,0-1.22-3.28,5.63,5.63,0,0,0-3.9-1.12h-4.15v8.76h4.15C1404.22,245.06,1405.93,243.6,1405.93,240.7Z"/><path class="cls-8" d="M1417.92,232.93v25.26h-4.14V232.93Z"/><path class="cls-8" d="M1427.08,248.39v9.8h-4.14V232.93h8.72c3,0,5.18.7,6.67,2.08a7.38,7.38,0,0,1,2.24,5.69,7.21,7.21,0,0,1-2.29,5.63q-2.29,2.05-6.62,2.06Zm9.27-7.69a4.26,4.26,0,0,0-1.22-3.28,5.63,5.63,0,0,0-3.9-1.12h-4.15v8.76h4.15C1434.64,245.06,1436.35,243.6,1436.35,240.7Z"/><path class="cls-8" d="M1448.34,236.23v7.65h9.45V247h-9.45v7.83h10.54v3.33H1444.2V232.93h14.68v3.3Z"/><path class="cls-8" d="M1467.06,255h8.87v3.19h-13V232.93h4.14Z"/><path class="cls-8" d="M1483.31,232.93v25.26h-4.15V232.93Z"/><path class="cls-8" d="M1509.07,258.19h-4.14l-12.46-18.64v18.64h-4.15V233h4.15l12.46,18.71V233h4.14Z"/><path class="cls-8" d="M1518.23,236.23v7.65h9.45V247h-9.45v7.83h10.54v3.33h-14.68V232.93h14.68v3.3Z"/><path class="cls-8" d="M1554.07,233a6.26,6.26,0,0,1,2.74,2.42,6.49,6.49,0,0,1,.93,3.43,6,6,0,0,1-1.36,4,5.81,5.81,0,0,1-3.84,1.91V245a9.45,9.45,0,0,1,4.16,2.24,5.46,5.46,0,0,1,1.51,4.09,6.7,6.7,0,0,1-2.14,5.17,8.74,8.74,0,0,1-6.14,2,10.12,10.12,0,0,1-6.62-2.06,8.46,8.46,0,0,1-2.87-6.1h4.11a5.22,5.22,0,0,0,1.56,3.42,5.11,5.11,0,0,0,3.63,1.27,4.53,4.53,0,0,0,3.29-1.11,3.8,3.8,0,0,0,1.15-2.86,3.62,3.62,0,0,0-1.66-3.22,8.55,8.55,0,0,0-4.78-1.11h-1v-3.36h1c4,.05,5.93-1.28,5.93-4a3.59,3.59,0,0,0-1.09-2.76,4.28,4.28,0,0,0-3-1,4.58,4.58,0,0,0-3.16,1.13,5,5,0,0,0-1.53,3.27h-4.07a8.21,8.21,0,0,1,2.54-5.78,9.15,9.15,0,0,1,6.33-2A10,10,0,0,1,1554.07,233Z"/></g><g class="cls-37"><path class="cls-8" d="M1046.07,399.28v9.8h-4.14V383.83h8.72q4.44,0,6.67,2.07a7.39,7.39,0,0,1,2.23,5.69,7.16,7.16,0,0,1-2.29,5.63c-1.52,1.38-3.73,2.06-6.61,2.06Zm9.27-7.69a4.24,4.24,0,0,0-1.22-3.27,5.64,5.64,0,0,0-3.91-1.13h-4.14V396h4.14Q1055.34,396,1055.34,391.59Z"/><path class="cls-8" d="M1067.33,383.83v25.25h-4.14V383.83Z"/><path class="cls-8" d="M1076.49,399.28v9.8h-4.14V383.83h8.72q4.44,0,6.67,2.07a7.39,7.39,0,0,1,2.23,5.69,7.16,7.16,0,0,1-2.29,5.63c-1.52,1.38-3.73,2.06-6.61,2.06Zm9.27-7.69a4.24,4.24,0,0,0-1.22-3.27,5.64,5.64,0,0,0-3.91-1.13h-4.14V396h4.14Q1085.76,396,1085.76,391.59Z"/><path class="cls-8" d="M1097.75,387.12v7.65h9.45v3.15h-9.45v7.84h10.54v3.32h-14.68V383.83h14.68v3.29Z"/><path class="cls-8" d="M1116.47,405.9h8.87v3.18h-13V383.83h4.15Z"/><path class="cls-8" d="M1132.71,383.83v25.25h-4.14V383.83Z"/><path class="cls-8" d="M1158.48,409.08h-4.14l-12.47-18.64v18.64h-4.14V383.86h4.14l12.47,18.71V383.86h4.14Z"/><path class="cls-8" d="M1167.64,387.12v7.65h9.45v3.15h-9.45v7.84h10.54v3.32H1163.5V383.83h14.68v3.29Z"/><path class="cls-8" d="M1199.1,398.12q3.54-3.81,3.54-7.07a4.62,4.62,0,0,0-1-3.07,3.84,3.84,0,0,0-3.11-1.15,4,4,0,0,0-3.34,1.42,6.91,6.91,0,0,0-1.28,4h-4a9.42,9.42,0,0,1,2.71-6.62,8.83,8.83,0,0,1,6.27-2.29,8.37,8.37,0,0,1,5.87,1.95,7,7,0,0,1,2.12,5.39,10.69,10.69,0,0,1-1.72,5.58,23.42,23.42,0,0,1-4.38,5.2,37,37,0,0,1-5.49,4.1h12.17v3.32h-17.81v-3A54.82,54.82,0,0,0,1199.1,398.12Z"/></g><image width="816" height="773" transform="translate(594.04 480.61) scale(0.08 0.08)" xlink:href="../../Logos/Logos%20sans%20nom/Logotype_Go2Scale_blanc.png"/></g><g id="Calque_3" data-name="Calque 3"><path class="cls-38" d="M876.57,627.55c8.32-3.83,13.28-9.63-3.84-6-7.24,1.52-14.78,4.51-19.31-.1-6.3-6.42,20.45-13.51,20.48-15.34,0-2.51-18.66.9-17.54-3.58.5-2,8.24-5.05,11.07-6.06a4.82,4.82,0,0,1,2-.48c-1.33,1.53-10.18,5.74-9.67,6.8h0a0,0,0,0,1,0,0c4.46.92,12.85-.66,15.41,1.3,4.6,3.54-2,6.51-6.8,8.43-6,2.38-15.06,6.61-.43,3.87,5.93-1.11,16.29-3.16,21.76-.6,6.33,2.95-.41,8.2-5.71,10.25A20.23,20.23,0,0,1,876.57,627.55Z"/></g></svg>